<?xml version="1.0" encoding="utf-8"?>
<!-- Generator: Adobe Illustrator 23.1.0, SVG Export Plug-In . SVG Version: 6.00 Build 0)  -->
<svg version="1.1" baseProfile="tiny" id="Layer_1" xmlns="http://www.w3.org/2000/svg" xmlns:xlink="http://www.w3.org/1999/xlink"
	 x="0px" y="0px" viewBox="0 0 2692.31 2138.46" xml:space="preserve">
<g>
	<path fill="#fffe" d="M678.67,605.46c52.06-44.38,26.92-115.31,47.72-206.5c48.77-213.92,315.77-387.79,521.9-355.67
		c145.12,22.61,248.76,97.31,248.76,97.31c39.8,28.68,77.08,64.54,142.09,78.72c33.73,7.36,34.75,0.11,122.37-1.05
		c151.6-2.01,191.42,19.1,216.05,40.06c13.66,11.63,7.68,10.47,35.14,40.25c57.83,62.73,86.78,70.48,135.48,114.07
		c37.98,33.99,108.84,93.87,124.86,184.58c5.25,29.75,4.75,60.43,12.51,89.63c12.89,48.54,46.76,87.05,79.36,123.26
		c173.31,192.51,194.57,197.17,217.87,242.01c29.85,57.45,38.55,107.85,49.18,169.48c8.68,50.32,24.01,143.77,3.77,252.92
		c-42.04,226.82-205.71,349.36-239.94,373.74c-27.9,19.88-87.52,61.52-174.46,82.6c-111.66,27.07-123.58-14.89-273.97,4.5
		c-98.94,12.76-145.29,37.57-226.98,13.64c-44.15-12.93-47.87-25.23-80.74-28.92c-85.38-9.57-135.03,65.07-207.08,112.76
		c-118.95,78.73-298.67,83.84-414.77,19.47c-129.49-71.8-137.51-206.59-255.76-219.46c-47.01-5.12-55.64,15.1-138.1,17.85
		c0,0-101.4,3.37-199.97-31.31c-149.18-52.5-293.61-227.33-344.93-428.88c-60.84-238.92,18.03-480.46,154.93-621.26
		c47.84-49.2,118.28-121.64,226.86-141.44C562.95,609.2,625.9,650.44,678.67,605.46z"/>
	<path fill="#C8EAFB" d="M49.63,1398.78c-6.62-31.61-13.24-63.23-19.86-94.84c0.6-1.27,1.87-2.61,1.72-3.79
		c-8.77-65.31-7.97-130.14-0.21-194.64c6.97-47.62,19.13-93.46,33.62-138.5c15.31-37.82,32.38-74.57,51.47-110.08
		c6.55-10.35,13.11-20.7,19.66-31.05c7.74-10.81,15.47-21.62,23.21-32.43c15.44-17.98,30.88-35.97,46.31-53.95
		c0,0,0.92-0.73,0.92-0.73c16.68-15.03,33.37-30.06,50.05-45.09c33.18-24.56,67.63-46.78,103.83-65.79
		c18.06-7.43,36.13-14.86,54.19-22.28c18.55-5.54,37.09-11.09,55.64-16.63c18.93-3.34,37.87-6.69,56.8-10.03
		c19.49-1.1,38.97-2.2,58.46-3.3c19.78,0.73,39.57,1.46,59.35,2.19c3.81,1.13,4.84-1.02,5.29-4.77c2.43-20.21,5.05-40.39,7.6-60.58
		c4.92-20.87,9.84-41.74,14.76-62.62c12.28-38.79,26.99-76.34,43.24-113.12c6.91-12.94,13.83-25.89,20.74-38.83
		c20.7-32.26,42.94-63.14,66.31-93c30.75-33.16,63.53-63.65,98.98-90.62c17.35-11.18,34.69-22.36,52.04-33.54
		c25.27-11.33,49.69-24.77,75.86-33.89c2.21-0.77,12.27-0.95,3.64-9.04c3.77-0.79,7.54-1.58,11.31-2.37
		c-1.55,1.41-2.42,4.13-0.69,4.9c3.58,1.59,7.07,0.05,9.93-2.63c11.11-3.53,23.62-2.53,33.15-11.14c9.42-1.97,18.84-3.95,28.26-5.92
		c3.96,5.02,8.02,0.89,11.9,0.52c17.13-1.6,34.18-3.96,51.33-5.42c38.73-3.31,77.57,0.15,116.41,3.95
		c18.96,4.01,37.92,8.01,56.87,12.02c97.08,28.59,185.76,76.43,262.85,150.77c3.64,3.51,7.09,4.77,11.88,3.7
		c57.02-12.7,114.99-14.49,173.53-9.37c18.97,3.11,37.94,6.22,56.91,9.33c44.91,12.22,89.1,27.28,131.91,47.66
		c22.37,12.99,44.75,25.99,67.12,38.98c4.11,4.37,8.74,7.76,14.08,9.88c18.77,14.97,37.54,29.93,56.31,44.9
		c2.67,2.52,5.35,5.03,8.02,7.55c31.92,32.28,62.83,65.57,89.75,103.23c23.81,33.31,43.59,69.38,63.29,105.56
		c2.17,7.66,5.28,14.82,9.78,21.24c7.89,20.46,15.77,40.93,23.66,61.39c5.87,20.63,11.75,41.26,17.62,61.9
		c3.77,20,7.6,39.99,11.26,60.01c0.83,4.52,2.54,7.81,6.4,10.16c44.59,27.06,84.09,62.13,122.6,98.76
		c15.96,18.56,31.92,37.12,47.87,55.68c6.9,9.56,13.81,19.12,20.71,28.68c6.46,9.88,12.92,19.76,19.38,29.64
		c10.8,19.54,21.61,39.08,32.41,58.61c10.44,24.14,20.88,48.29,31.32,72.43c-0.57,2.6,0.29,4.6,2.32,6.1
		c1.25,4.15,2.5,8.3,3.75,12.45c-0.15,3.65,1.22,6.62,3.63,9.14c1.41,5.28,2.83,10.55,4.24,15.83
		c12.85,45.74,21.33,92.34,27.44,139.39c1.2,20.54,2.39,41.07,3.59,61.61c-0.87,21.21-1.74,42.43-2.6,63.64
		c-2.67,22.46-5.34,44.91-8.01,67.37c-2.15,9.11-4.49,18.17-6.41,27.35c-13.95,66.74-38.76,128.05-69.38,186.49
		c-38.53,65.6-85.82,122.19-141.53,170.13c-16.96,12.23-33.92,24.46-50.88,36.69c-33.92,21.8-70.32,38-106.88,53.83
		c-6.38,2.1-12.76,4.19-19.15,6.29c-2.39-0.79-4.29-0.06-5.73,2.05c-10.2,2.65-20.39,5.3-30.59,7.95
		c-24.71,4.29-49.42,8.58-74.13,12.87c-4.82,0.54-9.63,1.07-14.45,1.61c-3.02-1.05-6-1.48-8.84,0.26
		c-3.89,0.32-7.77,0.65-11.66,0.97c-42.03-1.21-84.03-3.63-125.87-10.99c-14.1-3.74-28.37-6.81-42.26-11.46
		c-8.42-2.82-13.91-0.53-18.54,6.48c-16.35,12.84-33.52,24.23-51.72,33.76c-17.86,7.36-36.28,12.75-55.06,16.91
		c-19.72-0.16-39.45-0.32-59.17-0.48c-43.94-8.71-84.1-27.23-119.69-59.05c-10.8-9.65-19.09-30.62-31.25-28.03
		c-12.1,2.58-21.13,19.56-31.49,30.25c-0.32,0.33-0.37,0.96-0.55,1.45c-3.91,1.36-6.54,4.41-8.77,8
		c-15.39,12.64-30.77,25.28-46.16,37.92c-33.47,23.62-69.16,42.82-105.27,61.19c-18.27,6.79-36.55,13.58-54.82,20.37
		c-18.71,4.54-37.42,9.08-56.14,13.62c-19.08,2.65-38.16,5.29-57.23,7.94c-19.54,0.59-39.09,1.18-58.63,1.76
		c-4.03-2.45-8-1.45-11.96-0.34c-21.54-2.79-43.12-5.02-64.6-8.49c-60.37-9.75-117.9-31.55-173.89-59.57
		c-5.03-2.77-10.07-5.55-15.1-8.32c-17.61-11.42-35.22-22.83-52.83-34.25c-6.95-5.25-13.9-10.49-20.85-15.74
		c-15.53-13.39-31.07-26.79-46.6-40.18c-3.85-5.49-8.41-10.1-13.82-13.64c-12.88-14.59-26.38-28.59-38.41-43.98
		c-7.29-9.33-14.25-11.85-23.6-7.07c-12.31,2.03-24.61,4.05-36.92,6.08c-4.09-1.58-7.98-0.8-11.81,0.66
		c-1.87,0.23-3.74,0.47-5.61,0.7c-40.62,2.65-81.29,0.54-121.99-4.49c-20.41-4.25-40.83-8.51-61.24-12.76
		c-27.08-9.19-54.28-17.82-80.79-29.28c-40.82-17.66-78.9-41.48-116.51-66.46c-1.06-0.79-2.13-1.58-3.19-2.38
		c-59.49-46.4-111.67-101.32-156.23-165.13c-11.81-19.54-23.61-39.09-35.42-58.63c-14.27-30.94-29.07-61.59-41.01-93.74
		C62.98,1437.76,58.96,1417.23,49.63,1398.78z M2284.93,765.66c-2.69-21.38-6.23-42.58-12.67-63.22
		c-8.71-43.26-24-83.95-43.44-123.01c-8.98-20.89-19-41.11-32.32-59.23c-9.94-19.06-21.82-36.54-35.64-52.45
		c-1.45-3.43-3.24-6.53-6.61-8.03c-3.34-4.65-6.42-9.55-10.05-13.9c-32.12-38.44-67.94-72.01-107.7-100.15
		c-49.23-34.83-101.23-62.24-157.86-76.78c-11.21-4.56-22.6-8.09-34.47-8.72c-48.82-12.81-97.76-15.19-146.8-9.43
		c-12.61,0.28-25.06,1.51-37.11,5.37c-4.2-1.08-8.08-0.46-11.61,2.07c-3.05-0.65-5.87-0.22-8.34,1.81
		c-27.37,13.79-49.11,3.37-67.37-22.25c-1.2-1.68-2.91-2.93-4.43-4.32c-57.92-53.34-121.73-94.01-193.65-117.16
		c-40.44-15.14-81.69-23.99-123.86-25.76c-19.84-3.15-39.58-3.43-59.2-0.37c-19.62-0.97-38.82,1.45-57.73,6.1
		c-19.12,3.25-38.46,5.57-56.36,13.9c-19.04,4.14-37.14,11.05-54.42,20.39c-38.35,15.19-73.05,37.28-104.98,64.6
		c-17.91,13.11-34.35,28.14-49,45.5c-11.99,10.25-22.19,22.41-31.13,35.92c-6.58,5.78-11.44,13.19-15.95,20.94
		c-13.66,17.07-25.52,35.57-35.05,55.91c-4.12,5.09-7.14,10.9-8.99,17.49c-10.38,17.03-18.47,35.37-24.15,55.1
		c-17.76,42.53-29.08,87.35-33.91,134.47c-4.75,23.57-6.76,47.53-5.57,71.96c-1.28,3.24-1.65,6.57-0.27,10.03
		c-0.44,2.01-1.44,4.06-1.23,6.01c1.43,13.11-3.4,16.07-14.73,13.26c-12.1-3-24.56-3.77-36.86-5.51
		c-39.62-7.29-79.07-7.29-118.41-2.48c-52.69,5.15-103.24,18.24-150.61,43.08c-5.87,1.38-11.24,3.91-16,7.83
		c-18.89,8.1-36.49,18.64-52.5,32.2c-37.58,24.23-70.23,54.94-98.77,91.03c-13.4,13.7-24.91,29.14-34.5,46.38
		c-4.92,5.13-9.03,10.9-11.33,18.11c-12.6,16.97-22.37,35.9-30.37,56.07c-5.12,7.83-8.74,16.52-11.25,25.84
		c-7.42,14.62-13.2,30.04-16.72,46.54c-8.46,22.28-14.27,45.5-17.54,69.62c-9.67,43.86-13.47,88.58-10.66,134.26
		c0.23,21.7,0.06,43.43,5.09,64.91c1.67,21.6,4.77,42.96,11.23,63.75c4.05,21.31,9.63,42.15,17.86,62.18
		c16.44,54.3,40.9,104.08,73.09,149.5c5.28,10.9,12.35,20.3,20.38,28.88c34.46,49.21,76.66,88.93,123.27,122.89
		c44.1,32.14,90.82,57.99,141.66,72.95c11.03,5.5,22.5,8.98,34.36,10.56c9.06,4.13,18.45,6.04,28.07,6.3
		c19.98,5.94,40.23,8.23,60.62,8.56c19.98,2.93,39.84,2.56,59.64,0.38c19.47,0,38.68-1.84,57.39-7.18
		c13.25,0.53,25.1-5.83,37.86-7.67c6.31-0.91,12.56-5.8,19.14,0.12c0.6,2.29,1.54,4.25,3.86,4.89
		c25.85,39.07,57.21,72.2,91.43,101.94c74.01,64.31,156.37,106.39,248.24,122.48c19.84,5.09,39.88,6.85,59.99,7.51
		c19.97,2.13,39.86,2.37,59.64-0.04c6.66-0.74,13.33-1.48,19.99-2.22c2.15,1.35,4.17,1.39,6.03-0.38
		c10.71,0.11,21.02-2.16,31.2-5.12c19.27-2.43,38.28-5.89,56.05-14.41c19.21-4.15,37.28-11.55,54.55-21.24
		c19.01-7,36.72-16.74,53.31-28.86c39.22-23.34,74.05-52.87,104.28-88.87c14.04-12.9,25.7-28.18,36.22-44.61
		c3.09-1.86,5.27-4.6,6.48-8.29c16.83-18.05,16.83-18.05,28.58,0.46c4.34,13.34,11,25.55,18.32,36.99
		c38.42,60.09,89.46,89.81,155.07,83.22c44.44-3.89,78.99-26.43,105.07-64.91c5.76-5.74,11.79-1.59,17.66,0.44
		c34.55,11.95,69.36,22.07,105.31,24.91c19.92,4.55,39.9,5.35,59.91,4.06c19.52,1.45,38.77-0.27,57.9-3.31
		c19.56-0.96,38.46-5.37,57.14-10.87c19.24-3.17,37.62-9.24,55.3-17.65c48.45-16.48,92.17-42.35,131.48-76.92
		c9.63-5.39,17.46-13.26,24.91-21.67c25.16-20.69,46.03-46.21,65.49-73.08c45.11-62.31,78.01-131.94,94.8-210.98
		c4.87-13.68,6.57-28.23,7.92-42.88c4.12-7.47,3.52-16.32,4.44-24.58c4.92-44.31,7.72-88.8,0.47-133.8
		c-0.12-21.71-3.52-43.05-8.57-64.2c-2.82-21.55-7.85-42.52-15.57-62.8c-4.98-21.35-12.14-41.85-21.56-61.48
		c-7.57-22.76-17.75-44.08-30.61-63.93c-4.66-9.31-7.34-20.18-16.93-25.6c-3.21-15.35-13.33-25.85-22.17-37.25
		c-11.34-17.53-24.06-33.72-38.4-48.37c-7.27-9.98-15.39-18.95-25.02-26.13c-8.65-11.35-19.15-20.26-30.15-28.5
		c-12.9-13.25-27.11-24.39-42.52-33.61c-8.16-7.6-17.22-13.47-26.97-17.99c-1.47-1.34-2.78-3.35-4.44-3.92
		C2296.54,810.98,2284.06,793.64,2284.93,765.66z"/>
</g>
</svg>
