<?xml version="1.0" encoding="utf-8"?>
<!-- Generator: Adobe Illustrator 23.1.0, SVG Export Plug-In . SVG Version: 6.00 Build 0)  -->
<svg version="1.1" baseProfile="tiny" id="Layer_1" xmlns="http://www.w3.org/2000/svg" xmlns:xlink="http://www.w3.org/1999/xlink"
	 x="0px" y="0px" viewBox="0 0 2295.35 1061.09" xml:space="preserve">
<g>
	<path fill="transparent" d="M1153.35,1034.91c-378.8,0-757.61-0.01-1136.41,0.09c-3.75,0-4.59-0.84-4.59-4.59
		c0.1-341.94,0.1-683.88,0-1025.82c0-3.74,0.84-4.59,4.59-4.59c757.94,0.1,1515.88,0.1,2273.82,0c3.75,0,4.59,0.84,4.59,4.59
		c-0.1,341.94-0.1,683.88,0,1025.82c0,3.74-0.84,4.59-4.59,4.59C1911.62,1034.9,1532.48,1034.91,1153.35,1034.91z M1056.55,998.07
		c8.86-0.61,17.64-0.21,26.46-0.89c16.35-1.26,32.64-2.72,48.86-5.13c24.48-3.64,48.46-9.34,72.06-16.67
		c39.07-12.14,76.05-28.94,110.87-50.42c2.8-1.73,4.96-1.69,7.54,0.36c16.53,13.14,34.13,24.68,52.37,35.33
		c24.75,14.46,50.57,26.61,77.54,36.25c30.03,10.74,60.76,18.67,92.4,23.36c21.19,3.14,42.47,4.71,63.79,5.48
		c19.24,0.7,38.44-0.9,57.63-2.71c19.81-1.87,39.43-4.91,58.75-9.47c41.05-9.69,80.36-24.1,117.69-43.98
		c37.6-20.03,71.9-44.58,103.13-73.4c17.36-16.02,33.29-33.45,47.88-52.03c2.56-3.25,5.03-4.2,8.77-4.07
		c20.29,0.71,40.48-0.45,60.44-4.28c29.92-5.73,58.17-15.99,84.67-31.13c26.92-15.39,50.6-34.61,71.04-57.96
		c18.65-21.3,33.58-44.84,45-70.71c14.67-33.22,21.53-68.1,22.73-104.21c0.36-10.94-0.87-21.84-1.84-32.74
		c-1.6-17.89-5.24-35.34-10.57-52.46c-8.76-28.14-21.86-54.11-39.1-78.04c-15.94-22.12-34.77-41.39-56.44-57.89
		c-20.33-15.49-42.48-27.74-66.26-37.17c-24.07-9.55-49.02-15.45-74.73-17.46c-6.87-0.54-10.82-2.71-13.49-8.49
		c-0.48-1.04-1.22-1.97-1.86-2.94c-19.81-30.4-42.53-58.38-68.65-83.66c-12.43-12.03-25.16-23.69-38.77-34.3
		c-27.04-21.08-55.91-39.27-86.83-54.27c-18.43-8.94-37.29-16.75-56.64-23.32c-25.77-8.75-52.13-15.18-79.09-19.27
		c-22.49-3.42-45.02-5.73-67.76-5.77c-17.11-0.03-34.17,0.11-51.26,1.8c-16.16,1.6-32.22,3.72-48.14,6.73
		c-25.3,4.78-50.02,11.76-74.21,20.58c-22.84,8.33-44.8,18.61-66.15,30.18c-4.51,2.44-7.85,4.57-11.68-0.62
		c-1.43-1.94-3.71-3.28-5.67-4.82c-31.96-25.15-66-46.88-103.07-63.84c-37.61-17.2-76.62-29.66-117.29-37.31
		c-26.95-5.07-54.11-7.42-81.4-8.52c-15.92-0.64-31.84,0.74-47.75,1.73c-18.55,1.16-36.86,3.77-55.09,7.15
		c-40.34,7.5-79.06,20.15-116.24,37.41c-25.84,11.99-50.42,26.23-73.76,42.57c-17.82,12.47-34.72,26.07-50.88,40.66
		c-15.34,13.85-29.5,28.77-43.02,44.31c-11.1,12.76-21.28,26.29-30.98,40.14c-1.28,1.84-2.43,2.91-4.84,2.44
		c-4.05-0.78-8.16-1.29-12.24-1.92c-22.85-3.55-45.74-4.7-68.89-3.06c-22.73,1.61-45.02,5.14-66.99,11.09
		c-31.03,8.41-60.12,21.17-87.24,38.37c-24.78,15.72-47.28,34.16-67.09,55.93c-12.44,13.67-23.75,28.15-33.75,43.62
		c-2.4,3.71-4.76,4.51-8.53,3.78c-24.07-4.66-48.18-5.91-72.65-2.97c-26.67,3.21-52.03,10.43-75.98,22.31
		c-24.56,12.19-46.28,28.33-65.23,48.34c-14.38,15.19-26.81,31.72-36.48,50.16c-19.89,37.95-29.21,78.26-26.38,121.3
		c1.09,16.61,3.49,32.86,8,48.87c11.71,41.61,33.45,76.98,65.14,106.43c19.55,18.18,41.42,32.63,65.87,43.2
		c27.72,11.98,56.74,18.16,86.9,19c7.8,0.22,15.58-0.25,23.38-0.79c12.61-0.88,24.99-2.94,37.21-5.93
		c21.25-5.2,41.53-12.99,60.35-24.24c3.91-2.33,6.58-1.44,9.71,1.13c16.6,13.67,34.66,25.12,53.73,35.01
		c21.02,10.91,43,19.38,65.89,25.38c23.94,6.28,48.25,10.11,73.09,10.6c8.44,0.17,16.84-0.13,25.27-0.15
		c16.63-0.03,32.98-2.62,49.29-5.53c17.7-3.15,34.78-8.57,51.67-14.58c3.14-1.12,5.2-0.65,7.48,1.73
		c10.81,11.29,22.55,21.56,34.48,31.66c24.43,20.67,50.77,38.54,78.85,53.77c38.86,21.08,79.71,37.06,122.86,47.23
		C978.69,993.4,1017.39,997.77,1056.55,998.07z"/>
	<path fill="#C8EAFB" d="M1056.55,998.07c-39.16-0.3-77.87-4.67-116.13-13.69c-43.15-10.17-84-26.16-122.86-47.23
		c-28.07-15.23-54.42-33.09-78.85-53.77c-11.93-10.1-23.67-20.37-34.48-31.66c-2.28-2.38-4.33-2.85-7.48-1.73
		c-16.89,6.02-33.97,11.43-51.67,14.58c-16.31,2.9-32.66,5.5-49.29,5.53c-8.42,0.01-16.83,0.31-25.27,0.15
		c-24.84-0.49-49.14-4.32-73.09-10.6c-22.89-6-44.87-14.47-65.89-25.38c-19.07-9.9-37.13-21.34-53.73-35.01
		c-3.12-2.57-5.8-3.46-9.71-1.13c-18.82,11.25-39.1,19.03-60.35,24.24c-12.22,2.99-24.59,5.06-37.21,5.93
		c-7.8,0.54-15.58,1.01-23.38,0.79c-30.16-0.84-59.19-7.01-86.9-19c-24.45-10.57-46.32-25.03-65.87-43.2
		c-31.69-29.46-53.43-64.82-65.14-106.43c-4.5-16-6.9-32.26-8-48.87c-2.83-43.04,6.49-83.35,26.38-121.3
		c9.67-18.44,22.1-34.97,36.48-50.16c18.94-20.01,40.66-36.15,65.23-48.34c23.94-11.89,49.31-19.11,75.98-22.31
		c24.47-2.94,48.59-1.69,72.65,2.97c3.76,0.73,6.13-0.06,8.53-3.78c10-15.47,21.31-29.95,33.75-43.62
		c19.81-21.77,42.31-40.21,67.09-55.93c27.12-17.2,56.21-29.96,87.24-38.37c21.97-5.95,44.26-9.49,66.99-11.09
		c23.15-1.64,46.04-0.49,68.89,3.06c4.08,0.63,8.19,1.14,12.24,1.92c2.41,0.46,3.55-0.61,4.84-2.44
		c9.7-13.86,19.88-27.38,30.98-40.14c13.52-15.54,27.68-30.46,43.02-44.31c16.16-14.59,33.06-28.19,50.88-40.66
		c23.34-16.34,47.93-30.58,73.76-42.57c37.18-17.26,75.9-29.92,116.24-37.41c18.23-3.39,36.54-6,55.09-7.15
		c15.91-0.99,31.83-2.37,47.75-1.73c27.3,1.09,54.45,3.45,81.4,8.52c40.67,7.66,79.68,20.11,117.29,37.31
		c37.07,16.96,71.11,38.7,103.07,63.84c1.95,1.54,4.23,2.87,5.67,4.82c3.83,5.2,7.17,3.07,11.68,0.62
		c21.34-11.56,43.31-21.84,66.15-30.18c24.19-8.83,48.91-15.81,74.21-20.58c15.92-3.01,31.98-5.13,48.14-6.73
		c17.08-1.69,34.15-1.84,51.26-1.8c22.74,0.04,45.28,2.35,67.76,5.77c26.96,4.1,53.32,10.52,79.09,19.27
		c19.35,6.57,38.21,14.38,56.64,23.32c30.92,15,59.79,33.19,86.83,54.27c13.61,10.62,26.34,22.27,38.77,34.3
		c26.12,25.28,48.84,53.25,68.65,83.66c0.63,0.97,1.37,1.9,1.86,2.94c2.67,5.78,6.62,7.96,13.49,8.49
		c25.72,2.01,50.67,7.91,74.73,17.46c23.78,9.43,45.92,21.68,66.26,37.17c21.67,16.5,40.5,35.77,56.44,57.89
		c17.24,23.92,30.33,49.9,39.1,78.04c5.33,17.11,8.98,34.57,10.57,52.46c0.97,10.9,2.2,21.8,1.84,32.74
		c-1.19,36.11-8.06,70.99-22.73,104.21c-11.43,25.88-26.35,49.41-45,70.71c-20.44,23.35-44.12,42.57-71.04,57.96
		c-26.49,15.14-54.75,25.4-84.67,31.13c-19.96,3.82-40.15,4.99-60.44,4.28c-3.74-0.13-6.21,0.81-8.77,4.07
		c-14.59,18.58-30.53,36.01-47.88,52.03c-31.23,28.83-65.54,53.38-103.13,73.4c-37.32,19.88-76.63,34.29-117.69,43.98
		c-19.32,4.56-38.94,7.6-58.75,9.47c-19.18,1.81-38.39,3.41-57.63,2.71c-21.33-0.77-42.6-2.35-63.79-5.48
		c-31.64-4.68-62.37-12.61-92.4-23.36c-26.97-9.65-52.79-21.79-77.54-36.25c-18.23-10.65-35.84-22.19-52.37-35.33
		c-2.58-2.05-4.74-2.09-7.54-0.36c-34.82,21.48-71.8,38.29-110.87,50.42c-23.6,7.33-47.58,13.03-72.06,16.67
		c-16.23,2.41-32.51,3.88-48.86,5.13C1074.19,997.86,1065.42,997.46,1056.55,998.07z M2014.9,798.03c4.27-0.36,11.87,0.14,19.54-0.6
		c21.96-2.14,43.15-7.1,63.57-15.3c36.29-14.58,67.27-36.7,92.4-66.66c14.91-17.77,26.74-37.52,35.87-58.93
		c11.39-26.72,16.74-54.68,17.97-83.54c0.47-10.95-0.66-21.83-1.83-32.73c-2.71-25.17-9.83-49.05-20.7-71.78
		c-14.6-30.51-34.96-56.57-61.09-78.21c-21.61-17.89-45.54-31.45-71.99-40.68c-25.61-8.93-51.95-13.32-79.07-12.91
		c-2.9,0.04-5.56,0.08-7.22-3.1c-2.21-4.27-4.8-8.34-7.2-12.51c-15.39-26.71-33.88-51.17-54.82-73.7
		c-13.91-14.96-28.78-28.97-44.61-42.01c-23.82-19.61-49.44-36.41-76.74-50.61c-34.04-17.7-69.89-30.58-107.4-38.84
		c-24.14-5.32-48.57-8.83-73.2-9.75c-27.36-1.02-54.73-0.36-81.98,3.63c-23.99,3.51-47.57,8.5-70.71,15.65
		c-38.65,11.96-74.83,29.23-108.85,51.04c-2.33,1.49-3.95,1.54-6.26-0.02c-5.01-3.38-8.91-7.97-13.37-11.91
		c-18.18-16.09-37.5-30.59-57.93-43.67c-29.81-19.08-61.53-34.19-94.9-45.88c-37.58-13.16-76.33-20.94-115.96-23.74
		c-17.66-1.25-35.41-2.02-53.24-0.52c-14.84,1.25-29.69,2.14-44.47,4.17c-23.36,3.21-46.27,8.35-68.78,15.27
		c-33.66,10.35-65.64,24.57-96.04,42.34c-31.82,18.6-60.76,40.98-87.32,66.46c-11.03,10.58-21.12,22.05-30.95,33.76
		c-13.35,15.9-25.45,32.67-36.7,50.13c-6.89,10.69-3.16,10.39-15.97,7.05c-1.44-0.37-2.94-0.51-4.37-0.89
		c-17.84-4.72-36.09-6.99-54.42-8.03c-11.23-0.64-22.55-0.25-33.87,0.52c-15.27,1.04-30.35,3.09-45.14,6.56
		c-47.45,11.15-89.62,32.9-125.99,65.37c-27.04,24.14-48.58,52.68-65.12,84.92c-1.69,3.3-3.45,4.37-6.79,3.06
		c-1.39-0.55-2.82-0.99-4.24-1.46c-17.08-5.6-34.63-9.08-52.52-10.21c-15.92-1-31.79,0.5-47.47,3.71
		c-50.04,10.24-89.58,36.53-118.94,78.07c-21.77,30.81-32.42,65.43-33.56,102.99c-0.47,15.28,1.48,30.35,4.77,45.32
		c6.88,31.37,21.22,58.93,42.31,82.87c14.12,16.03,30.53,29.43,49.36,39.93c27.36,15.25,56.6,23.29,87.78,24.46
		c7.78,0.29,15.57-0.07,23.38-0.79c15.62-1.43,30.77-4.7,45.5-9.87c20.39-7.15,39.04-17.57,56.03-30.9c3.36-2.64,6.04-2.5,9.02,0.53
		c7.57,7.7,15.81,14.65,24.26,21.37c24.15,19.2,50.78,33.99,79.78,44.31c34.98,12.45,71,18.23,108.29,16.57
		c19.63-0.88,38.88-3.46,57.93-8c19.29-4.59,37.79-11.45,55.67-19.98c2.99-1.43,5.19-1.43,7.47,1.19
		c3.82,4.38,7.76,8.66,11.81,12.82c12.63,12.98,25.86,25.32,39.77,36.95c26.62,22.26,55.5,41.03,86.42,56.65
		c23.31,11.78,47.56,21.29,72.59,28.87c36.49,11.06,73.85,17.1,111.82,18.98c24.89,1.24,49.84,0.11,74.58-3
		c20.68-2.6,41.18-6.43,61.34-11.87c26.19-7.07,51.63-16.13,76.15-27.77c24.09-11.43,47.13-24.62,68.91-40
		c2.9-2.05,4.71-2.09,7.62,0.44c8.36,7.29,17.01,14.28,25.84,20.99c31.66,24.04,65.99,43.47,102.91,58.2
		c22.37,8.92,45.41,15.81,68.94,21.01c27.9,6.16,56.2,8.96,84.68,9.99c9.76,0.35,19.57-0.15,29.38-0.62c18.9-0.9,37.59-3,56.22-6.12
		c40.55-6.81,79.14-19.62,116.11-37.43c20.69-9.97,40.29-21.8,59.2-34.84c19.72-13.6,38.1-28.82,55.24-45.49
		c18.83-18.3,36-38.1,51.13-59.61c1.2-1.7,2.35-3.72,5.08-3.3C1990.32,798.09,2000.92,798.48,2014.9,798.03z"/>
	<path fill="#F4FAFD" d="M2014.9,798.03c-13.98,0.45-24.58,0.05-35.1-1.58c-2.74-0.43-3.88,1.59-5.08,3.3
		c-15.13,21.51-32.3,41.3-51.13,59.61c-17.14,16.66-35.52,31.89-55.24,45.49c-18.91,13.04-38.51,24.87-59.2,34.84
		c-36.97,17.81-75.56,30.62-116.11,37.43c-18.63,3.13-37.32,5.23-56.22,6.12c-9.8,0.47-19.61,0.97-29.38,0.62
		c-28.48-1.03-56.78-3.83-84.68-9.99c-23.54-5.2-46.57-12.09-68.94-21.01c-36.92-14.73-71.25-34.16-102.91-58.2
		c-8.84-6.71-17.49-13.7-25.84-20.99c-2.91-2.54-4.72-2.49-7.62-0.44c-21.78,15.37-44.82,28.57-68.91,40
		c-24.52,11.63-49.96,20.7-76.15,27.77c-20.17,5.44-40.66,9.27-61.34,11.87c-24.74,3.11-49.69,4.24-74.58,3
		c-37.98-1.89-75.33-7.92-111.82-18.98c-25.03-7.58-49.28-17.09-72.59-28.87c-30.92-15.63-59.8-34.39-86.42-56.65
		c-13.92-11.64-27.14-23.97-39.77-36.95c-4.05-4.16-7.99-8.44-11.81-12.82c-2.28-2.62-4.48-2.62-7.47-1.19
		c-17.88,8.52-36.38,15.38-55.67,19.98c-19.05,4.54-38.29,7.12-57.93,8c-37.29,1.67-73.31-4.12-108.29-16.57
		c-29-10.32-55.63-25.11-79.78-44.31c-8.46-6.72-16.69-13.67-24.26-21.37c-2.98-3.03-5.66-3.16-9.02-0.53
		c-16.99,13.34-35.64,23.76-56.03,30.9c-14.73,5.16-29.89,8.43-45.5,9.87c-7.81,0.72-15.6,1.08-23.38,0.79
		c-31.18-1.17-60.43-9.21-87.78-24.46c-18.83-10.5-35.24-23.9-49.36-39.93c-21.09-23.94-35.44-51.5-42.31-82.87
		c-3.28-14.97-5.23-30.04-4.77-45.32c1.14-37.56,11.79-72.19,33.56-102.99c29.36-41.54,68.91-67.83,118.94-78.07
		c15.68-3.21,31.55-4.71,47.47-3.71c17.89,1.12,35.44,4.61,52.52,10.21c1.42,0.47,2.85,0.91,4.24,1.46c3.34,1.31,5.1,0.25,6.79-3.06
		c16.54-32.24,38.08-60.79,65.12-84.92c36.37-32.47,78.54-54.22,125.99-65.37c14.79-3.47,29.87-5.52,45.14-6.56
		c11.32-0.77,22.64-1.16,33.87-0.52c18.32,1.04,36.58,3.31,54.42,8.03c1.44,0.38,2.93,0.52,4.37,0.89
		c12.81,3.33,9.08,3.63,15.97-7.05c11.25-17.45,23.35-34.22,36.7-50.13c9.83-11.71,19.93-23.18,30.95-33.76
		c26.55-25.48,55.5-47.86,87.32-66.46c30.4-17.77,62.38-31.99,96.04-42.34c22.51-6.92,45.42-12.06,68.78-15.27
		c14.78-2.03,29.63-2.93,44.47-4.17c17.84-1.5,35.59-0.73,53.24,0.52c39.63,2.81,78.38,10.58,115.96,23.74
		c33.38,11.69,65.09,26.8,94.9,45.88c20.44,13.08,39.76,27.58,57.93,43.67c4.46,3.95,8.36,8.53,13.37,11.91
		c2.31,1.56,3.93,1.51,6.26,0.02c34.02-21.81,70.2-39.09,108.85-51.04c23.14-7.16,46.72-12.15,70.71-15.65
		c27.25-3.99,54.62-4.65,81.98-3.63c24.63,0.92,49.06,4.43,73.2,9.75c37.51,8.26,73.36,21.14,107.4,38.84
		c27.3,14.2,52.92,31.01,76.74,50.61c15.83,13.03,30.7,27.05,44.61,42.01c20.94,22.53,39.43,46.99,54.82,73.7
		c2.4,4.17,4.99,8.25,7.2,12.51c1.65,3.19,4.31,3.15,7.22,3.1c27.13-0.41,53.47,3.97,79.07,12.91
		c26.45,9.23,50.38,22.79,71.99,40.68c26.14,21.63,46.5,47.7,61.09,78.21c10.88,22.73,18,46.61,20.7,71.78
		c1.17,10.9,2.3,21.78,1.83,32.73c-1.23,28.85-6.57,56.82-17.97,83.54c-9.12,21.4-20.96,41.15-35.87,58.93
		c-25.13,29.96-56.11,52.08-92.4,66.66c-20.42,8.2-41.61,13.16-63.57,15.3C2026.77,798.17,2019.17,797.67,2014.9,798.03z"/>
</g>
</svg>
