<?xml version="1.0" encoding="utf-8"?>
<!-- Generator: Adobe Illustrator 23.1.0, SVG Export Plug-In . SVG Version: 6.00 Build 0)  -->
<svg version="1.1" baseProfile="tiny" xmlns="http://www.w3.org/2000/svg" xmlns:xlink="http://www.w3.org/1999/xlink" x="0px"
	 y="0px" viewBox="0 0 9556.23 1424.08" xml:space="preserve">
<g id="Layer_1">
</g>
<g id="Layer_2">
</g>
<g id="Layer_3">
	<g>
		<path fill="#717171" d="M5967.37,1379.78c-32.66,0-65.32,0-97.98,0c-2.15-25.79-33.01-48.38-9.89-77.61
			c16.3,4.36,12.33,25.41,28.25,33.3c0-48.17-5.31-93.15,1.59-136.06c6.13-38.12-7.64-63.09-28.99-88.35
			c-9.73-11.51-21.41-19.39-35.54-25.9c-25.38-11.69-32.81-38.38-24.31-61.74c14.62-40.22,35.31,2.89,54.53,1.05
			c32.13-3.08,21.57,14.79,10.54,33.17c-6.21,10.36,6.39,19.82,15.31,24.04c12.24,5.79,15.64-4.6,15.38-14.27
			c-2.2-80.99,21.42-161.17-5.54-243.43c-31.24-95.32-80.48-190.36-38.95-296.7c2.12-5.42,0.36-12.41,2.37-17.92
			c6.46-17.68,1.04-24.29-17.25-26.08c-45.55-4.46-90.85-12.24-136.87-7.67c-27.78-0.31-55.83-3.2-83.28-0.26
			c-33.16,3.55-67.51,18.68-98.81,3.71c-22.64-10.83-43.59-14.79-67.09-13.09c-80.15-3.28-160.31-6.56-240.46-9.84
			c-121.29-19.87-241.26-51.15-365.62-44.27c-5.91-9.57-11.56-9.57-16.92,0.5c-18.07,2.71-36.13,5.42-54.2,8.13
			c-111.9-31.22-223.88-30.33-333.19,8.52c-31.98,11.36-72.1,1.6-96.2,35.29c-8.18,0.31-16.37,0.62-24.55,0.94
			c-2.41-1.63-5.26-5.11-7.17-4.63c-81.82,20.33-164.87,28.86-248.73,36.47c-57.12,5.18-116.28-5.41-171.48,15.06
			c-47.03,17.44-102.89-10.12-144.42,30.93c-42.31,41.82-90.22,27.8-134.52,9.8c-49.6-20.15-98.27-34.14-152.44-34.05
			c-91.57,0.15-183.15-5.26-274.73-8.25c-9.03-0.29-17.8-0.86-24.39-8.39c2.65-3.59,5.06-7.41,8.01-10.72
			c10.99-12.33,40.56-9.76,34.11-34.21c-5.22-19.79-28.28-17.3-45.72-19.69c-97.13-13.31-193.91-7.32-291.36-0.82
			c-169.76,11.32-336.95,33.18-497.65,93.48c-40.23-6.81-78.67,12.23-118.78,8.56c-11.89-1.09-24.8,0.33-29.22,14.71
			c-3.84,12.5,7.2,18.72,13.71,26.48c37.46,44.65,75.23,89,107.75,137.77c13.19,19.78,14.14,38.9,12.66,63.44
			c-4.67,77.19-18.76,152.65-31.46,228.39c-10.53,62.8-1.67,129.98-47.15,184.92c-39.9,48.2-74.19,101.26-111.68,151.61
			c-7.84,10.54-10.94,21.1-9.76,33.68c-35.63,0-71.25,0-106.88,0c10.47-69.37,21.89-138.39,26.18-208.83
			c6.78-111.26-2.1-222.34-4.33-333.14c-1.6-79.22-20.31-158.14-5-238.35c4.59-24.08-1.85-41.31-30.9-42.95
			c-63.24-3.56-126.16-13.17-189.78-9.17c-11.74,0.74-26.9,3.91-34.88-2c-51.5-38.14-115.95-28.42-171.25-51.34
			c-76.07-18.95-153.44-8.32-230.24-10.76c-2.12-7.51-5.63-15.56-13.6-15.82c-65.46-2.15-130.95-3.65-196.44-4.68
			c-1.72-0.03-3.56,7.53-5.35,11.55c-5.54,0.02-11.09,0.04-16.63,0.06c-3.45-18.79-17.68-17.68-31.06-17.33
			c-51.89,1.38-102.68-2.83-153.55-16.36c-26.07-6.93-56.39-7.85-83.26,3.12c-63.92,26.09-132.47,26.49-198.6,40.14
			c-111.74,23.07-137.89-5.01-213.85,27.7c-35.14,15.13-44.47,26.3-81.44,48.86c-50.18,30.63-126.65,67.23-236.82,86.75
			c-63.17-2.89-111.22-61.07-104.72-124.68c6.43-63.02,64.16-109.39,126.07-99.57c64.01,11.65,156.47,24.25,268.53,24.47
			c61.55,0.12,110.06-3.53,159.34-7.97c133.73-12.06,266.78-30.14,399.21-50.62c172.62-26.7,343.15-19.84,514.28,7.8
			c113.57,18.34,227.5,34.1,342.36,41.5c185.23,11.93,365.58-17.69,542.66-70.14c176.35-52.24,356.87-65.51,538.9-66.97
			c111.31-0.89,222.65-1.09,333.95,0.52c54.58,0.79,109.16,5.61,163.63,10.03c149.96,12.17,299.11,36.16,449.98,34.66
			c54.15-0.54,107.6,3.39,162.36-14.47c50.08-16.34,105.52,5.46,158.38,4.81c164.4-2.02,328.67,4.93,493.32-6.19
			c150.56-10.17,302.3-4.87,452.86,9.09c37.83,3.51,76.27,6.47,114.29,11.71c96.37,13.28,193.16,27.29,290.14,30.88
			c139.34,5.16,279.01,0.1,418.51,1.91c62.85,0.82,123.39-8.08,183.8-24.87c140.81-39.14,280.21-88.54,429.57-75.88
			c43.96,3.72,87.42,15.02,131.37,17.17c147.57,7.21,290.95,45.88,438.06,57.91c136.42,11.16,272.62,8.02,408.66,3.91
			c77.43-2.34,154.5-24.19,231.22,3.49c25.96,9.37,52.45,8.74,79.07,8.2c190.65-3.86,380.21-31.34,571.26-27.4
			c44.26,0.91,88.24-0.5,132.66-7.45c49.5-7.74,94.31-37.04,147.13-29.28c65.59,9.64,132.14,12.97,197.41,24.29
			c83,14.4,166.9,19.5,250.03,31.41c98.95,14.18,159.76,11,263.32,31.41c27.45,5.41,49.86,10.55,64.48,14.04
			c-0.07,4.02-2.12,66.84-48.02,92.37c-14.73,8.19-29.35,9.98-39.86,9.98c-30.41-3.38-60.48-2.48-89.88,7.3
			c-9.05-10.84-17.85-10.99-26.37,0.66c-7.29-0.59-13.9,0.67-18.59,7.18c-162.21-1.15-324.06,17.64-486.34,9.93
			c-43.41-2.06-87.35-3.31-129.27-18.04c0.36-26.51,35.02-26.2,40.73-55.41c-276.22-3.97-549.36-42.63-822.74,2.19
			c-18.69,22.05-41.87,28.15-70.22,26.46c-113.45-6.77-226.69,0.63-341.03-13.04c-78.13-9.34-161.19-0.84-242.32-4.36
			c-78.31-3.4-153.53-24.88-231.4-31.84c-84.96-7.59-169.01-27.53-255.21-25.1c-65.17-12.91-130.39-13.65-195.65-0.7
			c-18.24-11.68-36.27-12.8-53.98,1.18c-20.77,0.07-41.54,0.14-62.31,0.21c-41.55-15.19-83.15-14.02-124.77-0.31
			c-50.49,2.28-101.48-4.75-151.36,8.72c-11.41-9.86-21.93-11.52-32.76,1.43c12.6,14.56,26.38,18.34,41.7,18.07
			c11.96,5.7,20.58,18.43,35.56,17.78c-2.5,23.29-20.13,18.3-33.93,18.13c-62.04-0.73-123.33,13.72-185.57,8.99
			c-30.83-2.34-38.58,16.94-25.29,39.95c46.26,80.14,89.43,161.6,120.43,249.41c14.15,40.1,41.43,78.53,14.33,123.64
			c-8.8-0.08-17.66,0.53-26.37-0.41c-10.35-1.12-23.23,15.5-30.55-1.96c-5.97-14.24,9.71-14.92,16.96-21.1
			c10.7-9.12,7.4-20.74-2.73-25.89c-17.82-9.06-30.29,5.16-41.8,16.08c-8.95,8.49-21.49,15.71-12.09,33.62
			c21.07,40.14,65.92,44.32,99.48,7.96c31.5,27.35,25.64,53.84-2.68,78.58c-8.76,7.65-19.97,11.36-23.75,24.93
			C6057.63,1140.88,6041.12,1270.73,5967.37,1379.78z"/>
		<path fill="#444444" d="M2155.25,1379.78c-1.18-12.58,1.91-23.15,9.76-33.68c37.48-50.35,71.78-103.41,111.68-151.61
			c45.48-54.95,36.61-122.12,47.15-184.93c12.7-75.74,26.8-151.19,31.46-228.39c1.48-24.53,0.53-43.65-12.66-63.44
			c-32.52-48.77-70.29-93.12-107.75-137.77c-6.51-7.77-17.55-13.98-13.71-26.48c4.42-14.38,17.33-15.79,29.22-14.71
			c40.11,3.68,78.56-15.37,118.78-8.56c3.75,25.05,27.25,25.27,42.74,34.84c106.18,65.57,198.6,144.71,230.65,274
			c26.76,107.96,69.98,207.29,127.5,300.93c4.72,7.68,7.23,18.47,18.18,15.33c11.09-3.18,7.72-14.83,8.23-23.34
			c6.57-108.59,55.65-205.53,81.52-308.89c19.03-76.03,64.37-142.43,113.09-202.09c44.67-54.7,91.29-113.55,170.69-118.82
			c6.59,7.52,15.36,8.09,24.39,8.39c91.58,2.99,183.16,8.39,274.73,8.25c54.17-0.09,102.85,13.9,152.44,34.05
			c44.3,18,92.21,32.02,134.52-9.8c41.54-41.05,97.4-13.49,144.42-30.93c55.21-20.47,114.37-9.88,171.48-15.06
			c83.86-7.61,166.91-16.14,248.73-36.47c1.91-0.48,4.76,3,7.17,4.63c3.23,33.35,14.05,64.57,24.26,96.16
			c30.95,95.68,64.03,190.83,90.03,287.94c19.48,72.76,36.61,143.84,85.53,204.34c35.25,43.6,71.29,90.98,75.32,150.96
			c3.95,58.75,11.57,116.88,18.69,175.16c-38.6,0-77.19,0-115.79,0c0-15.22,0.21-30.45-0.03-45.67
			c-0.96-60.46-12.14-123.98-47.99-167.14c-39.53-47.6-87.71-92.46-149.75-116.68c-63.65-24.85-124.04-61.28-157.72-124.51
			c-26.99-50.65-44.56-106.95-63-161.92c-14.12-42.07-51.43-55.68-87.6-31.7c-58.49,38.78-82.01,102.16-108.12,161.79
			c-39.99,91.3-49.94,189.64-44.53,289.14c2.31,42.57-15.67,78.99-46.2,98.24c-85.69,54.05-180.18,81.27-282.41,70.88
			c-15.37-1.56-27.16-8.3-38.02-20.37c-58.16-64.65-89.18-145.08-103.06-227.59c-14.88-88.43-36.2-173.92-62.15-259.03
			c-43.19-141.65-169.47-140.61-249.57-53.27c-71.54,78-97.37,185.8-117.6,290.01c-19.12,98.46-30.61,198.49-45.46,297.82
			C2648.1,1379.78,2401.67,1379.78,2155.25,1379.78z"/>
		<path fill="#3C3C3C" d="M6181.09,428.34c49.88-13.46,100.87-6.43,151.36-8.71c41.56,15.28,83.15,14.86,124.77,0.31
			c20.77-0.07,41.54-0.14,62.31-0.2c18.29,13.99,36.31,14.62,53.98-1.18c65.26-12.95,130.47-12.21,195.65,0.7
			c0.16,16.72-3.62,34.71,1.1,49.93c36.58,118.02,54.82,240.64,86.62,359.72c34.01,127.34,60.49,256.48,92.56,384.19
			c14.4,57.34-12.67,111.14-2.33,166.68c-273.14,0-546.28,0-819.43,0c12.87-58.48,29.33-116.81,48.68-172.39
			c19.89-57.15,12.36-114.23,18.62-170.33c6.11-54.81,15.01-114.14-5-170.11c-13.3-37.2-9.03-73.98,0.03-111.62
			c20.11-83.63,37.66-167.92,57.9-251.51c5.61-23.18,1.23-35.34-22.32-38.2c-14.97,0.65-23.59-12.08-35.56-17.78
			C6187.05,441.33,6184.07,434.84,6181.09,428.34z"/>
		<path fill="#444444" d="M6947.12,1379.78c-10.35-55.55,16.73-109.34,2.33-166.68c-32.07-127.71-58.55-256.86-92.56-384.19
			c-31.81-119.08-50.05-241.7-86.62-359.72c-4.72-15.22-0.94-33.21-1.1-49.93c86.2-2.44,170.25,17.5,255.21,25.09
			c77.87,6.96,153.09,28.44,231.4,31.84c81.13,3.52,164.19-4.98,242.32,4.36c114.34,13.67,227.58,6.27,341.03,13.04
			c28.36,1.69,51.53-4.41,70.22-26.48c-1.12,15.42,4.08,29.31,7.88,44.03c15.48,60.02,51.85,110.6,68.88,170.49
			c12.73,44.75,20.27,90.95,33.67,134.22c20.19,65.22,12.6,126.75,7.11,190.9c-4.11,48.08-3.31,96.5,1.92,145.09
			c8.22,76.39,7.97,153.86,31.69,227.96c-20.78,0-41.57,0-62.35,0c1.08-97.55-46.83-181.06-74.2-270.37
			c-19.74-64.4-45.74-126.18-73.93-187.61c-24.19-52.71-52.54-101.75-83.98-149.32c-8.15-12.33-19.07-33.19-36.97-27.05
			c-16.79,5.76-13.91,27.37-16.71,43.72c-18.15,106.03-85.13,108.61-147.61,59.97c-43.1-33.56-95.92-47.43-147.14-61.61
			c-47.03-13.02-104.14,12.43-112.94,48.16c-9.33,37.92-16.93,76.24-19.93,115.88c-4.61,60.95-16.7,119.66-49.23,174.27
			c-46.4,77.9-104.88,152.84-92.41,253.95C7077.76,1379.78,7012.44,1379.78,6947.12,1379.78z"/>
		<path fill="#3C3C3C" d="M8060.47,1379.78c-23.71-74.09-23.47-151.56-31.69-227.96c-5.23-48.59-6.03-97.01-1.92-145.09
			c5.49-64.15,13.08-125.68-7.11-190.9c-13.39-43.26-20.94-89.47-33.67-134.22c-17.04-59.9-53.4-110.47-68.88-170.49
			c-3.8-14.72-9-28.61-7.88-44.03c273.38-44.8,546.52-6.14,822.74-2.17c-5.7,29.22-40.37,28.91-40.71,55.41
			c-23.13,12.49-35.51,32.31-43.99,57.79c-18.59,55.91-25.81,114.09-38.41,171.06c-31.23,141.23-4.12,282.64-10.84,423.71
			c-3.22,67.66,16.78,137.16,14.56,206.86C8428.62,1379.78,8244.55,1379.78,8060.47,1379.78z"/>
		<path fill="#3C3C3C" d="M2894.52,1379.78c14.85-99.34,26.34-199.36,45.46-297.82c20.24-104.21,46.07-212.01,117.6-290.01
			c80.1-87.34,206.38-88.37,249.57,53.27c25.95,85.11,47.27,170.6,62.15,259.03c13.88,82.51,44.9,162.94,103.06,227.59
			c10.86,12.07,22.65,18.81,38.02,20.37c102.23,10.39,196.72-16.83,282.41-70.88c30.52-19.25,48.51-55.68,46.2-98.24
			c-5.41-99.5,4.55-197.84,44.53-289.14c26.12-59.63,49.64-123.01,108.12-161.79c36.17-23.98,73.49-10.37,87.6,31.7
			c18.45,54.96,36.02,111.26,63,161.92c33.68,63.22,94.08,99.65,157.72,124.51c62.04,24.23,110.23,69.09,149.75,116.68
			c35.85,43.17,47.03,106.68,47.99,167.14c0.24,15.22,0.03,30.45,0.03,45.67C3963.34,1379.78,3428.93,1379.78,2894.52,1379.78z"/>
		<path fill="#444444" d="M8612.7,1379.78c2.22-69.69-17.78-139.2-14.56-206.86c6.71-141.08-20.39-282.49,10.84-423.71
			c12.6-56.98,19.81-115.16,38.41-171.06c8.48-25.49,20.86-45.3,43.99-57.79c41.9,14.73,85.84,15.98,129.25,18.04
			c114.99,5.47,172.87,0.41,182.78-0.07c138.93-6.71,161.21-23.39,281.86-29.97c70.71-3.86,132.01-1.9,180.55,1.62
			c-93.21,208.78-89.17,319.05-66.28,381.54c29.67,81.01,17.29,110.29,14.69,171.31c-0.87,20.5-5.58,40.35-25.47,49.44
			c-16.37,7.48-30.77-20.59-42.89-16.16c-19.45,7.12-0.46,78.48-12.46,147.14c-6.83,39.11-25.29,86.31-70.49,136.53
			c-77.19,0-154.39,0-231.58,0c-0.42-10.16-7.28-15.1-14.03-21.54c-36.44-34.76-80.68-64.13-93.92-117.35
			c-10.57-42.49-29.39-81.85-37.36-125.72c-7.72-42.53-28-82.41-54.72-117.58c-15.72-20.7-29.89-24.89-51.18-5.22
			c-53.34,49.31-74.3,147.29-51.05,217.42c19.48,58.77,59.08,108.19,70.68,169.99C8737.39,1379.78,8675.05,1379.78,8612.7,1379.78z"
			/>
		<path fill="#444444" d="M240.37,520.11c85.64,14.66,170.12,31.85,255.46-8.47c67.12-31.71,143.01-13.08,213.85-27.7
			c66.12-13.65,134.68-14.05,198.6-40.14c26.87-10.97,57.19-10.05,83.26-3.12c50.87,13.53,101.67,17.74,153.55,16.36
			c13.39-0.35,27.62-1.46,31.06,17.33c-69.26-1.98-138.83,6.97-207.75-5.36c-23.58-4.22-24.34,5.69-19.84,25.19
			c17.49,75.77,27.27,154.16,52.11,227.2c35.34,103.92,49.5,212.85,83.21,317.3c35.79,110.9,55.81,227.15,82.72,341.07
			c-124.7,0-249.39,0-374.09,0c5.93-137.8,15.8-275.58,16.3-413.39c0.3-81.49-21.74-161.12-60.31-233.91
			c-24.88-46.97-67.36-71.24-108.91-66.8c-34.73,3.71-59.09,28.68-68.98,39.33c-93.58,100.82-106.51,620.68-107.66,674.77
			c-50.47,0-100.94,0-151.42,0c-13.84-24.6-32.95-59.94-53.87-103.51c-14.64-30.49-34.59-74.21-44.51-100.37
			c-40.74-107.37-0.15-142.21-19.95-312.29c-6.83-58.63-1.82-117.87-14.62-176.03c-8.57-38.94,5.58-73.09,29.58-105.29
			C221.6,564.26,244.9,548.91,240.37,520.11z"/>
		<path fill="#3C3C3C" d="M4613.53,1379.78c-7.12-58.28-14.75-116.4-18.69-175.16c-4.03-59.98-40.07-107.36-75.32-150.96
			c-48.92-60.5-66.04-131.57-85.53-204.34c-26.01-97.12-59.08-192.26-90.03-287.94c-10.22-31.58-21.04-62.8-24.26-96.16
			c8.19-0.32,16.37-0.63,24.57-0.93c116.24,8.81,230.71-16.82,346.46-19.59c27.01-0.65,58.99-3.1,82.91-24.23
			c18.07-2.71,36.13-5.42,54.19-8.14c5.86,8.27,11.5,7.83,16.93-0.49c124.36-6.88,244.33,24.41,365.62,44.28
			c-0.93,26.45-11.36,49.64-22.68,72.79c-53.09,108.63-105.61,217.56-158.72,326.18c-25.49,52.14-48.58,105.9-78.44,155.31
			c-68.8,113.84-125.23,231.07-123.25,369.37C4756.04,1379.78,4684.79,1379.78,4613.53,1379.78z"/>
		<path fill="#3C3C3C" d="M1166.59,1379.78c-26.91-113.92-46.93-230.17-82.72-341.07c-33.71-104.44-47.86-213.38-83.21-317.3
			c-24.84-73.05-34.63-151.44-52.11-227.2c-4.5-19.51-3.74-29.41,19.84-25.19c68.92,12.33,138.49,3.38,207.75,5.36
			c5.55-0.03,11.09-0.05,16.64-0.06c71.12,20.2,143.61,5.33,215.38,8.94c76.8,2.44,154.18-8.2,230.24,10.75
			c-41.61,186.65-83.38,373.26-124.76,559.97c-24.05,108.51-56.05,215.19-70.94,325.8
			C1350.67,1379.78,1258.63,1379.78,1166.59,1379.78z"/>
		<path fill="#444444" d="M1442.7,1379.78c14.9-110.61,46.89-217.29,70.94-325.8c41.38-186.71,83.15-373.32,124.76-559.97
			c55.29,22.93,119.74,13.21,171.25,51.35c7.98,5.91,23.15,2.74,34.88,2c63.62-4,126.55,5.6,189.78,9.17
			c29.04,1.64,35.49,18.87,30.9,42.95c-15.31,80.2,3.41,159.12,5,238.35c2.23,110.8,11.12,221.88,4.33,333.14
			c-4.29,70.44-15.71,139.46-26.18,208.83c-56.41,0-112.82,0-169.23,0c-2.5-5.25-3.62-12.67-7.71-15.41
			c-56.52-37.93-56.29-37.63-32.31-97.5c3.77-9.42,3.11-20.73,4.37-31.19c5.37-44.33-13.19-83.4-26.33-123.52
			c-15.42-47.06-49.21-74.54-82.6-68.69c-42.27,7.4-79.97,51.34-77.6,96.36c4.21,80.07,11.39,159.97,17.32,239.94
			C1597.09,1379.78,1519.9,1379.78,1442.7,1379.78z"/>
		<path fill="#3C3C3C" d="M7143.07,1379.78c-12.47-101.11,46.01-176.05,92.41-253.95c32.53-54.62,44.62-113.32,49.23-174.27
			c3-39.63,10.6-77.96,19.93-115.88c8.79-35.73,65.91-61.18,112.94-48.16c51.22,14.18,104.04,28.05,147.14,61.61
			c62.48,48.64,129.46,46.06,147.61-59.97c2.8-16.35-0.08-37.96,16.71-43.72c17.9-6.14,28.83,14.72,36.97,27.05
			c31.45,47.56,59.79,96.61,83.98,149.32c28.19,61.43,54.19,123.21,73.93,187.61c27.38,89.31,75.29,172.82,74.2,270.37
			C7713.11,1379.78,7428.09,1379.78,7143.07,1379.78z"/>
		<path fill="#3C3C3C" d="M5450.84,465.96c23.5-1.7,44.45,2.26,67.09,13.09c31.3,14.97,65.65-0.16,98.81-3.71
			c10.62-1.14,13.96-0.32,20.9-1.25c23.48-3.13,41.74-11.43,53.42-17.9c152.81-33.4,201.17-9.88,217.76,16.59
			c22.7,36.22-15.3,75.99-16.05,182.54c-0.14,19.93,0.97,49.95,32.09,180.17c40.71,170.34,52.95,178.1,59.6,227.58
			c9.54,70.96,0.63,175.91-89.4,316.7c-192.63,0-385.26,0-577.89,0c-9.2-63.44-5.95-125.07,11.27-187.87
			c23.05-84.07,37.93-169.98,8.85-257.22c-21.5-64.51-40.09-130.03-60.21-195.02c-6.01-19.43-9.96-41.03-0.75-57.97
			c32.9-60.52,63.27-122.97,123-163.52C5418.69,505.02,5446.68,496.59,5450.84,465.96z"/>
		<path fill="#444444" d="M5450.84,465.96c-4.16,30.63-32.15,39.06-51.51,52.2c-59.72,40.55-90.09,103-123,163.52
			c-9.21,16.94-5.26,38.55,0.75,57.97c20.12,64.99,38.71,130.52,60.21,195.02c29.08,87.24,14.2,173.16-8.85,257.22
			c-17.22,62.8-20.47,124.43-11.27,187.87c-38.6,0-77.19,0-115.79,0c-0.9-55.58-5.6-109.95-14.79-165.56
			c-16.53-100.03-105.11-110.76-173.52-74.82c-32.27,16.96-43.67,41.34-44.8,79.9c-1.71,58.2,16.57,109.04,37.17,160.48
			c-59.38,0-118.76,0-178.14,0c-1.98-138.3,54.45-255.53,123.25-369.37c29.86-49.41,52.95-103.18,78.44-155.31
			c53.11-108.62,105.63-217.55,158.72-326.18c11.31-23.15,21.75-46.35,22.68-72.79C5290.53,459.4,5370.69,462.68,5450.84,465.96z"/>
		<path fill="#3C3C3C" d="M460.23,1131.83c2.04-43.11,17.35-328.08,110.38-426.82c10.86-11.52,34.74-35.67,68.98-39.33
			c41.55-4.44,84.03,19.83,108.91,66.8c38.56,72.8,60.6,152.42,60.31,233.91c-0.5,137.82-10.37,275.6-16.3,413.39
			c-109.85,0-219.7,0-329.55,0c-0.32-43.23-0.64-86.46-0.95-129.67C461.41,1210.68,460.82,1171.26,460.23,1131.83z"/>
		<path fill="#444444" d="M6225.59,465.62c23.55,2.86,27.94,15.02,22.32,38.2c-20.24,83.6-37.79,167.88-57.9,251.51
			c-9.05,37.64-13.33,74.42-0.03,111.62c20.01,55.97,11.12,115.3,5,170.11c-6.26,56.1,1.27,113.18-18.62,170.33
			c-19.34,55.57-35.81,113.91-48.68,172.39c-53.44,0-106.88,0-160.32,0c73.75-109.05,90.26-238.9,124.65-362.22
			c3.79-13.58,14.99-17.28,23.75-24.93c28.32-24.74,34.18-51.23,2.68-78.58c-0.49-2.94-1.46-5.7-2.9-8.29
			c27.1-45.11-0.17-83.55-14.33-123.64c-31-87.81-74.17-169.27-120.43-249.41c-13.29-23.02-5.54-42.3,25.29-39.95
			c62.25,4.73,123.54-9.72,185.58-8.99C6205.46,483.92,6223.1,488.91,6225.59,465.62z"/>
		<path fill="#3C3C3C" d="M8799.74,1379.78c-11.6-61.8-51.2-111.21-70.68-169.99c-23.25-70.12-2.28-168.11,51.05-217.42
			c21.28-19.68,35.46-15.48,51.18,5.22c26.71,35.17,46.99,75.05,54.72,117.58c7.96,43.86,26.79,83.22,37.36,125.72
			c13.24,53.22,57.48,82.59,93.92,117.35c6.75,6.44,13.61,11.38,14.03,21.54C8954.13,1379.78,8876.93,1379.78,8799.74,1379.78z"/>
		<path fill="#3C3C3C" d="M1674.28,1379.78c-5.94-79.97-13.11-159.87-17.32-239.94c-2.37-45.02,35.33-88.96,77.6-96.36
			c33.39-5.85,67.19,21.63,82.6,68.69c13.14,40.12,31.7,79.19,26.33,123.52c-1.27,10.45-0.6,21.77-4.37,31.19
			c-23.98,59.87-24.21,59.57,32.31,97.5c4.09,2.75,5.21,10.17,7.71,15.41C1810.85,1379.78,1742.57,1379.78,1674.28,1379.78z"/>
		<path fill="#3C3C3C" d="M5005.43,1379.78c-20.59-51.44-38.87-102.28-37.17-160.48c1.13-38.56,12.53-62.94,44.8-79.9
			c68.41-35.95,156.99-25.22,173.52,74.82c9.19,55.61,13.89,109.98,14.79,165.56C5136.07,1379.78,5070.75,1379.78,5005.43,1379.78z"
			/>
		<path fill="#8A8A8A" d="M140.76,164.11c5.96-15.21,11.93-30.41,17.89-45.62c187.96,8.99,471.41,20.22,817.64,24.54
			c77.91,0.97,451.85,9.36,942.65-3.92c367.72-9.95,735.9-2.36,1103.88-2.34c8.89,0,17.81,0.18,26.68,0.79
			c170.73,11.76,341.32,27.06,512.24,34.09c100.26,4.12,200.97-0.21,301.69-5.33c157.89-8.03,316.1-10.9,474.13-19.51
			c174.99-9.53,166.07-2.51,359.53-7.94c458.72-12.89,417.55-30.35,638.68-26.41c143.08,2.55,312.21,12.56,504.29,7.11
			c15.94-0.45,53.21-1.61,105.44-2.37c132.14-1.92,226.52,0.65,285.56,1.87c85.06,1.76,101.07,0.81,351.67,0.5
			c1001.91-1.25,1502.87-1.88,1709.99,16.59c103.18,9.2,212.59,22,373.59,16.73c99.76-3.27,281.82-15.52,430.97-28.58
			c42.67-3.74,126.8-11.41,238.39-2.37c53.02,4.29,96.59,11.09,126.15,16.41c9.18,43.13,1.06,61.77-8.03,70.82
			c-34.02,33.85-108.34-40.02-229.86-25.83c-57.99,6.77-56.33,25.37-112.89,26.32c-45.39,0.76-90.6,6.27-135.95,8.44
			c-4.44,0.21-20.67,1.58-27.7,11.51c-2.15,3.04-3.4,7.14-3.33,12.82c0.21,17.2,14.56,18.67,28.23,22.44
			c69.49,19.18,141.38,37.08,213.25,34.05c205.66-8.68,346.6-14.63,367.9,36.37c5.51,13.2,5.29,35.66-23.77,75.68
			c-14.62-3.49-37.03-8.63-64.48-14.04c-103.56-20.4-164.37-17.23-263.32-31.41c-83.13-11.91-167.04-17.01-250.03-31.41
			c-65.27-11.32-131.82-14.65-197.41-24.29c-52.82-7.77-97.63,21.53-147.13,29.28c-44.43,6.95-88.4,8.36-132.66,7.45
			c-191.04-3.94-380.61,23.54-571.26,27.4c-26.62,0.54-53.11,1.17-79.07-8.2c-76.72-27.68-153.79-5.83-231.22-3.49
			c-136.03,4.11-272.23,7.25-408.66-3.91c-147.11-12.03-290.49-50.7-438.06-57.91c-43.95-2.15-87.41-13.45-131.37-17.17
			c-149.36-12.65-288.76,36.75-429.57,75.88c-60.41,16.79-120.95,25.69-183.8,24.87c-139.5-1.81-279.17,3.25-418.51-1.91
			c-96.98-3.59-193.78-17.6-290.14-30.88c-38.02-5.24-76.46-8.21-114.29-11.71c-150.56-13.96-302.3-19.26-452.86-9.09
			c-164.64,11.12-328.92,4.17-493.32,6.19c-52.86,0.65-108.3-21.15-158.38-4.81c-54.76,17.86-108.2,13.93-162.36,14.47
			c-150.87,1.5-300.02-22.49-449.98-34.66c-54.47-4.42-109.05-9.24-163.63-10.03c-111.3-1.62-222.64-1.42-333.95-0.52
			c-182.03,1.46-362.55,14.73-538.9,66.97c-177.08,52.45-357.44,82.07-542.66,70.14c-114.87-7.4-228.79-23.16-342.36-41.5
			c-171.14-27.64-341.66-34.5-514.28-7.8c-132.43,20.48-265.48,38.56-399.21,50.62c-108.62,9.79-104.05,0.73-159.34,7.97
			C221.81,479.65,112.49,602.4,68.26,565.25c-23.77-19.97-29.62-86.88,77.29-314.47c286.77,42.7,508.71,54.29,620.52,52.05
			c159.69-3.2,220.26-26.22,267.32-34.75c17.24-3.12,47.23,0.3,47.45-23.25c0.26-27.64-31.65-25.98-51.28-34.22
			c-2.63-1.1-5.91-0.43-8.81-0.99c-47.99-9.34-269.47-34.01-533.31-44.4C400.21,161.78,282.18,159.55,140.76,164.11z
			 M4485.73,300.85c136.38,6.64,272.38-3.97,408.41-9.7c66.17-2.79,132.17-11.36,198-19.44c12.82-1.57,35.34-2.05,35.03-20.61
			c-0.34-20.52-21.49-20.52-37.61-23.14c-124.27-20.18-250.23-22.46-375.12-25.31c-262.13-5.99-524.71-8.95-786.61,8.61
			c-67.03,4.5-136.06,2.34-201.44,25.56c-8.39,2.98-19.27,2.23-19.01,14.18c0.25,11.81,10.6,12.05,19.62,13.49
			c36.37,5.8,72.62,17.09,108.98,17.35c114.71,0.81,228.48,15.63,343.85,14.47C4281.17,295.3,4383.87,294.99,4485.73,300.85z
			 M5789.73,328.81c106.47,3.93,233.13-9.29,359.65-20.28c38.09-3.31,78.35-2.71,115.5-24.16c33.02-19.06,20.22-30.15,0.55-44.58
			c-10.91-8-24.77-8.84-37.43-12.69c-103.4-31.4-210.8-26.7-316.23-33.7c-128.3-8.51-257.7-5.63-386.02,8.03
			c-65.2,6.94-131.86,8.88-193.85,35.31c-12.97,5.53-35.44,3.37-36.3,19.6c-1.1,20.74,21.29,26.22,37.35,33.29
			c5.29,2.33,11.62,2.07,17.42,3.28C5488.5,321.67,5628.34,329.13,5789.73,328.81z M7316.72,300.1
			c113.86,6.02,231.39-2.18,346.77-32.9c13.32-3.55,34,1.09,36.48-18.77c2.64-21.21-20.92-22.54-32.54-32.7
			c-5.89-5.15-16.58-4.78-25.2-6.31c-62.57-11.13-126.04-12.97-189.02-19.5c-170.51-17.67-338.86-6.05-506.21,28.9
			c-15.88,3.32-34.43,5.61-34.13,28.17c0.31,22.99,21.59,18.25,33.85,21.16C7066.84,296.71,7188.83,305.5,7316.72,300.1z
			 M2324.84,173.05c-55.02,0-99.73-3.4-143.75,0.79c-66.94,6.37-135.51,5.34-198.83,35.17c-11.55,5.44-22.08,9.87-21.59,24.68
			c0.41,12.26,9.22,18.56,19.16,22.67c8.14,3.37,16.61,6.14,25.15,8.22c143.85,35.11,290.41,31.64,436.06,24.79
			c64.74-3.04,132.93-1.64,194.6-33.27c10.6-5.44,23.56-5.92,25.57-20.62c2.37-17.37-10.71-23.51-23.03-29.02
			c-6.66-2.98-14.05-4.25-21.12-6.27C2517.76,171.87,2416.08,171.45,2324.84,173.05z M8456.07,291.96
			c59.48,0.25,105.21,2.05,150.14-9.59c15.36-3.98,29.37-10.57,29.56-28.26c0.14-13.08-11.51-22.67-23.18-24.23
			c-94.78-12.64-189.73-26.27-283.78,5.36c-11.07,3.72-25.34,5.06-24.4,21.16c0.85,14.56,14.81,18.02,25.38,22.19
			C8375.16,296.45,8422.82,291.47,8456.07,291.96z M1682.06,237.6c-35.44-5.11-73.2,3.22-110.38,12.39
			c-13.79,3.4-37.65,2.29-35.96,25.59c1.32,18.11,19.64,27.06,35.2,30.79c81.91,19.62,163.62,17.25,244.57-6.6
			c11.96-3.52,23.15-11.25,24.26-23.87c1.63-18.63-15.22-19.98-27.64-22.99C1770.51,242.83,1728.64,234.36,1682.06,237.6z
			 M8065.68,246.31c31.35-4.78,71.89,7.64,110.74-8c13.32-5.36,34.2-6.06,32.72-24.44c-1.61-19.99-22.3-19.6-38.4-22.61
			c-85.27-15.92-170.41-7.26-255.63,0.11c-13.92,1.2-28.47,2.24-30.43,19.61c-2.3,20.38,17.1,18.24,27.94,22.34
			C7959.59,251.11,8008.9,245.48,8065.68,246.31z M6591.64,228.45c57.04-1.27,110.23,3.77,162.39-10.12
			c9.03-2.4,18.95-4.9,19.81-14.84c1.11-12.84-10.88-11.24-19.09-13c-101.83-21.79-203.73-25.53-305.64-0.87
			c-8.94,2.16-24.35-1.29-22.74,14.47c1.23,12.04,14.45,12.19,24.38,15.45C6498.51,235.24,6547.55,224.4,6591.64,228.45z
			 M7887.44,328.15c30.24,0,52.43,0.33,74.61-0.14c10.73-0.23,21.78-3.2,23.38-16.08c1.71-13.73-9.32-16.55-19.66-19.75
			c-54.06-16.69-107.92-9.64-161.75,0.98c-7.49,1.48-14.46,5.91-15.25,14.22c-0.94,9.87,8.07,10.6,14.65,13.57
			C7833.31,334.44,7864.83,325.86,7887.44,328.15z"/>
		<path fill="#3C3C3C" d="M3161.8,502.17c-79.4,5.27-126.02,64.12-170.69,118.82c-48.72,59.66-94.06,126.07-113.09,202.09
			c-25.87,103.36-74.95,200.31-81.52,308.89c-0.51,8.51,2.86,20.16-8.23,23.34c-10.95,3.14-13.46-7.64-18.18-15.33
			c-57.52-93.64-100.74-192.97-127.5-300.93c-32.05-129.29-124.48-208.43-230.65-274c-15.49-9.57-38.99-9.8-42.74-34.84
			c160.71-60.3,327.89-82.15,497.65-93.48c97.45-6.5,194.23-12.48,291.36,0.82c17.45,2.39,40.5-0.1,45.72,19.69
			c6.45,24.45-23.11,21.88-34.11,34.21C3166.85,494.76,3164.45,498.59,3161.8,502.17z"/>
		<path fill="#444444" d="M4773.64,420.48c-23.92,21.13-55.9,23.58-82.91,24.23c-115.75,2.77-230.22,28.4-346.46,19.59
			c24.08-33.71,64.2-23.94,96.18-35.3C4549.76,390.14,4661.74,389.25,4773.64,420.48z"/>
		<path fill="#8A8A8A" d="M6115.55,905.75c1.44,2.59,2.41,5.35,2.9,8.29c-33.56,36.37-78.41,32.18-99.48-7.95
			c-9.4-17.9,3.14-25.12,12.09-33.62c11.51-10.92,23.98-25.14,41.8-16.08c10.13,5.15,13.43,16.77,2.73,25.89
			c-7.25,6.18-22.93,6.86-16.96,21.1c7.32,17.46,20.2,0.84,30.55,1.96C6097.89,906.28,6106.76,905.68,6115.55,905.75z"/>
		<path fill="#444444" d="M1408.16,483.26c-71.77-3.62-144.26,11.26-215.38-8.94c1.78-4.03,3.62-11.59,5.34-11.56
			c65.49,1.03,130.97,2.53,196.44,4.68C1402.53,467.7,1406.04,475.75,1408.16,483.26z"/>
		<path fill="#444444" d="M6457.22,419.94c-41.62,14.55-83.22,14.97-124.77-0.31C6374.08,405.91,6415.67,404.75,6457.22,419.94z"/>
		<path fill="#444444" d="M6573.51,418.55c-17.67,15.8-35.69,15.18-53.98,1.18C6537.24,405.74,6555.27,406.87,6573.51,418.55z"/>
		<path fill="#444444" d="M6181.09,428.34c2.98,6.5,5.96,13,8.95,19.5c-15.33,0.28-29.11-3.5-41.7-18.06
			C6159.16,416.82,6169.68,418.48,6181.09,428.34z"/>
		<path fill="#444444" d="M4844.76,411.85c-5.43,8.31-11.07,8.75-16.93,0.49C4833.2,402.28,4838.85,402.28,4844.76,411.85z"/>
		<path fill="#9D9D9D" d="M9150.5,147.65c-37.14-0.86-46.33,0.85-50.88,3.36c-2.95,1.62-4.85,3.32-5.12,3.53
			c-169.79,134.48-611.52,12.44-611.52,12.44c-37.62-10.39-291.54-14.52-799.38-22.78c-662.07-10.76-880.88-3.4-1160.81-8.39
			c-97.3-1.74-194.41-13.14-291.73-16.75c-91.7-3.4-182.25,12.86-272.76,25.5c-39.26,5.49-76.24-8.11-114.67-7.98
			c-114.25,0.38-228.5-0.17-342.75-0.15c-267.94,0.06-536-4.3-803.78,2.43c-119.84,3.01-239.89,1.43-359.53,7.94
			c-158.02,8.61-316.24,11.49-474.13,19.51c-100.73,5.12-201.43,9.45-301.69,5.33c-170.91-7.03-341.51-22.33-512.24-34.09
			c-8.87-0.61-17.78-0.79-26.68-0.79c-367.98-0.02-736.15-7.6-1103.88,2.34c-262.24,7.09-489.08,4.56-942.65,3.92
			c-350.22-0.5-637.51-3.61-829.52-6.24c10.41-19.54,22.13-30.1,29.23-35.54c54.98-42.16,122,2.08,269.06-13.61
			c10.7-1.14,17.57-2.51,22.05-2.58c262.55-4.43,525.12-19.27,787.67-9.27c361.59,13.77,723.03,30.21,1085.02,26.72
			c158.69-1.53,316.69-11.56,474.79-25.76c73.21-6.58,148.13,1.53,221.9,7.69c239.81,20.01,480.04,23.81,720.21,16.03
			c241.39-7.81,482.51-23.91,723.85-33.76c267.1-10.89,533.33,12.69,799.9,24.38c440.48,19.32,881.28,13.65,1321.95,8.73
			c237.13-2.65,474.38-8.35,711.22-20.19c163.69-8.19,325.21,15.69,487.91,19.29c14.83,0.33,29.65,1.56,44.48,1.65
			c351.76,2.08,703.56,7.09,1055.26-0.92c147.78-3.37,294.32-85.89,470.34-25.51c41.72,14.31,109.49,43.49,106.17,62.04
			C9473.15,162.11,9332.1,151.83,9150.5,147.65z"/>
		<path fill="#9D9D9D" d="M9532.37,313.91c-153.34-12.59-264.19-17.4-346.83-14.98c-71.9,2.1-143.76-14.87-213.25-34.05
			c-13.67-3.77-28.02-5.24-28.23-22.44c-0.25-20.19,16.06-20.35,31.03-24.33c81.07-21.56,165.34-28.84,248.84-34.76
			c127.82-9.06,123.42-22.91,159.26-12.72C9460.75,192.67,9507.53,264.96,9532.37,313.91z"/>
		<path fill="#9D9D9D" d="M140.76,164.11c141.42-4.56,259.45-2.33,346.7,1.11c263.84,10.39,485.33,35.06,533.31,44.4
			c2.9,0.56,6.18-0.11,8.81,0.99c19.63,8.24,51.54,6.58,51.28,34.22c-0.22,23.56-30.21,20.13-47.45,23.25
			c-88.46,16.03-177.52,33.8-267.32,34.75c-316.72,3.34-514.71,103.1-596.96-3.09C151.82,277.4,133.3,237.73,140.76,164.11z"/>
		<path fill="#9D9D9D" d="M4485.73,300.85c-101.87-5.86-204.56-5.55-305.88-4.53c-115.37,1.16-229.14-13.67-343.85-14.47
			c-36.36-0.26-72.61-11.55-108.98-17.35c-9.02-1.44-19.37-1.68-19.62-13.49c-0.25-11.95,10.62-11.2,19.01-14.18
			c65.38-23.22,134.41-21.07,201.44-25.56c261.9-17.56,524.48-14.6,786.61-8.61c124.89,2.85,250.85,5.13,375.12,25.31
			c16.11,2.62,37.27,2.62,37.61,23.14c0.31,18.56-22.21,19.04-35.03,20.61c-65.83,8.09-131.83,16.66-198,19.44
			C4758.11,296.88,4622.11,307.49,4485.73,300.85z"/>
		<path fill="#9D9D9D" d="M5789.73,328.81c-161.39,0.33-301.22-7.14-439.34-35.89c-5.8-1.21-12.13-0.95-17.42-3.28
			c-16.06-7.07-38.45-12.55-37.35-33.29c0.86-16.23,23.33-14.08,36.3-19.6c61.99-26.43,128.65-28.36,193.85-35.31
			c128.31-13.66,257.72-16.55,386.02-8.03c105.43,7,212.83,2.3,316.23,33.7c12.66,3.85,26.52,4.68,37.43,12.69
			c19.67,14.43,32.46,25.51-0.55,44.58c-37.15,21.45-77.42,20.85-115.5,24.16C6022.86,319.52,5896.2,332.74,5789.73,328.81z"/>
		<path fill="#9D9D9D" d="M7316.72,300.1c-127.89,5.4-249.88-3.39-370.01-31.96c-12.26-2.91-33.54,1.83-33.85-21.16
			c-0.3-22.57,18.25-24.86,34.13-28.17c167.35-34.94,335.7-46.57,506.21-28.9c62.98,6.53,126.45,8.37,189.02,19.5
			c8.62,1.53,19.31,1.17,25.2,6.31c11.62,10.16,35.18,11.49,32.54,32.7c-2.47,19.86-23.16,15.23-36.48,18.77
			C7548.1,297.92,7430.58,306.12,7316.72,300.1z"/>
		<path fill="#9D9D9D" d="M2324.84,173.05c91.24-1.6,192.92-1.18,292.22,27.15c7.07,2.02,14.46,3.29,21.12,6.27
			c12.33,5.51,25.41,11.65,23.03,29.02c-2.01,14.7-14.97,15.19-25.57,20.62c-61.67,31.63-129.86,30.22-194.6,33.27
			c-145.65,6.85-292.21,10.32-436.06-24.79c-8.54-2.09-17.01-4.85-25.15-8.22c-9.94-4.11-18.75-10.41-19.16-22.67
			c-0.49-14.82,10.04-19.24,21.59-24.68c63.32-29.83,131.88-28.8,198.83-35.17C2225.11,169.65,2269.83,173.05,2324.84,173.05z"/>
		<path fill="#717171" d="M8456.07,291.96c-33.25-0.49-80.91,4.5-126.27-13.36c-10.58-4.16-24.53-7.62-25.38-22.19
			c-0.94-16.1,13.33-17.44,24.4-21.16c94.04-31.63,189-18.01,283.78-5.36c11.67,1.56,23.33,11.15,23.18,24.23
			c-0.2,17.69-14.21,24.28-29.56,28.26C8561.28,294,8515.54,292.2,8456.07,291.96z"/>
		<path fill="#9D9D9D" d="M1682.06,237.6c46.58-3.24,88.46,5.23,130.05,15.31c12.42,3.01,29.28,4.37,27.64,22.99
			c-1.11,12.63-12.3,20.35-24.26,23.87c-80.94,23.85-162.66,26.22-244.57,6.6c-15.56-3.73-33.88-12.68-35.2-30.79
			c-1.69-23.31,22.17-22.19,35.96-25.59C1608.86,240.81,1646.62,232.49,1682.06,237.6z"/>
		<path fill="#9D9D9D" d="M8065.68,246.31c-56.78-0.83-106.1,4.8-153.05-12.98c-10.85-4.11-30.25-1.97-27.94-22.34
			c1.96-17.36,16.51-18.4,30.43-19.61c85.21-7.37,170.35-16.03,255.63-0.11c16.09,3.01,36.79,2.62,38.4,22.61
			c1.48,18.38-19.4,19.07-32.72,24.44C8137.57,253.95,8097.03,241.53,8065.68,246.31z"/>
		<path fill="#717171" d="M6591.64,228.45c-44.1-4.06-93.13,6.78-140.89-8.9c-9.93-3.26-23.16-3.41-24.38-15.45
			c-1.61-15.76,13.81-12.31,22.74-14.47c101.91-24.66,203.81-20.92,305.64,0.87c8.21,1.76,20.2,0.16,19.09,13
			c-0.86,9.94-10.78,12.43-19.81,14.84C6701.87,232.23,6648.69,227.18,6591.64,228.45z"/>
		<path fill="#9D9D9D" d="M7887.44,328.15c-22.61-2.29-54.13,6.29-84.02-7.2c-6.58-2.97-15.59-3.7-14.65-13.57
			c0.79-8.31,7.76-12.74,15.25-14.22c53.83-10.62,107.69-17.67,161.75-0.98c10.34,3.19,21.37,6.02,19.66,19.75
			c-1.6,12.88-12.65,15.85-23.38,16.08C7939.87,328.48,7917.68,328.15,7887.44,328.15z"/>
	</g>
</g>
</svg>
