<?xml version="1.0" encoding="utf-8"?>
<!-- Generator: Adobe Illustrator 23.1.0, SVG Export Plug-In . SVG Version: 6.00 Build 0)  -->
<svg version="1.1" baseProfile="tiny" id="Layer_1" xmlns="http://www.w3.org/2000/svg" xmlns:xlink="http://www.w3.org/1999/xlink"
	 x="0px" y="0px" viewBox="0 0 9556.23 1551.44" xml:space="preserve">
<g>
	<path fill="#EAC434" d="M207.56,444.27c942.56,28.97,1891.38-87.34,2828.97,13.55c771.38,83,1552.76,64.97,3115.52,28.91
		c636.66-14.69,719.99-47.09,1082.53-15.96c177.02,15.2,379.21,42,659.94,0.01c258.64-38.68,266.14-88.2,520.1-140.71
		c482.08-99.66,1005.13-34.92,1078.04,153.43c11.08,28.62,31.34,110.65,34.34,205.83c2.45,77.4,3.67,116.1-13.29,143.45
		c-17.25,27.8-59.95,66.82-409.3,64.95c-153.24-0.82-197.69-8.61-318.39,0c-105.8,7.55-181.13,21.34-209.48,26.02
		c-269.15,44.48-600.61-21.91-687.8-37.6c-122.71-22.08-241.22-30.08-1279.36,34.73c-1488.42,92.92-1298.81,112.73-1554.35,107.13
		c-915.96-20.05-993.32-222.84-1784.2-168.96c-587.1,40-552.81,152.32-1072.63,148.67c-669.17-4.7-970.36-192.55-1381.59-89.27
		c-186.45,46.83-383.73,24.81-575.13,42.83c-55.05,5.18-133.4,12.92-179.4-34.61c-28.06-28.99-20.34-54.01-18.15-314.85
		c0.48-57.34,0.43-94.08,26.73-124.37C111.28,440.71,184.95,443.58,207.56,444.27z"/>
	<path fill="#FFCE00" d="M6841.36,162.06l-0.72-0.36l-0.06,0.57L6841.36,162.06z"/>
	<path fill="#C17E2F" d="M47.62,1080.1c-5.21-13.35-40.23-107.41,9.3-189.59c51.87-86.05,175.64-124.54,292.58-77.96
		c462.06-1.43,798.93,1.44,825.47,1.86c15.3,0.24,30.43,2.23,45.71,2.68c8.47,0.25,17.19,0.72,25.73,1.72
		c14.76,1.73,29.46,4.02,44.23,5.65c19.4,2.14,38.68,5.25,57.79,8.97c39,7.58,77.69,16.53,116.11,26.79
		c39.04,10.43,78.06,21.04,117.57,29.62c25.87,5.61,51.67,11.67,77.73,16.23c27.98,4.9,56.09,9.13,84.27,12.97
		c25.88,3.53,51.89,5.68,77.76,9.2c14.39,1.96,28.98,2.73,43.47,3.92c20.45,1.68,40.99,2.38,61.46,4.17
		c11.87,1.04,23.79,0.57,35.76,1.74c17.12,1.67,34.44,0.83,51.72,2.09c27.82,2.04,55.79,0.77,83.72,1.68
		c40.15,1.3,80.44,1.99,120.71-1.01c26.45-1.98,53.12-0.55,79.71-2.02c16.54-0.91,33.05-3.67,49.71-2.4
		c0.65,0.05,1.35-0.01,1.98-0.17c12.3-3.27,25.04-2.1,37.53-3.34c11.14-1.11,22.44-2.09,33.67-2.85c21.39-1.45,42.6-5.49,63.98-7.31
		c18.15-1.55,36.09-4.54,54.15-6.63c22.29-2.58,44.44-6.62,66.66-9.97c31.37-4.72,62.6-10.36,93.85-15.84
		c33.54-5.88,67.05-11.91,100.53-18.08c26.98-4.98,53.78-11.06,80.88-15.24c38.87-5.99,77.54-13.19,116.46-18.9
		c20.24-2.97,40.52-5.98,60.74-9.25c25.1-4.06,50.38-7.18,75.65-10.05c23.64-2.69,47.3-5.33,70.95-7.94
		c20.7-2.28,41.48-3.87,62.21-5.98c16.77-1.71,33.64-2.77,50.47-3.98c18.82-1.35,37.64-2.92,56.47-4.05
		c25.14-1.51,50.34-1.99,75.47-4.1c14.86-1.25,29.79-0.47,44.76-1.69c22.45-1.84,45.14-1.61,67.7-2.03
		c62.96-1.17,125.95-0.41,188.93-0.4c2.66,0,5.51-0.51,7.96,0.23c12.95,3.91,26.38,1.38,39.59,3.19
		c11.31,1.55,23.01,2.58,34.64,2.95c7.5,0.24,15.15,1.21,22.72,1.99c15.44,1.59,30.81,3.86,46.24,5.57
		c14.46,1.61,29.08,2.16,43.42,4.47c15.04,2.43,30.21,3.38,45.25,5.58c13.07,1.91,26.11,4.21,39.24,5.46
		c11.55,1.09,22.95,3.01,34.43,4.49c12.79,1.65,25.63,2.9,38.41,4.59c12.44,1.64,24.83,3.69,37.25,5.44
		c11.78,1.66,23.59,3.11,35.37,4.76c12.1,1.69,24.19,3.54,36.29,5.24c15.71,2.21,31.44,4.29,47.14,6.55
		c16.67,2.41,33.32,4.99,49.98,7.45c10.79,1.59,21.59,3.09,32.39,4.66c16.67,2.43,33.34,4.88,50,7.32
		c11.77,1.72,23.53,3.44,35.3,5.15c11.12,1.62,22.23,3.27,33.36,4.84c15.71,2.23,31.43,4.34,47.13,6.62
		c16.34,2.38,32.64,5.05,49,7.31c16.7,2.31,33.46,4.19,50.16,6.44c18,2.43,35.97,5.12,53.96,7.6c11.46,1.58,22.95,2.94,34.42,4.48
		c13.42,1.8,26.81,3.81,40.25,5.48c13.13,1.63,26.4,2.31,39.4,4.6c13.7,2.41,27.54,3.74,41.29,5.11c15.46,1.54,30.87,3.7,46.4,4.85
		c7.5,0.55,15.18,0.94,22.73,1.94c10.48,1.39,20.98,2.95,31.52,3.39c12.59,0.53,25.25,1.39,37.68,2.68
		c19.84,2.07,39.8,2.73,59.53,2.95c50.21,0.56,100.44,1.35,150.71-1.13c54.48-2.69,109.11,1.28,163.69-2.08
		c35.81-2.2,71.8,0.92,107.71-2.05c25.47-2.1,51.1,0.58,76.74-1.83c24.41-2.29,49.11,0.3,73.71-2.15
		c19.79-1.97,39.75,0.16,59.74-1.82c20.74-2.06,41.79-0.05,62.71-2.22c16.14-1.67,32.43-0.07,48.75-1.77
		c18.74-1.96,37.79-0.17,56.71-2.25c13.48-1.49,27.1-0.05,40.76-1.75c15.72-1.95,31.78-0.24,47.71-2.18
		c13.44-1.64,27.09-0.18,40.75-1.85c14.74-1.8,29.78-0.35,44.72-2.14c12.45-1.49,25.15-1.12,37.73-1.81
		c25.48-1.4,51-2.13,76.46-4.28c12.53-1.06,25.15-0.94,37.75-1.74c23.14-1.47,46.3-2.8,69.46-4.11c23.49-1.33,46.98-2.65,70.47-4.02
		c21.17-1.24,42.31-2.81,63.47-3.98c21.51-1.19,42.98-2.74,64.47-4c21.17-1.24,42.31-2.71,63.47-4.02c20.17-1.25,40.31-2.85,60.47-4
		c19.85-1.13,39.65-2.75,59.47-4c19.5-1.23,38.98-2.78,58.47-4c19.17-1.19,38.31-2.82,57.47-4.01c18.85-1.17,37.65-2.89,56.47-3.99
		c19.18-1.12,38.31-2.74,57.47-3.98c19.5-1.26,38.98-2.72,58.47-4.01c18.5-1.22,36.98-2.86,55.47-3.99
		c19.51-1.2,38.98-2.65,58.47-4.03c19.15-1.36,38.31-2.76,57.47-3.96c19.5-1.22,38.98-2.8,58.47-3.99
		c20.5-1.25,40.98-2.74,61.47-4.01c20.17-1.25,40.31-2.84,60.47-3.97c22.17-1.24,44.31-2.82,66.47-4.01
		c22.5-1.21,44.98-2.82,67.47-3.99c24.83-1.29,49.67-2.07,74.46-4.14c12.53-1.04,25.13-0.29,37.76-1.81
		c14.09-1.7,28.43-0.37,42.73-2.02c15.76-1.82,31.76-0.17,47.73-1.97c17.42-1.96,35.09-0.2,52.73-2.01
		c20.43-2.09,41.09-0.43,61.72-1.91c32.46-2.32,65.18,1.39,97.69-2.42c524.17,0,1048.33,0.01,1572.5,0.01
		c-0.51,1.7-0.86,3.87,0.25,5.19c5.14,6.09,33.82-14.82,56.87-22.03c21.3-6.66,53.01-6.37,99.86,21.71
		c-5.79,88.28-11.58,176.56-17.37,264.84c-90.67,34.63-156.92,30.71-190.99,25.54c-36.05-5.46-84.28-19.34-97.43-23.59
		c-28.45-9.18-56.68-18.99-84.72-29.4c-43.28-16.06-85.88-33.77-128.77-50.78c-39.5-15.67-78.92-31.53-118.97-45.73
		c-42.86-15.19-86.2-28.76-131-37.13c-19.54-3.65-39.22-6.23-59.11-6.69c-21.59-0.49-43.02,1.47-64.49,3.66
		c-13.52,1.38-26.93,3.07-40.25,5.61c-31.01,5.9-61.08,14.98-90.41,26.66c-26.3,10.47-51.36,23.5-76.22,36.89
		c-17.53,9.45-34.67,19.63-51.85,29.71c-17.77,10.42-35.88,20.24-53.87,30.26c-23.89,13.3-48.64,24.64-73.87,34.89
		c-21.83,8.87-44.26,16.23-67.04,22.43c-22.05,6-44.4,10.53-67.02,13.82c-11.46,1.67-22.92,3.12-34.42,4.46
		c-11.5,1.34-23.11,3.21-34.52,3.13c-40.23-0.3-80.48,2.1-120.73-1.33c-12.16-1.04-24.56-1.54-36.66-2.84
		c-19.34-2.08-38.73-4.34-58.04-7.08c-26.85-3.81-53.65-7.97-80.26-12.94c-41.63-7.78-82.95-17.11-124.13-27.08
		c-31.54-7.64-62.73-16.67-94.45-23.63c-26.18-5.74-52.2-12.21-78.61-16.93c-19.85-3.54-39.55-7.74-59.63-10.09
		c-15.08-1.77-30.05-4.47-45.18-6.15c-7.25-0.81-14.61-0.59-21.74-1.93c-13.41-2.52-27.09-3.27-40.51-3.27
		c-34.9-0.01-69.82-2.01-104.74,1.31c-10.5,1-21.21,1.59-31.65,2.83c-16.36,1.95-32.74,4.25-49.01,7.23
		c-29.29,5.36-58.46,11.19-87.5,17.73c-21.31,4.8-42.54,10.07-63.97,14.29c-32.44,6.38-64.72,13.54-97.37,19.03
		c-22.48,3.78-44.96,7.82-67.52,10.78c-19.31,2.53-38.71,4.81-58.11,6.86c-17.74,1.88-35.55,3.2-53.29,5.24
		c-19.37,2.22-38.98,2.4-58.46,4.07c-15.17,1.3-30.5,1.37-45.73,1.86c-58.53,1.86-117.09-0.2-175.69,1.99
		c-74.83,2.79-149.75-1.01-224.67,2.04c-63.49,2.58-127.1-0.91-190.68,2.08c-52.16,2.45-104.43-0.82-156.7,1.88
		c-54.14,2.79-108.43-0.81-162.69,2.05c-51.14,2.69-102.42-0.62-153.69,1.93c-53.47,2.66-107.1-0.63-160.69,2.1
		c-49.49,2.52-99.09-0.56-148.7,1.88c-53.81,2.65-107.77-0.81-161.69,2.11c-30.23,1.64-60.63,0.26-90.95,0.33
		c-10.59,0.02-21.29-1.1-31.48,3.45c-2.26,1.01-5.26,0.28-7.91,0.55c-9.7,0.98-19.02-2.41-28.74-2.14
		c-49.22,1.35-98.44-0.77-147.71,1.72c-55.14,2.79-110.42-0.66-165.69,2.03c-56.81,2.76-113.75-0.46-170.69,1.95
		c-67.81,2.87-135.75-0.77-203.67,2c-49.9,2.04-99.95,0.27-149.93,0.48c-19.94,0.08-39.7-1.35-59.49-3.8
		c-17.77-2.2-35.27-5.65-52.67-9.59c-27.21-6.16-53.71-14.7-79.9-24.4c-36.16-13.4-71.58-28.5-106.46-44.83
		c-30.71-14.38-60.96-29.72-91.46-44.56c-3.21-1.56-6.14-4.04-10-3.96c-3.92,10.59-7.7,14.17-17.43,14.98
		c-6.62,0.55-13.35,0.54-19.97-0.04c-3.86-0.33-7.67-2.04-11.34-3.54c-3.48-1.42-6.49-3.7-6.62-7.96c-0.15-4.79,3.22-7.04,6.98-8.76
		c5.18-2.37,10.53-3.82,16.38-3.63c3.61,0.11,7.58,1.11,11.08-1c-1.06-2.4-2.7-2.93-4.19-3.61c-16.29-7.52-32.72-14.77-48.86-22.6
		c-17.95-8.71-36.27-16.63-54.78-23.94c-37.35-14.76-75.28-27.91-114.83-35.74c-23.72-4.69-47.59-8.36-71.8-8.84
		c-12.58-0.25-25.14,0.48-37.76,1.5c-22.67,1.84-44.59,6.58-66.03,13.45c-30,9.62-59.6,20.46-89.5,30.4
		c-44.08,14.65-88.8,27.12-133.62,39.3c-45.73,12.43-91.9,22.95-138.2,32.82c-33.93,7.24-68.18,13.05-102.42,18.82
		c-28.02,4.72-56.06,9.51-84.22,13.07c-24.57,3.11-49.13,6.68-73.86,8.86c-7.54,0.66-15.18,1.04-22.73,1.99
		c-10.48,1.33-20.98,2.92-31.52,3.41c-10.27,0.49-20.45,1.9-30.7,2.61c-16.49,1.14-32.9,3.6-49.5,3.54c-2-0.01-4.11-0.35-5.98,0.16
		c-14.94,4.08-30.38,0.81-45.56,3.45c-12.94,2.26-26.42,0.97-39.7,1.93c-23.81,1.72-47.83,1.84-71.7,2
		c-59.88,0.41-119.81,2.43-179.68-1.46c-19.54-1.27-39.12-0.38-58.75-1.55c-29.77-1.78-59.63-2.47-89.45-4.26
		c-21.16-1.27-42.32-2.52-63.47-3.94c-19.82-1.34-39.65-2.9-59.47-3.96c-13.24-0.71-26.38-3.45-39.72-2.4
		c-1.31,0.1-2.71,0.03-3.97-0.32c-11.31-3.12-23.06-2-34.55-3.19c-11.13-1.15-22.4-2.36-33.66-2.99c-7.52-0.42-15.44,0-22.69-1.87
		c-10.13-2.61-20.46-1.86-30.61-3.02c-10.75-1.23-21.69-2.58-32.66-2.93c-7.84-0.25-15.94-0.73-23.69-2.16
		c-10.81-2-21.74-1.98-32.57-3.17c-9.5-1.04-19.15-1.91-28.64-2.95c-7.23-0.79-14.54-0.77-21.75-1.82
		c-10.13-1.47-20.32-3-30.52-3.34c-9.97-0.33-19.92-1.47-29.67-2.76c-16.73-2.21-33.56-3.3-50.31-5.09
		c-21.03-2.24-42.12-4.23-63.2-6.05c-16.15-1.39-32.31-2.71-48.47-4.01c-16.82-1.36-33.65-2.86-50.47-3.99
		c-20.15-1.36-40.33-3.34-60.47-3.85c-21.92-0.55-43.74-3.59-65.72-2.49c-6.26,0.31-12.62,0.7-18.78-1.48
		c-1.32-0.47-2.49,0.49-2.24,2.72c8.44,1.2,16.39,4.31,23.47,9.28c8.83,6.19,9.44,14.07,2.17,21.67c-3.77,3.94-8.04,6.62-13.3,8.39
		c-6.01,2.03-12.08,3.7-18.28,4.61c-18.13,2.65-35.85,0.69-52.55-6.98c-6.44-2.96-11.97-8.15-12.48-15.73
		c-0.55-8.24,6.41-11.79,12.34-15.46c1.93-1.2,4.3-1.78,6.53-2.4c6.9-1.94,13.84-3.76,20.76-5.62c-4.96-0.91-9.89-0.63-14.77-0.98
		c-8.54-0.6-16.13,1.47-23.92,5.22c-17.94,8.65-36.18,16.76-54.63,24.28c-40.9,16.68-82.35,31.86-124.77,44.32
		c-25.76,7.57-51.4,15.51-77.81,20.66c-3.44,0.67-7.2,1.02-10.41,3.09c-9.8,6.33-20.71,8.81-32.24,8.34
		c-9.4-0.38-18.44,1.62-27.58,3.17c-13.69,2.31-27.31,5.31-41.1,6.66c-13.83,1.36-27.69,2.89-41.38,4.79
		c-19.06,2.64-38.23,3.23-57.31,5.08c-19.44,1.89-39.19-0.75-58.71,2.26c-6.96,1.07-13.85-1.47-20.74-1.71
		c-19.57-0.68-39.15-0.15-58.74-1.92c-10.2-0.92-20.46-1.92-30.67-2.8c-6.66-0.57-11.56-1.32-12.69-1.45
		C373.31,1116.85,287.23,1107.07,47.62,1080.1z M6448.74,926.57c-6.72,0-13.09-0.5-19.34,0.15c-5.87,0.61-11.72,2.09-17.4,3.79
		c-9.59,2.87-18.64,6.91-25.68,14.44c-6.42,6.87-6.43,16.09-0.06,22.96c3.44,3.7,7.31,6.64,11.95,8.76
		c31.33,14.27,62.99,12.84,94.8,2.04c5.36-1.82,10.04-5.21,14.29-8.91c8.43-7.35,8.84-17.12,1.37-25.42
		c-2.69-2.98-5.77-5.38-9.4-7.24C6483.25,928.91,6466.3,925.31,6448.74,926.57z M816.62,918.46c-3.66,0-7.32,0.09-10.98-0.02
		c-15.71-0.44-30.14,3.99-43.56,11.78c-10.98,6.38-18.16,19.84-4.46,31.62c7.3,6.28,15.67,9.96,24.66,12.37
		c20.15,5.39,40.57,5.72,61,1.84c9.14-1.74,18.21-4.4,25.96-9.68c17.44-11.87,17.75-23.43,3.45-34.78
		c-5.77-4.58-13.18-7.29-20.64-9.53C840.35,918.55,828.58,918.14,816.62,918.46z M7684.72,946.66c6.31-0.82,12.56-1.69,18.76-2.48
		c14.84-1.89,29.44-5.07,40.35-16.98c7.41-8.1,7.69-15.23-0.04-23.35c-6.64-6.96-15.31-10.42-24.17-13.32
		c-13.8-4.51-28.11-4.12-42.4-4.11c-15.65,0.01-30.27,3.78-43.87,11.23c-14.7,8.05-19.31,23.18-1.8,35.02
		C7647.83,943.67,7666.66,943.34,7684.72,946.66z M1222.12,870.61c-9.33-0.48-18.26-0.28-27.01,1.95
		c-10.4,2.66-20.19,6.47-27.65,14.72c-4.88,5.39-5.68,10.88-2.15,17.17c2.17,3.86,5.42,6.51,9.29,8.71c13.3,7.56,28,9.58,42.82,11.3
		c9.38,1.09,18.59-1,27.58-2.61c11.61-2.08,23.3-5.41,31.37-15.47c5.18-6.46,5.32-13.4,0.05-19.71c-4.19-5.02-9.71-7.91-15.72-10.08
		C1248.1,872.06,1235.21,869.49,1222.12,870.61z M4207.93,892.49c-5.61,0-8.94,0.04-12.27-0.01c-12.96-0.17-24.79,4.1-36.16,9.63
		c-7.26,3.53-11.91,8.9-11.22,18.07c0.6,7.95,5.67,11.8,11.57,14.86c27.86,14.41,56.54,14.33,85.51,3.77
		c5.54-2.02,11.12-4.52,15.05-9.42c4.09-5.08,5.86-12.63,2.7-16.61c-3.85-4.85-7.85-9.7-13.91-12.45
		C4235.29,894.04,4220.82,891.46,4207.93,892.49z M4865.21,1000.58c6.34,0.64,15.34-1.6,24.23-4.25
		c6.47-1.93,12.18-5.28,16.46-10.66c3.33-4.19,3.25-8.37-0.1-12.61c-4.06-5.12-9.52-8.26-15.55-10.35
		c-11.75-4.08-24.03-5.63-36.23-3.96c-10.36,1.42-20.93,3.3-29.87,9.72c-8.5,6.1-8.63,16.19,0.21,21.91
		C4835.79,997.78,4848.62,1000.51,4865.21,1000.58z M579.33,886.48c5.56,0,9.57,0.25,13.54-0.05c9.07-0.69,17.74-2.85,24.68-9.16
		c5.64-5.13,5.57-12.14,0.15-17.46c-3.9-3.83-8.8-5.74-13.94-7.33c-10.42-3.22-21.1-1.58-31.67-1.98
		c-8.25-0.31-15.78,2.67-22.79,6.28c-10.92,5.62-10.8,17.28-0.21,23.46c1.7,0.99,3.67,1.51,5.5,2.29
		C563.03,886.1,571.81,887.28,579.33,886.48z M3966.62,1036.38c8.44,0.03,23.03-2.86,27.79-5c12.25-5.49,13.16-13.44,2.42-21.43
		c-2.43-1.81-5.21-2.73-8.12-3.61c-10.13-3.08-20.52-2.37-30.69-1.54c-6.7,0.55-13.72,2.07-18.87,7.83
		c-5.33,5.96-5.73,9.77-0.03,15.18c1.64,1.56,3.73,2.91,5.85,3.68C3952.78,1034.29,3960.85,1036.05,3966.62,1036.38z
		 M5864.47,1004.42c-4.3,0-7.32-0.27-10.28,0.05c-9.02,0.99-17.74,2.64-23.83,10.53c-2.91,3.77-3.13,7.1,0,10.71
		c2.69,3.11,5.95,5.39,9.88,6.47c5.1,1.41,10.21,2.95,15.42,3.7c12.17,1.77,23.96-0.52,34.78-5.95c8.66-4.34,8.96-11.57,1.9-18.2
		c-2.75-2.57-5.85-4.22-9.45-5.27C5876.41,1004.57,5869.85,1004.03,5864.47,1004.42z M6562.93,1008.41
		c13.39,0,21.78-1.79,28.67-5.94c7.69-4.64,8.09-10.16,2.29-17.08c-9.95-11.85-50.28-11.87-60.24,0.03
		c-5.79,6.92-5.44,12.55,2.38,17.03C6544.61,1007.38,6553.98,1009.02,6562.93,1008.41z M8276.53,830.56
		c-9.82-0.65-19.54,1.19-28.24,6.62c-9.24,5.77-9.14,12.43-0.27,18.62c5.66,3.95,12.27,5.14,18.74,6.07
		c12.68,1.82,25.28,0.86,36.68-5.55c10.42-5.86,10.42-13.45,0.22-19.53C8295.48,831.9,8286.43,830.08,8276.53,830.56z
		 M8142.85,974.54c-7.15-1.02-14.45,0.81-21.63,3.63c-5.84,2.29-11.04,5.81-11.52,12.19c-0.45,6.04,5.02,9.02,9.91,11.11
		c17.38,7.43,34.87,6.83,51.74-1.25c9.83-4.71,9.52-14.17-0.16-19.78C8162.65,975.48,8153.29,973.81,8142.85,974.54z
		 M7106.77,948.39c7.59,0.86,15.24-1.16,22.8-3.67c6-1.99,11.06-5.75,11.69-12.05c0.61-6.08-4.91-9.06-9.77-11.19
		c-17.37-7.58-34.63-6.37-51.83,0.96c-8.24,3.51-7.88,16.46-0.16,20.07C7088.08,946.53,7096.78,948.95,7106.77,948.39z
		 M446.11,982.33c11.77,0.36,19.75-1.6,27.06-5.85c5.13-2.99,5.65-6.86,1.83-11.42c-1.93-2.31-4.18-4.35-7.1-5.31
		c-8.57-2.83-17.23-4.74-26.29-2.36c-5.67,1.49-11.83,1.38-16.36,6.22c-4.6,4.91-4.83,6.93,0.02,11.56
		C432.06,981.65,440.78,981.9,446.11,982.33z M3418.04,876.41c8.76,0.63,16.83-0.75,23.67-6.13c5.85-4.6,5.76-9.64-0.61-13.39
		c-8.73-5.14-18.53-7.58-28.5-5.79c-5.32,0.95-11.42,0.59-15.94,4.67c-2.92,2.63-6.54,4.96-5.82,9.7c0.7,4.54,4.24,6.76,8.05,7.95
		C3405.17,875.38,3411.55,877.34,3418.04,876.41z M993.3,870.51c-2.42,0-4.08-0.02-5.75,0c-5.05,0.07-9.83,1.65-14.46,3.31
		c-4.44,1.59-9.18,4.5-9.24,9.46c-0.07,5.52,5.03,8.41,9.76,10.11c4.32,1.55,8.96,2.51,13.54,2.92c8.71,0.78,17.42-0.47,25.09-4.55
		c8.95-4.77,8.89-11.12,0.35-16.45C1006.54,871.53,999.77,869.85,993.3,870.51z M1418.26,936.33c7.52,0.84,14.68-0.44,21.23-4.1
		c7.18-4.01,7.51-9.71,1.32-15.17c-1.83-1.62-3.93-2.34-6.17-3.05c-12.42-3.96-24.65-3.5-36.79,1.19c-4.02,1.55-7.34,4.12-7.8,8.32
		c-0.5,4.58,3.65,6.86,7.02,8.76C1403.61,935.94,1410.79,937.18,1418.26,936.33z M2837.31,942.44c6.64,0.19,13.38,0.65,19.54-2.33
		c3.91-1.89,7.62-4.54,7.79-9.48c0.18-5.25-3.84-7.54-7.92-9.07c-12.55-4.73-25.22-4.64-37.82-0.03c-1.53,0.56-3.02,1.43-4.31,2.44
		c-4.53,3.57-4.95,7.61-1.26,11.93c1.96,2.28,4.36,3.77,7.28,4.92C2826.12,942.97,2831.73,942.25,2837.31,942.44z"/>
	<path fill="#7F4A0A" d="M47.62,1080.1c183.61,20.9,318.32,36.13,350.84,39.72c12.77,1.41,20.35,1.86,30.67,2.8
		c19.59,1.77,39.17,1.24,58.74,1.92c6.89,0.24,13.77,2.78,20.74,1.71c19.52-3.01,39.27-0.37,58.71-2.26
		c19.08-1.85,38.25-2.44,57.31-5.08c13.69-1.9,27.56-3.43,41.38-4.79c13.78-1.35,27.41-4.35,41.1-6.66
		c9.14-1.54,18.18-3.55,27.58-3.17c11.53,0.47,22.44-2.01,32.24-8.34c3.21-2.07,6.97-2.42,10.41-3.09
		c26.41-5.15,52.06-13.09,77.81-20.66c42.41-12.46,83.87-27.64,124.77-44.32c18.45-7.52,36.69-15.63,54.63-24.28
		c7.79-3.75,15.38-5.83,23.92-5.22c4.88,0.35,9.81,0.06,14.77,0.98c-6.92,1.87-13.86,3.69-20.76,5.62c-2.23,0.63-4.59,1.21-6.53,2.4
		c-5.94,3.67-12.89,7.22-12.34,15.46c0.5,7.58,6.03,12.77,12.48,15.73c16.7,7.67,34.42,9.63,52.55,6.98
		c6.2-0.91,12.27-2.58,18.28-4.61c5.25-1.77,9.53-4.45,13.3-8.39c7.27-7.6,6.65-15.48-2.17-21.67c-7.08-4.97-15.03-8.08-23.47-9.28
		c-0.25-2.24,0.92-3.19,2.24-2.72c6.15,2.18,12.52,1.8,18.78,1.48c21.98-1.1,43.8,1.94,65.72,2.49c20.14,0.51,40.31,2.48,60.47,3.85
		c16.83,1.14,33.65,2.63,50.47,3.99c16.16,1.31,32.32,2.62,48.47,4.01c21.08,1.82,42.17,3.81,63.2,6.05
		c16.74,1.78,33.57,2.87,50.31,5.09c9.74,1.29,19.7,2.43,29.67,2.76c10.2,0.34,20.39,1.87,30.52,3.34
		c7.22,1.04,14.52,1.02,21.75,1.82c9.49,1.04,19.14,1.91,28.64,2.95c10.83,1.19,21.76,1.17,32.57,3.17
		c7.74,1.43,15.85,1.91,23.69,2.16c10.97,0.35,21.91,1.7,32.66,2.93c10.15,1.16,20.48,0.41,30.61,3.02
		c7.26,1.87,15.18,1.45,22.69,1.87c11.26,0.63,22.53,1.84,33.66,2.99c11.5,1.19,23.25,0.07,34.55,3.19
		c1.26,0.35,2.66,0.42,3.97,0.32c13.34-1.05,26.48,1.69,39.72,2.4c19.82,1.07,39.65,2.62,59.47,3.96
		c21.16,1.43,42.31,2.68,63.47,3.94c29.82,1.79,59.68,2.48,89.45,4.26c19.63,1.17,39.21,0.28,58.75,1.55
		c59.87,3.9,119.8,1.87,179.68,1.46c23.86-0.16,47.88-0.28,71.7-2c13.28-0.96,26.76,0.33,39.7-1.93
		c15.19-2.65,30.62,0.63,45.56-3.45c1.87-0.51,3.98-0.16,5.98-0.16c16.6,0.06,33.01-2.4,49.5-3.54c10.24-0.71,20.43-2.12,30.7-2.61
		c10.54-0.5,21.03-2.08,31.52-3.41c7.55-0.96,15.2-1.33,22.73-1.99c24.73-2.18,49.28-5.75,73.86-8.86
		c28.15-3.56,56.19-8.35,84.22-13.07c34.24-5.77,68.49-11.58,102.42-18.82c46.3-9.88,92.47-20.39,138.2-32.82
		c44.83-12.19,89.54-24.65,133.62-39.3c29.9-9.94,59.5-20.78,89.5-30.4c21.44-6.88,43.36-11.62,66.03-13.45
		c12.62-1.02,25.18-1.75,37.76-1.5c24.21,0.48,48.08,4.14,71.8,8.84c39.55,7.83,77.48,20.99,114.83,35.74
		c18.51,7.31,36.83,15.23,54.79,23.94c16.14,7.83,32.57,15.08,48.86,22.6c1.49,0.69,3.13,1.22,4.19,3.61c-3.5,2.1-7.47,1.11-11.08,1
		c-5.85-0.18-11.2,1.27-16.38,3.63c-3.76,1.72-7.13,3.97-6.98,8.76c0.13,4.26,3.14,6.53,6.62,7.96c3.67,1.5,7.48,3.2,11.34,3.54
		c6.61,0.57,13.35,0.59,19.97,0.04c9.73-0.81,13.51-4.39,17.43-14.98c3.87-0.08,6.79,2.4,10,3.96
		c30.5,14.83,60.75,30.17,91.46,44.56c34.88,16.34,70.31,31.44,106.47,44.83c26.18,9.7,52.68,18.24,79.9,24.4
		c17.4,3.94,34.9,7.38,52.67,9.59c19.79,2.45,39.55,3.88,59.49,3.8c49.98-0.2,100.03,1.56,149.93-0.48
		c67.92-2.77,135.86,0.87,203.67-2c56.93-2.41,113.87,0.81,170.69-1.95c55.26-2.69,110.55,0.77,165.69-2.03
		c49.27-2.49,98.49-0.37,147.71-1.72c9.72-0.27,19.03,3.12,28.74,2.14c2.64-0.27,5.64,0.46,7.91-0.55
		c10.19-4.55,20.89-3.42,31.48-3.45c30.32-0.07,60.72,1.31,90.95-0.33c53.91-2.92,107.88,0.54,161.69-2.11
		c49.61-2.45,99.21,0.64,148.7-1.88c53.59-2.73,107.21,0.56,160.69-2.1c51.27-2.55,102.55,0.76,153.69-1.93
		c54.26-2.85,108.55,0.74,162.69-2.05c52.27-2.69,104.53,0.58,156.7-1.88c63.58-2.99,127.19,0.5,190.68-2.08
		c74.91-3.05,149.84,0.75,224.67-2.04c58.59-2.18,117.16-0.13,175.69-1.99c15.22-0.48,30.55-0.55,45.72-1.86
		c19.48-1.67,39.09-1.84,58.46-4.07c17.74-2.03,35.55-3.36,53.29-5.24c19.4-2.05,38.81-4.33,58.11-6.86
		c22.56-2.96,45.04-7,67.52-10.78c32.64-5.49,64.92-12.65,97.37-19.03c21.43-4.21,42.65-9.49,63.97-14.29
		c29.04-6.54,58.21-12.37,87.5-17.73c16.28-2.98,32.65-5.28,49.01-7.23c10.44-1.25,21.16-1.84,31.65-2.83
		c34.92-3.32,69.84-1.32,104.74-1.31c13.42,0,27.1,0.76,40.51,3.27c7.14,1.34,14.49,1.12,21.74,1.93
		c15.13,1.69,30.09,4.39,45.18,6.15c20.07,2.35,39.78,6.55,59.63,10.09c26.41,4.71,52.43,11.18,78.61,16.93
		c31.72,6.95,62.91,15.99,94.45,23.63c41.17,9.97,82.5,19.31,124.13,27.08c26.62,4.97,53.41,9.13,80.26,12.94
		c19.31,2.74,38.69,5.01,58.04,7.08c12.09,1.3,24.5,1.8,36.66,2.84c40.25,3.44,80.5,1.04,120.73,1.33
		c11.41,0.08,23.02-1.79,34.52-3.13c11.5-1.34,22.97-2.8,34.42-4.46c22.62-3.29,44.97-7.82,67.02-13.82
		c22.77-6.2,45.21-13.56,67.04-22.43c25.23-10.25,49.98-21.58,73.87-34.89c18-10.02,36.1-19.84,53.87-30.26
		c17.18-10.08,34.32-20.26,51.85-29.71c24.86-13.39,49.92-26.42,76.22-36.89c29.33-11.68,59.41-20.76,90.41-26.66
		c13.31-2.53,26.73-4.23,40.25-5.61c21.47-2.19,42.9-4.16,64.49-3.66c19.89,0.45,39.57,3.03,59.11,6.69
		c44.8,8.37,88.15,21.94,131,37.13c40.05,14.2,79.48,30.06,118.97,45.73c12.73,5.05,25.44,10.16,38.15,15.28
		c80.13,32.24,82.7,33.2,90.61,35.51c19.41,5.67,11.39,1.3,90.93,14.42c43.08,7.11,64.62,10.66,82.49,15.2
		c30.43,7.72,38.76,12.36,62.95,15.2c11.67,1.37,32.6,2.71,58.61,0c46.86-4.88,65.26-27.56,78.15-17.37
		c8.79,6.95,7.39,21.72,4.34,49.93c-3.58,33.08-12.97,64.29-19.54,78.15c-35.46,74.82-196.65,64.23-372.67,157.29
		c-99.4,52.55-82.74,74.3-134.59,82.49c-128.96,20.38-195.24-119.93-373.39-138.93c-32.73-3.49-79.73,5.1-173.67,21.71
		c-264.48,46.76-280.03,100.06-377.73,79.6c-125.85-26.35-133.44-121.8-260.5-123.02c-94.05-0.9-173.67,43.42-173.67,43.42
		c-57.62,32.63-60.86,58.99-99.86,65.13c-78.92,12.41-109.27-88.7-195.38-86.83c-70.58,1.53-84.13,70.18-169.33,78.15
		c-51.39,4.81-66.3-18.31-134.59-39.08c-181.53-55.2-371.5,18.33-390.75,26.05c-59.64,23.91-87.27,55.01-138.94,47.76
		c-58.71-8.24-75.02-52.32-123.17-47.18c-45.77,4.89-50.49,46.81-110.93,80.78c-59.52,33.46-120.54,29.68-160.99,27.18
		c-106.36-6.59-127.33-67.02-208.4-69.47c-146.99-4.43-164.05,79.76-308.26,104.2c-192.25,32.58-222.22-106.84-460.22-86.83
		c-103.29,8.68-159.35,40.13-264.84,13.03c-94.4-24.25-79.52-61.68-162.85-75.1c-142.08-22.88-227.23,65.44-362.5,23
		c-20.9-6.56-45.04-16.88-82.49-17.37c-66.84-0.87-84.43,30.77-138.93,34.73c-63.25,4.6-72.12-35.64-164.98-60.78
		c-29.53-8-102.35-24.96-182.37-2.87c-77.82,21.49-74.56,56.1-134.57,65.1c-79.74,11.97-103.04-46.49-208.4-57.89
		c-88.17-9.54-85.76,29.64-181.02,25.65c-116.13-4.86-135.39-66.69-248.81-60.38c-46.08,2.56-95.56,15.69-134.59,26.05
		c-82.5,21.89-107.97,40-143.28,26.05c-44.28-17.5-41.22-60.61-82.49-69.47c-32.59-7-54.5,13.23-99.86,34.73
		c-61.81,29.29-133.42,43.55-186.69,40.52c-108.33-6.15-125.03-82.83-204.32-70.34c-72.57,11.43-79.86,79.01-143.02,76.13
		c-56.66-2.59-67.04-57.73-143.28-68.02c-43.19-5.83-44.07,12.04-99.86,8.68c-79.96-4.81-93.85-39.96-143.28-30.39
		c-54.36,10.52-51.37,55.69-108.54,69.47c-49.85,12.01-91.24,0.27-134.59-13.03c-47.1-14.44-228.69-70.13-382.07-43.42
		c-97.06,16.9-73.98,47.85-186.69,69.47c-154.62,29.66-295.24-4.34-295.24-4.34c-65.16-15.75-84.15-31.42-131.62-25.35
		c-81.26,10.39-94.12,65.05-150.59,60.08c-55.14-4.85-82.63-67-154.85-161.63c-7.97-10.45-25.9-36.87-28.94-75.26
		C20.82,1123.91,40.8,1090.5,47.62,1080.1z M8688,984.34c14.77,1,29.21-1.94,42.92-8.71c3.69-1.82,6.69-4.35,9.36-7.34
		c6.32-7.08,6.32-12.27,0.34-19.4c-4.21-5.02-9.7-8-15.68-10.26c-6.86-2.59-13.98-3.92-21.22-5.05c-20.26-3.17-39.7-0.43-58.29,7.88
		c-7.18,3.21-13.74,8.5-13.82,16.89c-0.08,8.44,6.65,13.38,13.62,17.04C8658.44,982.34,8672.61,985.25,8688,984.34z
		 M8946.74,1040.39c-5.59,0-9.62-0.31-13.58,0.06c-13.37,1.24-26.11,4.66-37.16,12.63c-8.73,6.3-9.07,15.78-1.52,23.73
		c4.51,4.74,9.92,7.7,16.02,9.64c6.32,2.01,12.78,3.33,19.32,4.48c22.45,3.97,43.47,0.03,63.37-10.69
		c5.09-2.74,7.26-7.32,7.95-12.99c1.07-8.87-4.32-13.53-10.94-17.2C8976.21,1042.27,8961.06,1039.41,8946.74,1040.39z
		 M2741.6,1052.55c-9.83-1.48-20.51,0.79-31.05,3.89c-7.04,2.07-13.72,4.96-19.04,10.29c-6.55,6.57-6.56,14.08-0.4,20.97
		c4.34,4.86,9.62,8.12,15.59,10.36c11.26,4.23,23.07,5.39,34.95,6.36c8.42,0.68,16.62-1.19,24.6-2.67
		c10.63-1.97,21.07-5.61,28.84-14.44c4.44-5.05,4.61-9.99,2.32-15.56c-1.99-4.82-5.85-7.81-10.35-10.31
		C2773.25,1053.79,2758.39,1051.58,2741.6,1052.55z M7171.52,1084.23c9.43,0.4,17.67,0.18,25.82-1.87
		c9.05-2.28,17.89-4.93,25.46-10.7c8.25-6.29,8.97-15.59,2.09-23.08c-4.41-4.81-9.74-7.95-15.77-10.08
		c-6.57-2.32-13.31-3.67-20.22-4.81c-22.48-3.7-43.58-0.11-63.34,10.85c-9.88,5.48-10.81,18.15-2.7,26.1
		c3.69,3.61,8.17,5.74,12.84,7.42C7147.62,1082.39,7159.71,1085.94,7171.52,1084.23z M8368.69,1088.61
		c9.85-2.03,20.44-2.86,30.41-6.53c2.12-0.78,4-2.3,5.91-3.6c10-6.8,10.59-15.19,0.86-22.25c-18.83-13.66-56.6-13.66-75.41,0.16
		c-9.38,6.89-9.19,14.5-0.12,21.88c1.52,1.24,3.29,2.25,5.08,3.06C8345.82,1086.05,8357.15,1086.47,8368.69,1088.61z
		 M3219.07,972.28c-7.89,0.95-17.5,1.83-26.22,6.23c-4.13,2.09-8.29,5.02-7.93,10.47c0.32,4.98,3.26,8.35,7.91,10.57
		c17.08,8.14,34.36,8.71,51.89,1.74c2.1-0.84,4.07-2.26,5.8-3.76c8.42-7.27,7.82-13.18-2.07-18.18
		C3239.78,974.97,3230.54,972.49,3219.07,972.28z M6961.07,1088.42c8.87-0.7,18.03-0.58,25.04-7.54c4.52-4.49,4.42-6.25,0.25-10.86
		c-3.86-4.26-9.05-5.14-14.21-6.51c-9.73-2.58-19.15-1.12-28.33,2c-4.73,1.61-9.9,4.64-9.59,10.18c0.3,5.33,5.41,8.37,10.24,9.78
		C6949.8,1087.04,6955.2,1089.19,6961.07,1088.42z M3107.84,1108.72c5.8-1.17,11.32-2.1,16.73-3.46c3.28-0.83,5.82-3.17,7.92-5.78
		c3.44-4.28,3.1-8.16-1.47-10.85c-14.04-8.26-31.67-8.62-46.35-0.13c-4.61,2.67-5.16,6.6-1.88,10.78c2.06,2.63,4.55,5.05,7.85,5.87
		C3096.39,1106.57,3102.23,1107.57,3107.84,1108.72z M1488.48,1070.53c-4.85-0.86-10.05,0.06-15.04,2.04c-3.63,1.44-8,2.4-8.08,7.53
		c-0.08,5.05,3.45,8.29,7.44,9.59c10.9,3.55,22.03,4.44,32.88-0.64c3.36-1.57,7.09-3.38,7.11-7.5c0.02-4.41-3.69-6.96-7.26-8.67
		C1500.38,1070.41,1494.74,1069.82,1488.48,1070.53z"/>
	<path fill="#4B6317" d="M8506.7,683.43c-20.55-9.02-35.71-23.41-35.71-23.41c-8.48-8.15-13.22-14.88-13.22-14.88
		c-8.59-12.2-10.44-20.71-14.42-29.51c-15.46-34.23-58.69-63.39-97.31-66.33c-45.46-3.45-55.63,31.63-125.3,38.94
		c-16.3,1.71-10.57-0.75-55.73-1.21c-78.3-0.79-94.09,6.63-167.05,5.33c-25.09-0.45-26.69-1.39-61.68-1.97
		c-49.32-0.83-73.98-1.24-85.75,0.62c-11.55,1.82-22.53,4.39-38.1,1.8c-17.18-2.85-24.55-9.42-34.82-13.45
		c-19.74-7.74-31.29,1.29-91.48,19.63c-59.15,18.02-66.25,14.86-90.2,29.39c-23.48,14.25-21.92,22.47-42.31,29.63
		c-26.98,9.47-55.21,11.12-83.44,6.26c-43.82-7.55-42.26-20.8-102.3-43.43c-67.16-25.31-89-16.31-134.16-46.74
		c-13.53-9.12-18.25-14.43-30.94-18.13c-10.38-3.03-25.97-4.94-96.62,17.01c-25.98,8.07-32.85,11.6-48.79,13.07
		c-16.13,1.48-32.46,1.5-48.75-0.51c-10.62-1.31-20.49-5.33-30.97-6.86c-0.19-0.6-0.38-0.9-0.55-0.88
		c-0.15,0.01-0.24,0.32-0.27,0.42c-0.38,1.29,1.67,17.79,1.83,19.29c0.83,7.87-6.55,14.79-13.87,21.05
		c-18.96,16.23-41.92,21.2-65.76,21.49c-10.28,0.13-20.93-2.28-31.03-6.08c-13.73-5.17-23.21-12.97-32.21-20.31
		c-18.85-15.39-24.29-26.15-36.31-25.87c-3.38,0.08-6.23,1.49-12.86,0.73c-5.9-0.67-11.76-1.85-17.56-3.16
		c-31.74-7.16-48.52-20.21-48.52-20.21c-21.37-12.78-63.15-34.4-86.2-40.81c-35.68-9.92-49.51,10.21-124.82,34.73
		c-119.81,39.01-151.28,9.7-219.61,50.23c-10.47,6.21-32.82,22.38-65.72,25.07c-22.15,1.81-44.34,0.28-65.93-5.97
		c-17.02-4.93-38.54-12.24-55.36-31.5c-21.36-24.45-17.33-48.69-35.25-54.86c-8.03-2.76-13.5,0.5-31.74,7.25
		c-63.36,23.45-84.98,16.59-98.85,38.12c-7.38,11.45-3.52,16.96-13.64,29.06c-8.87,10.6-21.26,17.87-36.62,22.08
		c-13.04,3.58-31.36,6.89-64.17,1.56c-59.73-9.69-86.81-33.84-110.19-18.93c-5.66,3.61-5.62,6-14.92,12.02
		c-13.34,8.63-28.46,13.48-44.66,15.13c-25.97,2.66-44.14-2.75-69.79-8.11c-79.06-16.52-134.28-10.43-149.5,5.38
		c-1.13,1.18-5.04,5.52-11.46,9.95c-11.58,7.99-22.86,10.43-28.38,11.55c-42.27,8.62-51.03,2.41-66.71,11.37
		c-17.09,9.76-9.67,20.57-29.71,33.74c-19.04,12.52-41.06,17.12-63.38,18.05c-18.84,0.79-37.79,1.39-56.74-1.35
		c-15.72-2.27-31.39-4.53-46.92-7.92c-26.71-5.82-52.55-14.47-77.45-25.45c-20.62-9.09-41.03-19.22-55.19-38
		c-2.06-2.74-3.9-2.89-6.61-0.78c-4.71,3.66-9.49,7.32-14.58,10.4c-15.86,9.58-32.74,14.41-51.37,9.99
		c-22.77-5.4-38.77-19.49-50.2-39.3c-7.19-12.46-10.94-26.18-13.59-40.7c-3.02,0.79-5.56,1.4-8.08,2.12
		c-20.48,5.87-41.35,9.07-62.68,9.4c-34.24,0.53-32.76-7.64-48.49-3.88c-33.42,8.01-29.47,44.96-64.06,62.4
		c-38.06,19.18-95.32-13.38-101.55-17.14c-49.44-29.84-42.6-66.12-74.96-72.21c-39.08-7.36-80.88,42.89-125.32,41.11
		c-11.85-0.47-23.13-2.41-33.93-6.71c-10.33-4.11-15.84-11.28-17.93-13.38c-19.19-19.15-65.21-27.51-99.94-23.62
		c-28.39,3.18-27.56,12.13-104.01,40.29c-8.63,3.18-28.4,10.47-54.15,10.84c-23.31,0.33-46.31-3.85-68.07-12.3
		c-18.22-7.08-21.04-13.22-41.84-26.47c-33.09-21.07-62.17-29.55-87.54-36.96c-21.74-6.34-32.85-9.47-44.93-7.2
		c-17.31,3.26-33.67,14.35-47.06,23.42c-10.53,7.14-16.13,13.31-28.56,16.82c-7.92,2.24-16.13,4.45-24.28,4.74
		c-28.86,1.02-57.72,0.99-86.03-6.22c-18.69-4.76-24.9-12.35-43.52-13.62c-4.07-0.28-12.76-0.59-27.92,2.21
		c-30.41,5.63-35.81,17.36-58.58,20.3c-23.97,3.1-47.72,1.78-71.38-1.04c-17.34-2.07-34.5-5.98-51.55-9.88
		c-4.83-1.1-7.95-0.21-11.84,2.16c-13.95,8.51-29.66,12.22-45.6,11.97c-16.81-0.26-22.17-5.77-47.08-14.02
		c-27.74-9.19-50.74-10.32-62.43-10.9c-9.97-0.49-74.04-3.65-98.88,24.82c-1.89,2.17-7.06,8.54-12.55,16.02
		c-10.95,14.93-14.49,22.47-18.3,27.86c-18.41,26.02-61.69,27.77-81.05,28.55c-10.22,0.41-24.91,0.03-42.43-3.86
		c-25.97-18.05-64.06-41.44-113.44-61.56c-24.62-10.03-44.13-17.98-71.62-23.87c-65.88-14.13-125.1-5.22-208.82,7.37
		c0,0-19.43,2.92-47.99,2.13c-5.77-0.16-11.45-0.32-18.7-2.06c-3.44-0.83-4.81-1.43-8.07-1.91c0,0-8.04-1.2-15.97,0.61
		c-14.01,3.19-16.72,32.09-31.7,46.43c-8.63,8.26-24.74,14.96-57.53,8.94c-22.45-19.6-56.69-42.59-101.96-50.2
		c-6.15-1.03-12.13-1.72-17.92-2.12c-20.65-6.12-36.6-14.18-47.57-20.68l0,0c-28.14-14.07-31.21-31.9-45.98-39.58
		c-10.08-5.24-26.52-0.47-59.4,9.07c-31.46,9.13-27.16,12.18-42.8,14.95c-34.82,6.18-48.66-10.23-87.25-6.72
		c-16.6,1.51-29.61,5.96-37.07,8.94c-6.07,6.21-11.94,10.83-16.71,14.15c-2.5,1.74-8.36,5.68-16.47,9.57
		c-6.56,3.15-11.96,5.02-17.04,6.77c0,0-6.51,2.25-11.68,3.66c-15.13,4.14-32.14-2.77-44.23-3.7
		c-20.67-1.58-22.99,14.64-62.78,33.68c-11.58,5.54-31.05,14.67-57.31,17.75c-10.28,1.21-34.94,3.83-64.02-5.86
		c-10.54-3.51-60.9-20.31-65.26-51.77c-2.19-15.84,8.21-28.63,1.21-35.24c-3.74-3.53-10.46-2.58-23.74-0.53
		c-17.42,2.69-17.58,5.58-33.66,8.08c-11.63,1.81-23.16,2.34-34.62,0.91c-4.53-0.57-7.56-1.18-9.22-1.49
		c-19.34-3.57-43.32,2.13-54.03,6.5c-42.58,17.35-36.89,79.19-76.18,87.68c-3.97,0.86-9.31,0.57-19.99,0
		c-28.05-1.5-41.53-8.45-62.78-13.56c-24.7-5.93-47.44-11.4-72.29-3.87c-23.19,7.02-26.96,18.91-54.13,23.05
		c-14.53,2.21-27.22,0.89-35.2,0.08c-14.63-1.48-29.06-4.86-43.1-10.11c-7.74-2.89-14.6-5.72-20.97-8.57
		c-14.81-6.63-25.82-12.69-31.32-15.77c-46.8-26.19-66.6-43.81-77.23-36.73c-3.65,2.43-3.09,5.72-10.93,12.54
		c-4.48,3.9-9.56,7.13-15.26,9.72c-6.76,3.07-13.82,5.18-20.92,6.07c-25.66,3.19-31.8-8.32-49.06-3.61
		c-7.8,2.13-6.06,4.42-28.11,19.42c-6.78,4.61-19.67,14.32-31.26,18.98c-17.58,7.08-36.64,9.36-55.47,10.08
		c-31.85,1.22-63.57-0.32-95.21-5.4c-13.22-2.12-55.66-19.94-73.79-15.2c-5.23,1.37-9.47,4.15-9.47,4.15
		c-9.09,5.96-11.53,15.91-13.77,18.18c-12.52,12.69-27.6,21.83-43.08,30.16c-9.71,5.23-36.25,17.72-91.21,34.35
		c-16.22,4.91-24.33,7.36-30.28,8.68c-75.98,16.83-119.92-39.98-162-24.43c-52.89,19.55-51.74,134.4-63.68,133.15
		c-11.41-1.2-4.8-112.78-17.73-114.45c-7.63-0.99-15.91,37.16-34.37,82.61c-21.15,52.06-46.75,91.76-66.57,118.67
		c13.09-89.25,9.1-158.44,2.89-205.51c-4.76-36.11-15.89-97.67-5.79-179.46c3.82-30.95,5.89-46.67,13.61-58.64
		c50.93-79.01,274.21-14.96,302.75-6.53c1.89-0.02,12.1-0.12,13.99-0.12c465.48-0.01,930.96,0,1396.44-0.01
		c4.33,0,8.66-0.03,12.99-0.05c54.85,0.05,109.7,0.13,164.55,0.14c33.91,0.01,67.81-0.09,101.72-0.14
		c85.37-0.56,170.75,1.68,256.1-1.7c2.61,1.75,5.53,1.94,8.56,1.93c41.75-0.12,83.5-0.19,125.24-0.28
		c45.87,0.04,91.74-0.38,137.6,0.24c40.19,0.55,80.3-2.17,120.48-1.9c3.55,2.5,7.62,1.9,11.58,1.9c33.22,0,66.44,0,99.66-0.03
		c44.84-0.04,89.69-0.1,134.53-0.15c129.34,0.01,258.68,0.03,388.01,0.04c9.27,0,18.59,0.53,27.7-1.88c2.28,2.8,5.47,1.94,8.36,1.94
		c95.74,0.04,191.49,0.04,287.23,0c2.88,0,6.08,0.85,8.34-1.98c5.69-0.42,10.98,2.03,16.72,2.02c91.67-0.17,183.34-0.16,275.01-0.18
		c3.99,0.06,7.98,0.17,11.98,0.17c164.75,0.01,329.5,0.01,494.24,0c4.66,0,9.32-0.09,13.97-0.14c60.05-0.55,120.12,1.65,180.14-1.7
		c3.55,2.5,7.63,1.88,11.58,1.88c30.56,0,61.12-0.01,91.68-0.04c47.5-0.04,95-0.09,142.5-0.14c97.25-0.98,194.52,2.29,291.75-1.81
		c2.62,3.01,6.17,1.91,9.35,1.91c57.74,0.06,115.48,0.06,173.22,0c3.19,0,6.72,1.08,9.37-1.87c7.01-0.96,13.65,1.9,20.61,1.87
		c30.39-0.14,60.79-0.09,91.18-0.11c60.52,0.05,121.03,0.13,181.55,0.14c37.57,0.01,75.15-0.09,112.72-0.14
		c279.98-0.98,559.96,2.28,839.94-1.7c2.6,1.75,5.52,1.94,8.55,1.93c35.75-0.1,71.49-0.15,107.24-0.22
		c103.19,0,206.38-0.01,309.57-0.01c3,0.06,5.99,0.18,8.99,0.18c446.69,0.01,893.37,0.02,1340.06,0.03
		c158.56,0,317.11,0,475.67-0.02c4.27,0,8.72,0.82,12.61-1.89c33.56-0.07,67.06,2.03,100.64,1.92c123.1-0.38,246.2-0.11,369.3-0.08
		c-0.23,1.05-0.51,2.99,0.28,4.96c9.34,23.27,134.21-34.72,176.18,7.42c16.33,16.4,5.46,33.24,8.68,108.54
		c3.82,89.33,22.86,152.82,17.37,154.13c-5.28,1.26-21.15-57.98-28.22-56.44c-4.94,1.08-0.83,30.77,0,73.81
		c0.94,48.49-2.39,108.09-8.68,108.54c-10.3,0.75-26.75-157.18-41.25-156.3c-5.41,0.33-5.5,22.42-21.71,62.95
		c-7.92,19.81-21.86,49.45-28.22,47.76c-6.85-1.82,6.94-36.85-10.85-71.64c-10.1-19.74-29.79-38.27-43.42-34.73
		c-7.91,2.05-7.77,9.98-19.83,15.9c-6.64,3.26-13.28,4.09-30.07,3.34c-26.73-1.2-41.48-4.14-41.48-4.14
		c-32.03-3.99-63.14-11.75-93.7-21.83c-30.67-10.11-60.01-23.17-88.31-38.89c-15.58-8.66-26.57-17.68-48.31-33.88
		c-46.62-34.73-45.49-39.25-58.63-45.25c-38.68-17.68-84.34,4.59-126.59,23.65C8639.1,720.95,8522.36,690.3,8506.7,683.43z"/>
	<path fill="#B9C300" d="M9043.39,154.68c-10.55-19.32-22.2-37.77-40.23-51.36c34.3,7.3,58.62,28.87,80.39,57.94
		c-0.68-6.26-1.19-10.1-1.51-13.96c-1.75-20.93-2.98-41.85,0.96-62.69c1.31-6.92,3.41-13.59,7.35-19.48
		c4.24-6.34,9.59-11.04,19.14-10.57c-3.84,19.47-5.81,38.84-2.47,58.38c3.3,19.31,8.18,38.11,15.98,56.88
		c5.11-3.47,9.39-6.53,13.82-9.35c9.04-5.75,18.45-10.57,29.31-11.99c18.17-2.38,33.89,6.63,41.6,24.35
		c-11.26-1.05-22.44-5.54-33.34,0.3c-3.33,1.78-3.93,2.96-6.89,10.37c61.92,0,123.4,0,184.88,0c10.64-3.18,81.36-23.12,139.9,19.56
		c24.39,17.78,59.92,56.11,49.93,80.32c-15.48,37.52-132.62,22.65-189.51,13.46c-11.01-1.27-21.68,2.19-32.67,2.14
		c-62.98-0.25-125.96,0.31-188.94-0.25c-49.9-0.45-99.83,2.27-149.71-1.74c-16.85-1.35-33.81,0.57-50.76-1.85
		c-12.73-1.82-25.78-0.85-38.73-1.82c-22.45-1.68-44.97-2.55-67.45-4.3c-15.86-1.23-31.78-0.18-47.75-1.79
		c-19.76-2-39.76-0.16-59.72-2.04c-23.44-2.21-47.08-0.16-70.72-1.89c-33.78-2.46-67.78-1.09-101.7-1.91
		c-70.94-1.72-141.94-0.54-212.92-0.49c-2.67,0-5.54-0.71-8.05,1.34c16.18,0.33,32.11,2.19,47.93,5.22
		c-14.01,6.14-28.96,3.73-43.28,4.8c-28.44,2.14-57.11,1.43-85.69,2.18c-39.53,1.05-79.14,1.48-118.71-1.42
		c-24.83-1.82-49.79,1.04-74.74-1.87c-17.41-2.03-35.1-0.57-52.73-1.86c-23.44-1.71-46.96-2.69-70.45-4.16
		c-20.83-1.31-41.64-2.81-62.47-4c-21.83-1.25-43.65-2.87-65.47-3.95c-26.86-1.32-53.9-1.34-80.66,2.06
		c-7.27,0.92-14.68,0.43-21.72,2.1c-10.42,2.47-21.15,2.68-31.55,3.12c-37.55,1.58-75.14-0.11-112.69-1.63
		c-0.67-0.03-1.34,0.02-2-0.08c-19.37-3.15-39.04-3.56-58.47-3.54c-48.89,0.05-97.8-2-146.73,1.24c-16.83,1.11-33.74,3.19-50.7,2.43
		c-0.66-0.03-1.39-0.12-1.99,0.09c-11.54,3.93-23.72,1.87-35.56,3.3c-11.37,1.37-23.07,2.31-34.64,3.04
		c-8.53,0.54-17.31,0.42-25.71,2.09c-10.79,2.14-21.85,0.85-32.54,3.37c-0.37,0.09-0.91-0.52-1.37-0.81
		c0.53-2.81,5.12-2.06,4.77-6.15c-6.67-2.65-14.05-1.95-21.01-3.29c-17.76-3.43-35.9,0.48-53.52-3.64
		c-126.87,1.25-253.76-2.29-380.63,1.87c-55.87,1.83-111.8-1.69-167.7,1.92c-32.83,2.12-65.77-0.15-98.73,1.65
		c-29.8,1.63-59.79,1.7-89.69,2.58c-2.75,0.08-5.82-0.78-8.68,1.76c3.5,4.14,9.39,0.27,12.9,4.56c-4.07,2.59-7.8,1.58-11.26,1.58
		c-31.92-0.02-63.81-0.1-95.73-1.7c-40.52-2.04-81.1,0.33-121.72-1.67c-33.14-1.63-66.45-2.16-99.69-2.4
		c-12-0.09-23.71-3.17-35.72-2.43c-0.89,0.05-1.94-0.44-1.78-3.51c13.01-0.01,26.34-0.43,39.7-3.73c-2.21-3.35-4.77-2.46-6.89-2.42
		c-61.56,1.12-123.13-1.95-184.7,1.66c-28.83,1.69-57.8,0.92-86.72,1.81c-25.56,0.79-51.09,3.55-76.71,2.49
		c-0.99-0.04-2.03-0.06-2.98,0.18c-15.63,3.82-31.69,1.43-47.55,3.3c-11.72,1.38-23.66,2.98-35.68,2.87
		c-5.09-0.05-10.39,1.57-15.73,1.78c-3.38,0.13-6.91,1.01-10.48,5.32c43.39,7.31,86,7.2,128.2,11.83
		c-7.94,0.67-15.87,0.68-23.8,0.67c-42.91-0.07-85.84,0.64-128.7-2.04c-7.59-0.47-15.03-2.53-22.73-2.26
		c-1.88,0.07-3.8-1.11-5.7-1.71c-1.94-0.61-3.94-1.31-4-3.76c-0.05-2.06,1.92-2.54,3.3-3.28c4.41-2.35,8.97-4.41,13.3-6.9
		c3.15-1.81,2.98-4.16-0.03-6.13c-1.68-1.1-3.62-1.48-5.6-1.92c-13.34-2.99-27.04-2.5-40.51-3.59c-23.47-1.9-47.1-0.77-70.71-1.99
		c-47.49-2.45-95.09,0.21-142.7-1.96c-62.48-2.85-125.09,0.24-187.69-1.96c-59.16-2.08-118.47-1.25-177.67,1.54
		c-2.44,0.12-5.19-0.66-8.05,2.37c5.25,2.71,10.27,0.93,14.84,1.84c18.23,3.6,36.85,3.44,55.26,5.46
		c12.81,1.41,25.58,3.28,38.41,4.56c2.99,0.3,6.4,0.95,8.73,4.46c-7.48,5.13-16.01,4.61-23.41,4.87
		c-22.9,0.81-45.72,3.13-68.71,2.58c-29.64-0.71-59.31-0.33-88.97-0.1c-11.66,0.09-23.03-3.15-34.74-2.28
		c-3.13,0.23-6.26-1.26-9.66-3.74c7.01-4.56,14.53-4.4,21.11-6.93c2.78-1.07,8.32,0.4,7.99-4.01c-0.41-5.38-5.86-2.99-8.98-2.98
		c-21.25,0.12-42.55,1.19-63.73,1.35c-52.55,0.39-105.1,1.04-157.71-0.87c-44.16-1.6-88.44-2.62-132.68-2.58
		c-53.9,0.05-107.81-0.74-161.7,1.75c-10.79,0.5-21.25,2.99-32.08,3.08c4.47,1.41,9,3.17,13.43,2.96
		c18.33-0.91,36.47,2.55,54.73,2.11c16.97-0.41,33.73,2.72,50.74,2.46c6.75-0.11,13.86,0.95,20.69,1.93
		c5.87,0.84,11.87,1.1,17.63,2.59c1.8,0.46,4.12,1.41,3.6,3.98c-0.34,1.7-2.01,2.91-3.72,2.83c-5.73-0.24-11.2,2.33-16.72,2.08
		c-19.66-0.87-39.14,2.24-58.73,2.12c-17.92-0.11-35.8-0.21-53.76-1.57c-29.13-2.21-58.43-0.33-87.72-1.77
		c-26.82-1.33-53.76-2.66-80.69-2.69c-6.94-0.01-13.83-1.43-20.47-4.17c27.96-6.77,56.83-6.62,85.54-12.52
		c-2.7-2.53-4.89-3.13-7.27-3.17c-12.94-0.21-25.86-1.17-38.75-1.66c-43.87-1.66-87.79-1.04-131.7-1.85
		c-91.94-1.69-183.93-0.45-275.9-0.58c-15.3-0.02-30.4,3.18-45.72,2.35c-0.82-0.04-2.01,0.44-1.54,3.13
		c18.21,2.14,36.96,0.01,55.59,2.06c18.5,2.03,37.39,0.58,56.09,5.48c-1.47,3.86-4.09,4.61-6.63,4.84
		c-12.84,1.18-25.71,3.76-38.46,3.78c-20.97,0.02-41.79,2.26-62.72,2.61c-23.98,0.4-47.81-1.94-71.73-2.3
		c-5.06-0.07-9.98-1.5-16.4-3.78c11.68-4.85,23.04-2.27,33.37-7.06c-3.65-1.77-6.65-3.13-10.08-3.06
		c-7.98,0.18-15.85-1.14-23.76-1.71c-16.2-1.17-32.56-1.91-48.71-1.87c-64.56,0.17-129.13-2.27-193.7,1.31
		c-39.83,2.21-79.78-0.83-119.71,1.96c-34.47,2.41-69.09-0.27-103.72,1.86c-43.79,2.69-87.83-1.69-131.68,2.42
		c-110.54-1.23-221.09,1.68-331.65-1.7c-84.18-2.57-168.42,0.13-252.67-1.77c-98.25-2.21-196.59-0.52-294.9-0.52
		c-2.67,0-5.34-0.1-7.99,0.06c-1.77,0.11-4.26-0.65-4.41,3.48c44.44,3.05,88.89,6.11,133.34,9.17c-2.73,4.14-6.13,3.31-9.2,3.22
		c-24.24-0.68-48.45,0.05-72.75-1.5c-39.46-2.53-79.1,0.65-118.7-2.12c-35.13-2.46-70.42-0.05-105.72-1.84
		c-48.14-2.45-96.46-1.55-144.68-1.91c-102.87-0.76-205.78-2.73-308.65,1.34c-16.97,0.67-34,0.52-50.98,0.01
		c-33.62-1.01-67.1,3.25-100.72,2.25c-7.53-0.23-15.92-0.24-22.47,2.77c-6.25,2.88-12.03,3.12-18.17,3
		c-54.23-1.03-108.47,1.72-162.72-1.61c-24.49-1.5-49.16-0.51-73.7-2.37c-1.77-0.13-4.14,0.58-4.64-3.01
		c23.02-3.36,46.55-1.99,70.22-6.26c-2.65-3.46-5.16-2.66-7.32-2.63c-73.55,1.16-147.15-2.44-220.68,1.86
		c-20.21,1.18-40.46-0.56-60.76,1.77c-17.74,2.04-35.75,0.19-53.73,1.95c-22.1,2.16-44.42,0.09-66.72,2
		c-27.77,2.38-55.76,0.55-83.71,1.88c-53.48,2.55-107.13-1.27-160.68,2.34c-26.9,1.81-53.8-1.23-80.71-1.81
		c-10.99-0.24-21.99-0.04-32.99-0.05C230.77,343.02,65.47,395.8,27.36,342.01c-23.45-33.1,11.94-91.45,14.47-95.52
		c46.95-75.48,170.03-103.35,307.68-63.53c29.57,0,59.13,0,88.7,0c-3.51-6.81-15.29-15.67-28.87-22.2
		c-11.62-5.59-23.85-7.16-36.72-6.59c16.75-12.03,35.72-16.43,55.8-16.21c20.28,0.22,39.04,6.27,56.75,16.78
		c-11.34-20.69-23.52-40.42-41.82-55.59l0.67-0.71c6.9-0.15,12.95,2.8,18.96,5.54c22.91,10.45,41.48,26.35,56.97,46.01
		c2.02,2.56,3.94,5.2,7.34,9.72c-1.03-12.5-1.84-22.79-2.73-33.08c-1.49-17.37-0.59-34.61,2.98-51.67
		c1.44-6.87,3.79-13.47,7.86-19.3c4.61-6.59,10.45-11.1,20.42-10.76c-10.74,43.12-1.54,83.76,14.12,124.37
		c4.87-3.37,9.14-6.46,13.55-9.34c9.24-6.04,18.88-11.16,29.89-13.35c20.55-4.08,38.91,5.52,48.1,25.95
		c-6.22-1.07-11.94-2.28-17.73-3.02c-12.74-1.62-20.12,1.99-25.83,12.62c2.46,2.23,5.56,1.27,8.28,1.27
		c115.63,0.05,231.27-0.06,346.9,0.06c68.99,0.07,137.96-1.02,206.91-2.97c82.93-2.34,165.85-5.06,248.73-8.87
		c38.94-1.79,77.9-3.08,116.85-4.8c67.23-2.98,134.46-6.14,201.69-9.17c34.61-1.56,69.23-3.08,103.85-4.52
		c38.95-1.62,77.9-3.1,116.85-4.71c3.95-0.16,7.99,0.05,13.09-2.07c-16.29-10.97-32.65-17.47-51.95-13.86
		c-0.82-1.7,0.78-2.08,1.56-2.71c1.02-0.83,2.24-1.43,3.42-2.04c32.46-16.65,65.07-17.09,97.87-0.96c2.96,1.46,5.44,3.89,8.86,4.43
		c0.16,1.15,1.05,1.56,1.96,1.95c0.25,0.15,0.5,0.33,0.77,0.44c0.11,0.04,0.28-0.06,0.43-0.1c-0.47-0.06-0.95-0.12-1.41-0.18
		c1.3-1.23,0.56-2.31-0.22-3.38c-11.89-19.98-23.8-39.95-42.54-54.8c36.41,8.15,62.26,30.98,84.5,60.98
		c1.15-6.09-1.04-10.96-1.15-15.89c-0.12-4.99-0.59-9.97-1.04-14.95c-1.62-18.03-0.82-35.93,3.01-53.64
		c1.41-6.54,3.7-12.79,7.45-18.4c5.13-7.67,9.86-10.33,19.72-11.12c1.64,4.09-0.71,7.82-1.38,11.6
		c-5.12,28.92-1.07,57.02,7.06,84.79c1.87,6.38,3.91,12.73,6.17,18.97c1.81,4.99,4.29,6.15,9.14,4.23c2.74-1.08,5.15-2.99,7.66-4.62
		c12.74-8.27,26.16-14.63,42.5-14.42c-5.86-5.33-12.74-3.39-18.99-4.62c14.84-12.51,37.22-12.87,67.02-0.73
		c-5.03-13.29-14.57-22.29-22.43-32.39l-0.18,0.16c4.31-1.93,7.73,0.89,11.16,2.47c12.61,5.79,22.88,14.66,31.93,25.07
		c1.91,2.19,3.15,5.06,6.88,6.92c-1.62-11.37-2.16-22.15-1.95-32.96c0.16-8.38,1.18-16.58,4.25-24.42
		c1.74-4.45,4.46-8.19,8.74-10.53c1.47-0.8,3.32-1.31,4.79-0.42c1.71,1.04,0.96,2.97,0.64,4.53c-4.64,22.68,0.26,44.24,7.55,65.54
		c0.65,1.89,1.13,3.84,3.11,5.38c7.22-4.34,14-9.75,22.4-12.29c14.14-4.27,24.82,0.08,32.69,14.16c-9.11,0.71-20.17-5.36-26.74,8.48
		c39.93-0.74,78.55-1.45,119.35-2.2c-12.86-12.8-25.59-21.06-43-20.04c14.11-13.24,43.07-13.48,65.89-0.68
		c1.44-4.27-1.97-6.81-3.58-9.82c-4.69-8.75-11.99-15.57-17.93-23.41l-0.18,0.19c4.31-1.26,7.78,1.2,11.32,2.81
		c12.65,5.78,22.96,14.64,31.97,25.09c1.88,2.18,3.67,4.43,5.97,7.2c1.17-4.76,0.07-8.28-0.28-11.83
		c-1.27-12.65-1.4-25.27,1.16-37.79c1.14-5.58,2.93-10.97,6.95-15.25c2.57-2.73,5.55-4.73,10.6-4.03
		c-5.75,26.34-1.18,51.32,9.12,76.34c7.23-4.72,13.63-9.57,21.19-12.29c13.6-4.89,25.17-1.31,33.31,10.34
		c0.49,0.7,0.42,1.79,0.62,2.74c-22.6,1-22.6,1-25.57,10.43c126.62-0.52,252.75,4.72,379.82,13.72
		c-11.9-12.32-25.41-16.78-52.75-18.15c24.71-21.32,69.82-21.03,111.51,0.72c-1.9-11.71-24.5-41.28-45.32-58.49
		c38.85,8.83,65.03,32.04,88.17,62.95c-1.02-12.97-1.84-23.97-2.75-34.97c-1.36-16.37-0.27-32.6,2.92-48.69
		c1.43-7.23,3.82-14.18,8.17-20.22c4.62-6.43,10.37-11.08,20.05-10.64c-4.31,21.33-6.05,42.33-2.6,63.56
		c3.37,20.73,9.08,40.71,16.95,60.86c5.27-3.63,9.82-6.93,14.53-9.99c10.42-6.77,21.45-12.05,34-13.58
		c17.53-2.14,35.78,9.08,42.68,26.67c-12.17-1.11-24.34-6.74-36.09,0.45c-3.04,1.86-6.06,4.11-6.08,8.35
		c13.48,3.21,484.67,22.72,514.81,21.36c-3.93-7.47-16.99-17.84-30.88-24.85c-12.11-6.11-24.89-8.5-39.56-6.46
		c25.86-22.35,70.85-22.04,112.7-0.27c-1.9-11.71-24.77-41.6-43.68-57.1c25.14,1.8,51.2,19.98,86.51,60.84
		c-0.95-11.55-1.77-21.84-2.65-32.12c-1.49-17.36-0.6-34.6,2.99-51.65c1.52-7.2,4.04-14.09,8.45-20.11c4.91-6.71,9.5-9.1,19.87-9.94
		c-10.85,43.1-1.58,83.71,14.04,124.39c4.9-3.36,9.17-6.41,13.55-9.28c9.8-6.42,20.02-11.84,31.83-13.72
		c19.78-3.15,37.4,6.56,46.11,26.19c-6.86-1.09-13.26-2.44-19.73-3.08c-15.47-1.54-24.25,6.02-26.03,23.3
		c87.43,2.5,174.75,5,264.39,7.56c-12.32-12.68-25.13-19.46-43.49-19.47c14.68-8.73,28.29-11.12,42.86-9.29
		c8.37,1.05,15.88,4.68,23.66,7.55c0.65,0.64,1.29,1.29,1.94,1.93c0.25,0.09,0.5,0.2,0.76,0.26c0.11,0.03,0.24-0.06,0.36-0.09
		c-0.44-0.01-0.89-0.02-1.32-0.04c1.62-1.18,0.74-2.29-0.06-3.41c-5.86-11.27-13.35-21.32-23.38-30.26
		c4.52-1.37,7.67,0.79,10.73,2.11c13.06,5.63,23.79,14.44,33.17,25.04c1.9,2.15,2.93,5.25,6.15,6.09c0.3,0.51,0.6,1.01,0.9,1.52
		c0.11-0.31,0.35-0.63,0.3-0.91c-0.16-0.97-0.66-1.09-1.38-0.39c2.01-3.18,0.37-6.5,0.27-9.73c-0.42-13.97-1.79-28.03,2.17-41.71
		c2.25-7.77,5.61-15.01,16.54-16.27c-5.91,26.83-1.06,51.78,9.17,76.76c7.5-4.5,13.77-9.5,21.35-12.13
		c14.99-5.2,26.27-0.9,34.85,14.31c-6.01-0.62-11.41-2.21-16.78-1.25c-5.79,1.04-9.41,4.32-10.29,10.37
		c11.38,3.16,699.79,18.01,720.09,15.64c-7.14-15-31.83-27.37-53.79-26.9c-0.15-3.24,2.79-3.46,4.61-4.33
		c22.64-10.84,45.5-11.38,68.52-1.14c2.73,1.21,5.43,2.5,8.14,3.75c0.75,0.26,1.94,0.96,2.18,0.72c1.1-1.11,0.33-1.97-0.77-2.61
		c-7.88-14.72-17.16-28.36-30.93-38.95c18.9,1.12,40.03,15.79,64.86,45.48c-0.53-6.22-0.84-10.53-1.26-14.83
		c-1.49-15.29-1.81-30.56,0.95-45.76c1.08-5.93,2.77-11.67,6.1-16.77c3.41-5.21,7.66-9.19,15.69-8.86
		c-2.68,15.82-4.64,31.46-1.95,47.29c2.68,15.81,6.96,31.09,12.54,45.99c3.78,0.35,5.57-2.47,7.92-4.05
		c6.67-4.46,13.47-8.64,21.19-10.99c17.36-5.3,30.7,0.33,40.47,17.5c-4.85,1.28-9.12-0.8-13.45-1.22
		c-10.14-1-17.36,2.96-19.93,11.19c-1.66,5.33-1.6,8.26,5.58,7.88c5.64-0.3,11.32,0.07,16.98,0.14
		c133.53,1.7,267.07,3.44,400.6,5.08c57.28,0.7,114.56,1.21,171.83,1.76c2.58,0.02,5.26,0.69,7.75-0.69
		c-5.81-10.9-19.41-17.89-41.38-20.75c20.02-11.11,39.26-11.9,59.21-3.69c2.77,1.14,5.12,4.52,8.84,2.49
		c-0.11,0.43-0.23,0.85-0.34,1.28c0.38-0.02,0.77-0.05,1.15-0.07c-0.35-0.36-0.7-0.71-1.06-1.07
		c-5.44-11.93-13.48-21.95-23.03-31.02c7.94-0.45,16.14,3.25,27.84,12.16c8.21,6.25,14.98,13.94,22.82,23.55
		c-1.75-14.16-2.13-26.23-1.71-38.31c0.26-7.38,1.46-14.6,4.47-21.37c2.52-5.68,6.23-10.15,14.57-10.78
		c-5.93,26.67-0.94,51.58,9.14,76.78c7.15-4.46,13.17-9.17,20.31-11.87c14.25-5.39,25.71-2.14,34.18,9.92
		c0.52,0.73,0.62,1.76,1.06,3.09c-7.64,0.91-15.56-3.05-22.26,2.31c-2.37,1.9-4.1,4.34-3.63,9.1c366.32,3.77,732.72,4.5,1101.61-4.1
		c-13.4-12.7-26.02-21.28-43.64-19.75c1.21-3.65,4.46-4.21,7.02-5.25c16.09-6.58,32.36-6.94,48.7-0.84c3.11,1.16,6.14,2.55,9.2,3.82
		c1.09,0.75,2.16,1.79,3.33,0.11c-0.57,0.58-0.57,1.07,0.03,1.48c0.1-0.14,0.22-0.28,0.29-0.43c0.55-1.21-0.07,0.46-0.47-0.81
		c-0.23-1-0.62-1.88-1.76-2.16c-5.03-10.98-12.86-19.96-21.31-29.03c12.9,0.04,22.38,6.52,49.44,33.69
		c-0.5-7.44-0.88-13.53-1.31-19.62c-0.83-11.71-0.32-23.34,3.06-34.62c2.74-9.16,6.21-12.14,15.93-14.23
		c-2.26,13.03-3.54,25.82-1.47,38.57c2.07,12.75,5.25,25.22,10.76,38.1c6.77-4.62,12.91-9.16,20.01-11.94
		c15.27-5.98,26.58-2.06,35.98,12.98c-5.12,1.48-9.78-1.44-14.45-0.79c-4.95,0.7-9.61,1.91-11.81,9.22
		c250.73-5.4,500.3-10.78,750.15-16.16c-8.75-19.32-41.54-35.3-69.19-34.04c0.92-2.96,3.56-3.67,5.67-4.72
		c30.08-14.95,60.17-14.98,90.23,0.08c2.36,1.18,4.76,2.31,7.14,3.47c0.5,0.85,1.24,1.71,2.12,0.87c0.87-0.83-0.03-1.63-0.73-2.25
		c-10.75-18.83-22.1-37.17-40.73-50.55c24.65,2.51,48.23,18.91,80.38,56.09c-0.54-7.05-0.87-12.4-1.37-17.73
		c-1.72-18.29-2.22-36.56,0.89-54.77c1.41-8.27,3.68-16.29,8.65-23.18c4.18-5.79,9.37-10.05,18.51-9.2
		c-9.68,40.17-1.26,77.61,13.24,115.16c4.44-3.06,8.18-5.73,12.02-8.25c9.24-6.05,18.82-11.34,29.97-13.04
		c18.82-2.87,34.24,5.61,42.88,24.03c-7.78-0.45-15.1-2.87-22.7-2.41c-10.1,0.61-15.3,4.34-18.5,13.72
		c-0.19,0.55,0.13,1.28,0.39,3.29c190.24-4.02,380.63-7.54,571.05-10.04c190.48-2.5,380.98-1.77,572.08-1.82
		c-11.54-17.38-36.38-27.91-63.07-26.72c9.79-8.01,20.38-11.29,31.22-13.62c23.74-5.1,46.33-1.61,67.64,10.06
		c1.75,0.96,3.55,1.81,5.33,2.71C9042.58,155.48,9042.99,155.08,9043.39,154.68z M3674.14,278.77c-4.23,0.65-6.94-0.92-11.1,2.23
		C3667.26,280.35,3669.97,281.93,3674.14,278.77z"/>
	<path fill="#6D8C1E" d="M6735.9,470.6c-35.75,0.06-71.49,0.12-107.24,0.22c-3.03,0.01-5.95-0.18-8.56-1.93
		c-2.31-2.67-5.45-2.09-8.38-2.07c-12.64,0.07-25.02-2.12-37.48-3.83c-8.62-1.18-16.56-5.65-25.06-5.94
		c-15.58-0.52-31.15-0.8-46.72-2.1c-9.58-0.8-19.16-1.51-28.45-3.86c-28.75-7.3-57.8-11.2-87.55-10.46
		c-24.9,0.62-49.88-0.72-74.65,2.4c-8.93,1.13-17.89,1.01-26.73,2.09c-16.79,2.06-33.64,2.94-50.5,3.54
		c-12.92,0.46-25.84-0.92-38.74-1.43c-16.25-0.64-32.38-3.57-48.69-2.52c-0.66,0.04-1.36,0.05-1.99-0.13
		c-15.29-4.24-30.29-0.19-45.24,2c-19.94,2.92-39.41,8.27-59.5,10.89c-19.41,2.53-38.93,4.42-58.29,4.85
		c-47.85,1.04-95.7,3.73-143.6,2.5c-13.64-0.35-27.31,0.14-40.95-0.18c-5.14-0.12-9.8,1.56-14.69,2.35
		c-2.01,0.33-2.56,1.84-2.73,3.61c-37.57,0.05-75.15,0.15-112.72,0.14c-60.52-0.01-121.03-0.09-181.55-0.14
		c-0.11-2.35-1.38-3.31-3.67-3.87c-3.85-0.94-7.62-2.25-11.34-3.63c-2.59-0.96-4.86-2.52-4.53-5.77c0.28-2.7,2.27-3.86,4.67-4.52
		c4.78-1.33,9.31-3.37,14.32-4.12c8.25-1.24,16.42-3.01,24.63-4.55c-25.03-1.05-49.76-3.43-74.54-5.11
		c-19.49-1.32-38.98-2.9-58.46-3.81c-14.9-0.7-29.71-3.41-44.69-2.46c-1.65,0.1-3.4,0.21-4.97-0.2c-14.3-3.67-29.05-0.95-43.55-3.4
		c-11.99-2.03-24.44-1.08-36.7-1.86c-25.16-1.6-50.52-1.28-75.61,1.89c-10.06,1.27-20.3,3.12-29.44,8.51
		c-3.71,2.19-6.98,4.82-7.36,8.84c-1.02,10.74-8.12,14.49-17.2,16.33c-14.95,3.04-29.72,4.5-45.26,2.45
		c-17.34-2.28-35.09-1.44-52.66-2.16c-41.14-1.68-82.32-0.31-123.36,3.61c-2.73,0.26-5.5,0.05-5.78,3.83
		c-47.5,0.05-95,0.1-142.5,0.14c-30.56,0.03-61.12,0.04-91.68,0.04c-3.95,0-8.02,0.62-11.58-1.88c-1.98-2.38-4.73-2.13-7.37-2.09
		c-9.31,0.15-18.57-1.39-27.67-2.55c-19.98-2.56-40.06-4.39-60.03-7.16c-20.93-2.9-41.97-5.02-62.91-8.07
		c-18.04-2.63-34.73-7.78-49.2-19.43c-6.17-4.96-13.38-7.86-21.49-9.67c-7.37-1.65-13.8,0.43-20.61,0.94
		c-15.5,1.16-30.98,2.6-46.44,4.27c-15.43,1.66-30.8,3.99-46.24,5.56c-16.45,1.67-33.04,2.24-49.41,4.41
		c-8.26,1.09-16.67,0.6-24.7,2.25c-11.13,2.3-22.41,1.78-33.58,3.05c-12.43,1.42-24.99,2.87-37.67,2.82
		c-5.97-0.03-12.39,1.17-18.46,2.93c2.35,0.59,4.65,0.45,6.93,0.61c12,0.88,23.83-1.93,35.72-1.78c20.9,0.27,41.76-0.12,62.72,1.27
		c30.44,2.02,61.07,0.48,91.64,2.14c16.53,0.9,33.04,3.52,49.68,2.48c0.98-0.06,2,0.1,2.97,0.31c10.38,2.24,21.01,2.3,31.51,3.51
		c12.51,1.45,24.85,3.71,37.06,6.7c4.53,1.11,7.78,3.84,7.4,9.19c-4.66,0.05-9.32,0.14-13.97,0.14c-164.75,0.01-329.5,0.01-494.24,0
		c-3.99,0-7.98-0.11-11.97-0.17c-0.43-5.96,3.58-8.31,8.32-9.52c7.89-2.01,15.9-3.6,24.2-5.45c-2.95-1.3-5.65-0.54-8.27-0.79
		c-12.67-1.23-25.09,2.17-37.73,2c-63.18-0.85-126.38,1.53-189.56-1.71c-17.21-0.88-34.42-2.35-51.68-2.86
		c-9.48-0.28-19.28-0.26-28.7-1.94c-11.13-1.99-22.39-1.85-33.54-3.39c-14.41-1.99-28.94-3.05-43.39-4.68
		c-17.62-1.99-34.78-6.27-53.07-3.9c-18.73,2.43-37.35,5.04-55.7,9.35c-13.29,3.12-26.55,5.19-40.27,5.24
		c-15.3,0.05-30.48-1.17-45.72-2.02c-11.23-0.63-21.62-2.68-30.3-10.52c-4.55-4.11-9.85-5.92-16.36-5.77
		c-13.28,0.3-26.57,1.44-39.67,2.73c-22.5,2.22-45.06,0.67-67.52,3.25c-19.54,2.24-39.08-2.36-58.68-1.75
		c-10.99,0.34-21.81-1.81-32.68-2.67c-6.81-0.54-13.83-0.9-20.71-2.04c-9.44-1.56-19.01-2.5-28.55-3.24
		c-5.96-0.46-12-0.39-17.96,0.07c-5.84,0.45-7.18,3.85-3.92,8.82c0.72,1.1,1.85,1.94,2.57,3.05c2.04,3.15,1.36,5.92-2.04,7.33
		c-3.03,1.25-6.32,1.96-9.56,2.6c-9.08,1.79-18.16,3.62-27.29,5.08c-20.25,3.24-40.55,5.92-61.06,7.04
		c-12.57,0.69-25.07,2.67-37.72,1.98c-2.63-0.14-4.58,0.74-4.79,3.75c-44.84,0.05-89.69,0.11-134.53,0.15
		c-33.22,0.03-66.44,0.04-99.66,0.03c-3.95,0-8.02,0.6-11.58-1.9c-2-2.35-4.75-2-7.39-2.08c-17.24-0.5-34.47-0.63-51.73-1.55
		c-29.78-1.58-59.63-1.94-89.41-4.31c-14.53-1.16-29.11-0.07-43.74-1.78c-15.08-1.76-30.43-0.4-45.7-2.07
		c-12.5-1.36-25.27-0.35-37.92-0.24c-1.61,0.01-4.17-1.26-4.69,2.05c4.32,3.45,9.91,3.3,14.83,5.04c3.5,1.24,7.23,1.92,7.68,6.58
		c-41.75,0.09-83.5,0.16-125.24,0.28c-3.04,0.01-5.96-0.18-8.57-1.93c-1.7-2.01-4.02-2.23-6.37-2.06
		c-13.96,0.97-27.65-2.4-41.62-2.41c-8.46-0.01-17.14-1.04-25.64-2.07c-14.77-1.79-29.47-3.65-44.4-3.56
		c-22.92,0.15-45.84,0.01-68.76-0.04c-4.3-0.01-8.5-0.37-12.8-1.2c-7.13-1.37-15.14-2.76-21.58,0.3
		c-10.07,4.78-20.48,7.23-31.24,8.95c-2.37,0.38-3.57,1.46-3.7,3.8c-33.91,0.05-67.81,0.14-101.72,0.14
		c-54.85-0.01-109.7-0.09-164.55-0.13c-0.08-3.11-2.17-3.46-4.71-3.88c-8.17-1.35-16.32-2.87-24.1-5.9
		c-2.29-0.89-4.41-1.79-4.73-4.5c-0.38-3.27,1.87-4.85,4.46-5.82c3.72-1.39,7.47-2.9,11.34-3.66c23.1-4.54,46.37-7.62,69.95-8.11
		c2.96-0.06,6.39,1.03,9.33-2.24c-1.53-0.73-2.34-1.43-3.16-1.45c-18.23-0.56-36.34-2.77-54.51-3.97
		c-22.49-1.48-45.01-2.67-67.51-3.97c-23.2-1.34-46.5-0.1-69.75-2.08c-18.56-1.58-37.16,1.17-55.74,1.55
		c-10.33,0.21-20.49,1.66-30.74,2.29c-2.02,0.13-4.21,0.48-4.57,2.88c-0.28,1.83,1.38,3.01,2.76,3.85c6.85,4.2,14.54,6.47,21.9,9.52
		c2.4,0.99,6.02,1.1,6.36,4.91c-7.72,2.4-14.74-1.05-21.99-1.26c-18.92-0.55-37.86-0.88-56.77-1.44
		c-50.54-1.5-101.16-0.99-151.71,1.49c-1.64,0.08-3.42,0.12-4.89,0.74c-18.01,7.61-37.4,8.49-56.35,10.96
		c-20.03,2.61-40.37,3.41-60.49,3.76c-34.88,0.6-69.8,1.7-104.76-1.03c-20.79-1.62-41.7-1.95-62.48-4.4
		c-13.18-1.56-26.2-3.76-39-7.23c-3.82-1.04-8.66-1.95-8.82-6.7c-0.15-4.48,4.93-4.63,8.02-6.24c0.67-0.35,1.03-0.69,0.76-1.75
		c-11.81-0.6-23.75-1.2-35.56-1.62c-19.91-0.71-39.81-2.41-59.73-2.38c-16.58,0.03-33.16-0.87-49.8,1.43
		c-8.42,1.16-17.14,1.65-25.68,2.62c-7.19,0.82-14.55,1.85-21.2,5.06c-14.45,6.98-29.39,11.38-45.51,13.46
		c-16.76,2.16-33.62,4.56-50.33,4.84c-31.88,0.52-63.79,1.44-95.76-1.13c-24.75-1.99-49.68-2.29-74.49-4.25
		c-13.88-1.1-27.81-0.59-41.77-1.76c-10.38-0.87-37.91-1.41-61.74-1.98c-24.51-0.59-61.5-1.1-109.95-0.43
		C114.98,499.4,45.46,490.47,36.04,466.47c-3.53-8.98,1.89-18.76,0-54.99c-2.39-46-12.62-59.11-8.68-69.47
		c8.14-21.42,75.93-28.67,322.15,24.83c11.93,0.38,29.94,0.01,51.76,1.53c29.13,2.02,58.47,1.46,87.7,1.99
		c58.87,1.08,117.8,1.62,176.7-1.26c13.25-0.65,26.38-3.38,39.72-2.37c0.96,0.07,1.95-0.35,2.93-0.51
		c18.55-3.12,36.7-6.83,56.08-3.92c17.57,2.63,35.78,1.7,53.66,2.11c29.53,0.67,59.13,0.03,88.73-0.95
		c40.15-1.32,80.45-2.1,120.72,1c20.45,1.57,41,1.88,61.47,4.11c12.51,1.36,25.04,2.74,37.32,5.12c19.23,3.73,38.68,5.79,58.06,6.82
		c38.54,2.04,77.13-0.74,115.69-1.72c0.67-0.02,1.34-0.03,1.99-0.14c19.29-3.12,38.89-2.9,58.25-5.59
		c12.43-1.72,24.92-3.15,37.26-5.43c17.29-3.19,34.15-8.13,51.12-12.65c34.06-9.07,69.12-11.52,104.08-13.95
		c17.19-1.19,34.56-1.77,51.72-1.75c57.23,0.05,114.46-2,171.72,1.21c35.81,2.01,71.81-0.2,107.7,2.26
		c18.21,1.25,36.44-0.01,54.76,1.63c22.43,2.01,45.13,0.09,67.7,2.3c14.5,1.42,29.1,0.11,43.76,1.72
		c17.41,1.91,35.13,1.38,52.7,1.98c20.24,0.69,40.41,3.67,60.71,2.48c0.66-0.04,1.36-0.06,1.99,0.11
		c14.27,3.83,29.04,1.98,43.54,3.3c14.77,1.34,29.69,3.75,44.68,2.61c0.98-0.07,2.02,0.03,2.97,0.28
		c12.31,3.24,25.04,1.87,37.54,3.27c11.45,1.28,23.22,1.66,34.64,2.92c19.73,2.18,39.56,3.25,59.3,5.07
		c21.73,2.01,43.63,2.69,65.45,4.19c19.19,1.32,38.56,1.71,57.72,1.71c74.22-0.01,148.47,2.63,222.69-1.33
		c34.18-1.82,68.49,1.32,102.73-1.99c19.14-1.85,38.43,0.05,57.75-1.69c18.75-1.69,37.78-1.51,56.69-2.3
		c12.6-0.53,25.12-2.05,37.7-2.74c9.4-0.51,19.18-0.96,28.48-3.61c1.78-0.51,3.07-1.28,2.74-3.36c-0.25-1.55-1.5-2.36-2.84-2.25
		c-5.75,0.45-11.11-2.3-16.73-2.14c-20.29,0.56-40.41-3.53-60.73-2.16c-1.46,0.1-3.59,1.08-4.95-2.06
		c11.37,0.5,22.24-1.33,33.04-1.57c41.23-0.89,82.47-1.2,123.71-1.92c74.95-1.31,149.95-0.35,224.93-0.4
		c8.16-0.01,16.27-0.05,26.34,4.16c-7.7-0.86-12.6,1.62-17.89,1.83c-4.97,0.2-9.91-0.14-14.78,1.67
		c-4.53,1.67-10.17-1.47-14.33,3.24c9.97,0.54,19.67,2.59,29.46,3.01c28.89,1.23,57.78-0.73,86.75,1.76
		c28.76,2.47,57.77-0.7,86.72,2.06c23.44,2.23,47.09,0.4,70.73,1.81c36.47,2.17,73.16,1.87,109.69,1.96
		c99.54,0.27,199.12,2.72,298.66-1.34c46.2-1.89,92.45,1.17,138.72-1.79c31.8-2.04,63.81,0.32,95.71-2.17
		c13.91-1.09,28.16,1.2,41.93-0.6c20.16-2.63,40.4-1.11,60.56-3.16c11.46-1.17,23.01-3.38,34.69-2.62c1.49,0.1,3.25-0.68,3.12-4.26
		c-16.71-3.33-34.51-2.29-52.45-7.18c5.26-3.82,9.73-4.46,14.45-4.36c58.89,1.23,117.83-2.38,176.7,1.92
		c13.55,0.99,27.14,0.62,40.76,1.64c19.84,1.49,39.45,4.33,59.15,6.68c3.57,0.43,7.16,1.53,10.47,2.94c1.97,0.84,2.8,3.06,0.17,4.49
		c-1.73,0.95-3.69,1.72-5.63,2c-15.38,2.18-30.73,5.18-46.19,6.05c-15.57,0.87-30.9,3.61-46.44,4.59
		c-6.85,0.44-13.61,2.72-20.35,4.43c-1.75,0.45-4.2,1.17-3.98,3.73c0.2,2.33,2.2,3.08,4.28,3.38c9.48,1.37,18.97,3.86,28.46,3.89
		c22.61,0.05,45.07,3.21,67.73,2.38c18.64-0.68,37.33,0.24,55.97-0.26c16.38-0.44,32.66,1.23,48.37,4.79
		c22.52,5.09,45.19,4.33,67.5,2.64c17.83-1.35,35.74-0.09,53.58-2.94c14.63-2.34,29.73-0.39,44.72-1.96
		c17.75-1.85,35.79-0.15,53.71-2.2c13.8-1.58,27.84-1.1,41.73-1.62c20.89-0.78,41.77-2.64,62.71-2.59
		c14.61,0.04,29.06-2.57,43.73-2.4c6.08,0.07,12.41-1.69,18.72-1.79c1.48-0.02,2.45-0.77,2.1-3.42
		c-10.54-1.11-21.45-1.04-32.19-1.96c-19.13-1.65-38.46-0.32-57.72-2.11c-8.89-0.83-17.69-2.67-26.66-2.78
		c-1.26-0.02-2.37-1.03-2.14-2.74c1.28-1.64,3.18-2.42,5.15-2.61c15.81-1.45,31.65-4.11,47.46-3.94
		c60.23,0.62,120.5-2.62,180.7,1.68c14.88,1.06,29.81,0.66,44.76,1.61c26.45,1.68,52.98,2.35,79.45,4.34
		c14.87,1.12,29.78,0.12,44.76,1.75c17.75,1.94,35.76,0.15,53.72,2.07c18.77,2,37.75,0.04,56.73,1.92
		c22.42,2.22,45.09-0.03,67.72,2.06c24.77,2.28,49.76,0.49,74.72,1.82c38.81,2.07,77.78,0.47,116.7,2.2
		c32.59,1.45,65.3,0.11,97.96,0.41c10.86,0.1,21.46-1.18,32.71-2.85c-9.76-4.25-20.56-1.7-31.32-7.99
		c8.82-1.28,15.54-3.05,22.27-3.08c19.94-0.09,39.85-1.83,59.73-1.91c82.56-0.31,165.12-1.09,247.68,1.45
		c19.25,0.59,38.4,3.22,57.73,2.47c5.52-0.22,10.99,2.22,16.73,2.09c2.03-0.05,4.4,0.91,5.46,4.1c-12.57,3.92-25.43,4.34-39.43,7.3
		c5.36,3.21,9.1,2.11,12.66,2.27c33.61,1.47,67.13-1.79,100.71-2.12c29.91-0.29,59.78,0.75,89.75-1.42
		c34.44-2.49,69.13,0.73,103.7-2.23c22.48-1.93,45.12-0.46,67.74-1.57c25.5-1.26,51.1-2.75,76.69-2.61
		c9.51,0.05,18.59-3.01,27.67-2.34c0.93-4.29-4.22-3.06-3.23-6.24c1.13-1.71,2.91-1.34,4.49-1.39c19.91-0.62,39.82-0.75,59.75-1.58
		c52.84-2.2,105.82,1.5,158.69-2.35c8.95-0.65,17.99-0.1,26.98-0.1c104.55,0.07,209.12-0.78,313.65,2c1,0.03,2.01-0.09,3,0.04
		c1.77,0.23,4.11-0.57,4.88,3.58c-18.21,0.52-36.25,1.55-54.44,5.41c2.12,3.93,4.67,4.67,7.31,4.85c20.15,1.42,40.3,3.7,60.47,3.92
		c51.31,0.56,102.64-0.06,153.95,0.37c12.04,0.1,23.74-2.84,35.74-2.32c2.9,0.13,5.9-0.78,7.25-4.52
		c-5.29-4.12-11.92-3.61-17.63-5.68c-5.82-2.11-12.86,0.52-18.85-4.8c4.62-1.11,8.1-2.36,11.66-2.74
		c17.11-1.84,34.34-2.22,51.49-3.84c15.15-1.43,30.45-0.4,45.74-1.98c18.12-1.88,36.43-0.54,54.73-1.84
		c30.46-2.16,61.18-1.9,91.69-1.92c116.21-0.07,232.44-2.66,348.65,1.17c29.88,0.99,59.81,1.24,89.71,2.4
		c6.9,0.27,13.75,1.93,21.29,3.04c-2.39,3.4-4.55,4.1-6.84,4.73c-2.21,0.61-6.42-1.17-5.85,3.12c0.4,3.02,3.97,2.95,6.68,2.97
		c1.33,0.01,2.67,0.03,4,0.01c60.56-1.18,121.12,1.34,181.71-1.61c45.15-2.2,90.48,0.58,135.7-2.28
		c22.87-1.44,45.77,0.24,68.76-1.64c25.43-2.08,51.12-1.1,76.7-2.04c19.9-0.73,39.74-2.96,59.71-2.76
		c7.45,0.07,15.08-1.69,22.73-1.8c4.07-0.06,8.11-1.23,11.65-4.43c-5.81-1.35-11.57-1.98-17.19-3.25
		c-5.37-1.21-11.37,1.21-17.22-1.93c1.33-1.14,1.78-1.87,2.27-1.9c2.99-0.2,5.99-0.39,8.97-0.32c39.9,1.01,79.82-1.64,119.73,1.73
		c24.46,2.07,49.11,0.24,73.74,1.68c22.81,1.34,45.77,2.52,68.69,2.51c11.64,0,23.04,3.05,34.72,2.33c0.85-0.05,1.99,0.42,1.66,3.21
		c-7.29,0.54-15.01,1.96-22.56,2.25c-22.56,0.88-45.16-0.03-67.74,2.05c-12.56,1.16-25.44-0.88-37.94,0.55
		c-19.48,2.22-39.03,2.16-58.52,3.41c-12.56,0.8-25.04,3.48-37.72,2.35c-0.65-0.06-1.34,0.08-1.97,0.27
		c-10.3,2.97-21.04,1.97-31.55,3.25c-9.14,1.12-18.44,2.04-27.65,2.89c-17.4,1.62-34.69,4.71-51.95,7.59
		c-10.47,1.74-20.7,4.64-30.73,8.18c-2,0.7-3.46,2.01-3.64,4.28c-0.2,2.52,1.73,3.41,3.54,4.23c1.19,0.54,2.5,0.92,3.8,1.11
		c9.81,1.39,19.61,3.48,29.47,3.88c17.58,0.7,35.15,0.93,52.74,1.88c22.19,1.2,44.51-1.04,66.71-1.22
		c34.93-0.28,69.79-2.9,104.71-2.48c1,0.01,2.02,0.07,2.99-0.11c19.01-3.5,38.35-2.07,57.51-3.55c14.51-1.12,29.04-3.62,43.71-2.41
		c0.65,0.05,1.34-0.07,1.98-0.22c12.68-2.85,25.69-2.37,38.52-3.38c10.22-0.81,20.41-2.2,30.69-2.77
		c16.13-0.89,32.21-3.26,48.2-5.75c6.71-1.05,14.21-0.75,21.21-6.71c-8.61-1.16-15.68-2.8-22.79-2.94
		c-23.58-0.47-47.19,0.4-70.73-2.09c-8.89-0.94-17.73-2.02-26.45-4.01c-1.28-0.29-2.7-0.48-3.74-1.18
		c-1.93-1.31-2.61-3.23-0.26-4.71c1.64-1.03,3.61-1.68,5.52-2.11c10.35-2.33,20.91-3.15,31.39-4.56c14.82-2,29.78-2.79,44.53-3.05
		c28.21-0.49,56.49-2.04,84.74,1.33c14.43,1.72,29.1,0.41,43.74,1.84c16.77,1.64,33.63,2.74,50.45,4.18
		c22.74,1.94,45.46,4.48,68.22,5.82c17.53,1.04,35.15,1.27,52.71,2.43c19.17-2.5,46.61-8.6,74.39-25.36
		c61.59-37.18,77.61-98.32,97.77-92.85c16.65,4.52,19.56,50.02,19.29,68.66c-0.35,24.82-6.7,29.29-8.44,59.42
		c-2.22,38.45,7.09,48.81,2.17,60.78c-7.93,19.3-48.73,32.81-185.22,13.12c-35.86,1.19-71.76-1.5-107.63,1.88
		c-19.45,1.83-39.09-0.39-58.7,1.92c-16.41,1.93-33.08,0.03-49.7,1.98c-15.41,1.81-31.09,0.1-46.7,2.05
		c-13.42,1.68-27.09,0.27-40.71,1.93c-14.74,1.8-29.75,0.18-44.7,2.04c-13.75,1.71-27.83,1.44-41.68,1.78
		c-23.57,0.57-47.05,3.46-70.66,2.63c-3.21-0.11-6.75-0.89-9.38,2.04c-3.89,2.7-8.33,1.88-12.61,1.88
		c-158.56,0.03-317.11,0.02-475.67,0.02c-446.69-0.01-893.38-0.01-1340.06-0.03c-3,0-5.99-0.12-8.99-0.18
		c-0.02-3.13-2.35-3.19-4.62-4.04c-4.45-1.66-9.9-0.76-13.73-4.88c7.51-3.14,15.25-3.78,22.67-4.56
		c18.45-1.93,36.63-5.31,54.83-8.62c4.48-0.81,9.22-1.42,13.3-3.9c1.41-0.85,2.97-1.71,2.82-3.7c-0.16-2.04-2-2.67-3.47-3.12
		c-3.79-1.16-7.67-2.05-11.54-2.92c-22.36-5.03-45.24-5.96-67.93-7.71c-18.47-1.42-37.14-1.81-55.67-1.98
		c-33.53-0.31-67.09-1.78-100.65,1.35c-21.78,2.03-43.74,0.32-65.69,1.73c-27.75,1.79-55.61,2.31-83.4,4.32
		c-13.66,0.99-27.08,2.96-41.58,4.93c3.96,2.19,7.02,3.3,10.42,3.21c24.58-0.62,49.05,0.71,73.42,4.05
		c9.18,1.26,18.34,2.61,27.01,6.08c1.86,0.74,3.62,2.05,3.23,4.45c-0.29,1.78-1.76,2.79-3.42,3.24
		c-10.21,2.72-16.36,4.09-16.36,4.09C6777.81,462.36,6763.74,464.14,6735.9,470.6z M8111.87,366.07c0.08-0.84-0.29-1.02-1.06-0.47
		c-0.07,0.05,0.12,0.47,0.19,0.72C8111.29,366.24,8111.58,366.16,8111.87,366.07z"/>
	<path fill="#6DAD1E" d="M9352.69,366.87c-17.56-1.16-35.18-1.39-52.71-2.43c-22.75-1.35-45.47-3.88-68.22-5.82
		c-16.82-1.44-33.68-2.54-50.45-4.18c-14.64-1.43-29.31-0.12-43.74-1.84c-28.25-3.37-56.53-1.82-84.74-1.33
		c-14.75,0.26-29.71,1.05-44.53,3.05c-10.48,1.41-21.04,2.22-31.39,4.56c-1.91,0.43-3.88,1.08-5.52,2.11
		c-2.35,1.48-1.67,3.39,0.26,4.71c1.04,0.7,2.46,0.89,3.74,1.18c8.71,2,17.56,3.07,26.45,4.01c23.53,2.48,47.14,1.62,70.73,2.09
		c7.1,0.14,14.17,1.78,22.79,2.94c-7,5.96-14.5,5.66-21.21,6.71c-15.99,2.49-32.07,4.87-48.2,5.75
		c-10.28,0.56-20.46,1.96-30.69,2.77c-12.83,1.01-25.84,0.53-38.52,3.38c-0.65,0.15-1.33,0.27-1.98,0.22
		c-14.67-1.21-29.2,1.29-43.71,2.41c-19.16,1.48-38.49,0.04-57.51,3.55c-0.97,0.18-1.99,0.12-2.99,0.11
		c-34.93-0.42-69.78,2.2-104.71,2.48c-22.2,0.18-44.53,2.42-66.71,1.22c-17.59-0.95-35.17-1.18-52.74-1.88
		c-9.86-0.39-19.65-2.49-29.47-3.88c-1.29-0.18-2.61-0.57-3.8-1.11c-1.81-0.82-3.74-1.71-3.54-4.23c0.18-2.27,1.64-3.57,3.64-4.28
		c10.03-3.53,20.26-6.44,30.73-8.18c17.27-2.88,34.55-5.97,51.95-7.59c9.21-0.86,18.51-1.78,27.65-2.89
		c10.5-1.28,21.25-0.28,31.55-3.25c0.63-0.18,1.33-0.32,1.97-0.27c12.68,1.13,25.16-1.55,37.72-2.35
		c19.49-1.25,39.04-1.19,58.52-3.41c12.5-1.42,25.38,0.61,37.94-0.55c22.58-2.08,45.17-1.17,67.74-2.05
		c7.55-0.29,15.27-1.71,22.56-2.25c0.34-2.78-0.81-3.26-1.66-3.21c-11.68,0.72-23.08-2.34-34.72-2.33
		c-22.92,0.01-45.88-1.17-68.69-2.51c-24.63-1.45-49.27,0.39-73.74-1.68c-39.92-3.37-79.83-0.72-119.73-1.73
		c-2.99-0.08-5.99,0.12-8.97,0.32c-0.5,0.03-0.94,0.76-2.27,1.9c5.85,3.14,11.85,0.72,17.22,1.93c5.62,1.27,11.37,1.9,17.19,3.25
		c-3.54,3.2-7.58,4.37-11.65,4.43c-7.66,0.11-15.28,1.87-22.73,1.8c-19.98-0.2-39.81,2.03-59.71,2.76
		c-25.59,0.94-51.27-0.04-76.7,2.04c-22.98,1.88-45.89,0.19-68.76,1.64c-45.22,2.86-90.55,0.08-135.7,2.28
		c-60.6,2.95-121.15,0.44-181.71,1.61c-1.33,0.03-2.67,0-4-0.01c-2.71-0.02-6.28,0.05-6.68-2.97c-0.57-4.29,3.64-2.51,5.85-3.12
		c2.29-0.63,4.45-1.33,6.84-4.73c-7.53-1.12-14.38-2.77-21.29-3.04c-29.89-1.17-59.83-1.42-89.71-2.4
		c-116.22-3.84-232.44-1.25-348.65-1.17c-30.51,0.02-61.23-0.25-91.69,1.92c-18.3,1.3-36.61-0.04-54.73,1.84
		c-15.29,1.58-30.59,0.55-45.74,1.98c-17.15,1.62-34.37,2-51.49,3.84c-3.57,0.38-7.04,1.63-11.66,2.74
		c5.99,5.33,13.03,2.69,18.85,4.8c5.71,2.07,12.34,1.57,17.63,5.68c-1.35,3.73-4.35,4.64-7.25,4.52c-12-0.52-23.7,2.42-35.74,2.32
		c-51.31-0.44-102.64,0.19-153.95-0.37c-20.17-0.22-40.32-2.5-60.47-3.92c-2.64-0.19-5.2-0.93-7.31-4.85
		c18.19-3.86,36.23-4.88,54.44-5.41c-0.77-4.15-3.11-3.36-4.88-3.58c-0.98-0.13-2-0.01-3-0.04c-104.54-2.78-209.1-1.93-313.65-2
		c-9-0.01-18.04-0.56-26.98,0.1c-52.87,3.85-105.85,0.14-158.69,2.35c-19.93,0.83-39.84,0.96-59.75,1.58
		c-1.58,0.05-3.36-0.33-4.49,1.39c-0.98,3.19,4.17,1.95,3.23,6.24c-9.09-0.67-18.16,2.4-27.67,2.34c-25.6-0.14-51.2,1.36-76.69,2.61
		c-22.62,1.11-45.26-0.36-67.74,1.57c-34.58,2.97-69.26-0.26-103.7,2.23c-29.97,2.17-59.85,1.13-89.75,1.42
		c-33.59,0.32-67.1,3.59-100.71,2.12c-3.56-0.16-7.3,0.94-12.66-2.27c14-2.96,26.86-3.39,39.43-7.3c-1.06-3.19-3.44-4.14-5.46-4.1
		c-5.74,0.13-11.21-2.31-16.73-2.09c-19.32,0.75-38.47-1.87-57.73-2.47c-82.56-2.54-165.12-1.77-247.68-1.45
		c-19.88,0.08-39.79,1.82-59.73,1.91c-6.73,0.03-13.45,1.8-22.27,3.08c10.76,6.29,21.56,3.74,31.32,7.99
		c-11.26,1.66-21.85,2.95-32.71,2.85c-32.65-0.3-65.36,1.04-97.96-0.41c-38.92-1.73-77.89-0.13-116.7-2.2
		c-24.96-1.33-49.95,0.45-74.72-1.82c-22.63-2.08-45.3,0.16-67.72-2.06c-18.98-1.88-37.97,0.08-56.73-1.92
		c-17.96-1.91-35.97-0.13-53.72-2.07c-14.98-1.63-29.89-0.63-44.76-1.75c-26.47-2-53-2.67-79.45-4.34
		c-14.95-0.95-29.88-0.55-44.76-1.61c-60.2-4.3-120.47-1.06-180.7-1.68c-15.81-0.16-31.64,2.49-47.46,3.94
		c-1.97,0.18-3.87,0.97-5.15,2.61c-0.23,1.71,0.88,2.73,2.14,2.74c8.97,0.11,17.77,1.95,26.66,2.78
		c19.26,1.79,38.59,0.46,57.72,2.11c10.74,0.93,21.65,0.85,32.19,1.96c0.36,2.64-0.62,3.39-2.1,3.42
		c-6.31,0.1-12.64,1.86-18.72,1.79c-14.68-0.17-29.12,2.43-43.73,2.4c-20.93-0.05-41.81,1.81-62.71,2.59
		c-13.89,0.52-27.93,0.04-41.73,1.62c-17.92,2.05-35.96,0.35-53.71,2.2c-14.99,1.56-30.08-0.38-44.72,1.96
		c-17.84,2.85-35.75,1.59-53.58,2.94c-22.31,1.69-44.98,2.45-67.5-2.64c-15.71-3.55-31.99-5.23-48.37-4.79
		c-18.65,0.5-37.34-0.43-55.97,0.26c-22.66,0.83-45.12-2.32-67.73-2.38c-9.49-0.02-18.97-2.51-28.46-3.89
		c-2.08-0.3-4.08-1.05-4.28-3.38c-0.22-2.56,2.23-3.29,3.98-3.73c6.73-1.71,13.49-4,20.35-4.43c15.54-0.99,30.86-3.72,46.44-4.59
		c15.46-0.87,30.81-3.87,46.19-6.05c1.94-0.28,3.9-1.05,5.63-2c2.63-1.44,1.8-3.66-0.17-4.49c-3.32-1.41-6.9-2.51-10.47-2.94
		c-19.7-2.35-39.31-5.18-59.15-6.68c-13.62-1.03-27.21-0.65-40.76-1.64c-58.87-4.3-117.81-0.69-176.7-1.92
		c-4.73-0.1-9.19,0.54-14.45,4.36c17.95,4.89,35.75,3.84,52.45,7.18c0.14,3.57-1.63,4.35-3.12,4.26
		c-11.68-0.76-23.24,1.45-34.69,2.62c-20.16,2.05-40.4,0.54-60.56,3.16c-13.77,1.79-28.02-0.49-41.93,0.6
		c-31.9,2.49-63.91,0.14-95.71,2.17c-46.27,2.96-92.52-0.1-138.72,1.79c-99.55,4.06-199.12,1.61-298.66,1.34
		c-36.53-0.1-73.22,0.21-109.69-1.96c-23.63-1.41-47.29,0.42-70.73-1.81c-28.95-2.76-57.95,0.4-86.72-2.06
		c-28.97-2.48-57.86-0.52-86.75-1.76c-9.79-0.42-19.49-2.47-29.46-3.01c4.17-4.71,9.81-1.57,14.33-3.24
		c4.87-1.8,9.81-1.47,14.78-1.67c5.29-0.21,10.19-2.69,17.89-1.83c-10.07-4.21-18.18-4.17-26.34-4.16
		c-74.98,0.05-149.97-0.91-224.93,0.4c-41.24,0.72-82.48,1.03-123.71,1.92c-10.8,0.23-21.67,2.07-33.04,1.57
		c1.35,3.14,3.49,2.16,4.95,2.06c20.32-1.38,40.44,2.71,60.73,2.16c5.62-0.15,10.97,2.6,16.73,2.14c1.35-0.11,2.59,0.7,2.84,2.25
		c0.33,2.08-0.97,2.85-2.74,3.36c-9.3,2.66-19.08,3.1-28.48,3.61c-12.58,0.68-25.1,2.21-37.7,2.74c-18.91,0.79-37.94,0.61-56.69,2.3
		c-19.33,1.74-38.62-0.16-57.75,1.69c-34.24,3.3-68.54,0.16-102.73,1.99c-74.22,3.96-148.47,1.32-222.69,1.33
		c-19.15,0-38.53-0.38-57.72-1.71c-21.82-1.5-43.72-2.18-65.45-4.19c-19.74-1.82-39.56-2.9-59.3-5.07
		c-11.42-1.26-23.19-1.64-34.64-2.92c-12.51-1.4-25.24-0.03-37.54-3.27c-0.95-0.25-1.99-0.35-2.97-0.28
		c-15,1.14-29.92-1.26-44.68-2.61c-14.5-1.32-29.26,0.54-43.54-3.3c-0.63-0.17-1.33-0.15-1.99-0.11
		c-20.31,1.19-40.47-1.79-60.71-2.48c-17.57-0.6-35.29-0.07-52.7-1.98c-14.66-1.61-29.26-0.3-43.76-1.72
		c-22.57-2.21-45.28-0.28-67.7-2.3c-18.32-1.65-36.56-0.39-54.76-1.63c-35.89-2.46-71.89-0.25-107.7-2.26
		c-57.26-3.21-114.49-1.16-171.72-1.21c-17.16-0.01-34.53,0.56-51.72,1.75c-34.96,2.43-70.02,4.88-104.08,13.95
		c-16.97,4.52-33.84,9.46-51.12,12.65c-12.34,2.27-24.83,3.7-37.26,5.43c-19.37,2.69-38.96,2.46-58.25,5.59
		c-0.65,0.11-1.33,0.12-1.99,0.14c-38.57,0.98-77.15,3.76-115.69,1.72c-19.38-1.03-38.84-3.09-58.06-6.82
		c-12.29-2.38-24.81-3.76-37.32-5.12c-20.47-2.23-41.02-2.53-61.47-4.11c-40.27-3.1-80.57-2.33-120.72-1
		c-29.6,0.98-59.2,1.62-88.73,0.95c-17.89-0.41-36.09,0.52-53.66-2.11c-19.38-2.9-37.53,0.81-56.08,3.92
		c-0.98,0.16-1.97,0.59-2.93,0.51c-13.34-1.01-26.47,1.72-39.72,2.37c-58.9,2.88-117.83,2.34-176.7,1.26
		c-71.92-1.32-62.77-2.02-87.7-1.99c-110.53,0.12-205.86,14.96-318.91-0.31c-18.03-2.43-47.06-7.06-54.99-26.05
		c-10.03-24.03,19.63-56.88,23.16-60.78c64.01-70.88,262.51,1.88,298.99,15.66c7.25-0.03,18.81-0.26,32.99,0.05
		c26.91,0.58,53.82,3.62,80.71,1.81c53.55-3.61,107.2,0.21,160.68-2.34c27.95-1.33,55.94,0.49,83.71-1.88
		c22.3-1.91,44.63,0.16,66.72-2c17.98-1.76,35.99,0.09,53.73-1.95c20.3-2.33,40.55-0.59,60.76-1.77
		c73.54-4.3,147.13-0.7,220.68-1.86c2.16-0.03,4.67-0.83,7.32,2.63c-23.67,4.27-47.2,2.91-70.22,6.26c0.5,3.59,2.88,2.87,4.64,3.01
		c24.54,1.86,49.21,0.86,73.7,2.37c54.25,3.33,108.49,0.59,162.72,1.61c6.14,0.12,11.92-0.12,18.17-3c6.55-3.02,14.93-3,22.47-2.77
		c33.62,1,67.1-3.26,100.72-2.25c16.98,0.51,34.01,0.66,50.98-0.01c102.87-4.07,205.78-2.11,308.65-1.34
		c48.22,0.36,96.54-0.54,144.68,1.91c35.29,1.8,70.59-0.61,105.72,1.84c39.61,2.77,79.24-0.41,118.7,2.12
		c24.3,1.56,48.51,0.82,72.75,1.5c3.07,0.09,6.46,0.91,9.2-3.22c-44.45-3.06-88.9-6.11-133.34-9.17c0.15-4.13,2.64-3.37,4.41-3.48
		c2.66-0.16,5.33-0.06,7.99-0.06c98.3,0,196.64-1.69,294.9,0.52c84.25,1.9,168.49-0.81,252.67,1.77
		c110.56,3.38,221.11,0.47,331.65,1.7c43.85-4.11,87.89,0.27,131.68-2.42c34.63-2.13,69.25,0.55,103.72-1.86
		c39.93-2.79,79.89,0.25,119.71-1.96c64.57-3.58,129.14-1.14,193.7-1.31c16.15-0.04,32.51,0.7,48.71,1.87
		c7.9,0.57,15.77,1.89,23.76,1.71c3.43-0.08,6.43,1.28,10.08,3.06c-10.33,4.78-21.69,2.21-33.37,7.06c6.42,2.28,11.34,3.7,16.4,3.78
		c23.92,0.35,47.75,2.7,71.73,2.3c20.93-0.35,41.75-2.59,62.72-2.61c12.75-0.01,25.62-2.6,38.46-3.78c2.54-0.23,5.16-0.99,6.63-4.84
		c-18.7-4.9-37.59-3.45-56.09-5.48c-18.63-2.05-37.38,0.08-55.59-2.06c-0.47-2.69,0.72-3.17,1.54-3.13
		c15.32,0.83,30.42-2.37,45.72-2.35c91.97,0.13,183.96-1.11,275.9,0.58c43.91,0.81,87.84,0.19,131.7,1.85
		c12.89,0.49,25.81,1.45,38.75,1.66c2.39,0.04,4.58,0.64,7.27,3.17c-28.71,5.9-57.57,5.76-85.54,12.52
		c6.63,2.74,13.53,4.16,20.47,4.17c26.93,0.03,53.87,1.36,80.69,2.69c29.29,1.45,58.59-0.43,87.72,1.77
		c17.96,1.36,35.83,1.46,53.76,1.57c19.59,0.12,39.07-2.99,58.73-2.12c5.52,0.24,10.99-2.33,16.72-2.08
		c1.71,0.07,3.38-1.14,3.72-2.83c0.52-2.58-1.81-3.52-3.6-3.98c-5.76-1.49-11.77-1.75-17.63-2.59c-6.83-0.98-13.95-2.03-20.69-1.93
		c-17.01,0.27-33.76-2.87-50.74-2.46c-18.27,0.45-36.4-3.01-54.73-2.11c-4.43,0.22-8.97-1.55-13.43-2.96
		c10.82-0.09,21.29-2.58,32.08-3.08c53.89-2.49,107.8-1.7,161.7-1.75c44.24-0.04,88.52,0.97,132.68,2.58
		c52.61,1.91,105.17,1.26,157.71,0.87c21.18-0.16,42.48-1.22,63.73-1.35c3.12-0.02,8.57-2.4,8.98,2.98c0.33,4.41-5.2,2.93-7.99,4.01
		c-6.58,2.53-14.1,2.37-21.11,6.93c3.4,2.48,6.53,3.97,9.66,3.74c11.71-0.87,23.09,2.37,34.74,2.28c29.66-0.23,59.33-0.61,88.97,0.1
		c22.99,0.55,45.82-1.77,68.71-2.58c7.4-0.26,15.93,0.26,23.41-4.87c-2.33-3.51-5.74-4.16-8.73-4.46
		c-12.83-1.28-25.6-3.15-38.41-4.56c-18.4-2.02-37.02-1.86-55.26-5.46c-4.57-0.9-9.6,0.88-14.84-1.84c2.87-3.03,5.61-2.25,8.05-2.37
		c59.21-2.79,118.51-3.62,177.67-1.54c62.6,2.2,125.21-0.89,187.69,1.96c47.61,2.17,95.21-0.49,142.7,1.96
		c23.61,1.22,47.25,0.08,70.71,1.99c13.48,1.09,27.17,0.6,40.51,3.59c1.98,0.44,3.92,0.82,5.6,1.92c3.01,1.97,3.18,4.31,0.03,6.13
		c-4.32,2.49-8.89,4.55-13.3,6.9c-1.38,0.74-3.36,1.22-3.3,3.28c0.06,2.44,2.06,3.14,4,3.76c1.9,0.6,3.82,1.78,5.7,1.71
		c7.7-0.27,15.14,1.79,22.73,2.26c42.87,2.68,85.79,1.97,128.7,2.04c7.93,0.01,15.86,0,23.8-0.67c-42.2-4.63-84.8-4.52-128.2-11.83
		c3.57-4.31,7.1-5.18,10.48-5.32c5.34-0.21,10.64-1.83,15.73-1.78c12.02,0.11,23.96-1.49,35.68-2.87
		c15.85-1.87,31.92,0.52,47.55-3.3c0.95-0.23,1.99-0.22,2.98-0.18c25.62,1.06,51.15-1.71,76.71-2.49
		c28.92-0.89,57.89-0.12,86.72-1.81c61.57-3.61,123.15-0.54,184.7-1.66c2.12-0.04,4.68-0.93,6.89,2.42
		c-13.35,3.3-26.68,3.72-39.7,3.73c-0.16,3.07,0.9,3.56,1.78,3.51c12.01-0.73,23.72,2.35,35.72,2.43
		c33.24,0.24,66.55,0.77,99.69,2.4c40.62,2,81.21-0.37,121.72,1.67c31.92,1.6,63.81,1.68,95.73,1.7c3.46,0,7.19,1.01,11.26-1.58
		c-3.51-4.29-9.4-0.41-12.9-4.56c2.86-2.54,5.93-1.68,8.68-1.76c29.9-0.89,59.89-0.95,89.69-2.58c32.96-1.8,65.91,0.46,98.73-1.65
		c55.9-3.61,111.83-0.09,167.7-1.92c126.87-4.15,253.76-0.62,380.63-1.87c17.62,4.12,35.76,0.22,53.52,3.64
		c6.97,1.35,14.35,0.64,21.01,3.29c0.35,4.1-4.23,3.34-4.77,6.15c0.46,0.28,1,0.89,1.37,0.81c10.69-2.52,21.75-1.23,32.54-3.37
		c8.39-1.67,17.17-1.55,25.71-2.09c11.57-0.73,23.26-1.67,34.64-3.04c11.84-1.42,24.01,0.64,35.56-3.3c0.6-0.21,1.33-0.12,1.99-0.09
		c16.97,0.76,33.88-1.31,50.7-2.43c48.92-3.24,97.83-1.19,146.73-1.24c19.43-0.02,39.11,0.39,58.47,3.54c0.65,0.11,1.33,0.06,2,0.08
		c37.56,1.52,75.14,3.2,112.69,1.63c10.4-0.44,21.13-0.65,31.55-3.12c7.04-1.67,14.45-1.17,21.72-2.1
		c26.76-3.4,53.8-3.38,80.66-2.06c21.82,1.07,43.64,2.7,65.47,3.95c20.82,1.19,41.64,2.69,62.47,4c23.49,1.48,47.01,2.45,70.45,4.16
		c17.63,1.29,35.32-0.17,52.73,1.86c24.95,2.91,49.91,0.05,74.74,1.87c39.57,2.9,79.18,2.47,118.71,1.42
		c28.58-0.76,57.25-0.05,85.69-2.18c14.32-1.08,29.28,1.33,43.28-4.8c-15.81-3.03-31.74-4.89-47.93-5.22
		c2.51-2.05,5.38-1.34,8.05-1.34c70.98-0.05,141.98-1.23,212.92,0.49c33.92,0.82,67.92-0.55,101.7,1.91
		c23.64,1.72,47.28-0.32,70.72,1.89c19.96,1.88,39.96,0.04,59.72,2.04c15.97,1.61,31.9,0.56,47.75,1.79
		c22.48,1.75,45,2.62,67.45,4.3c12.95,0.97,26,0,38.73,1.82c16.95,2.42,33.91,0.5,50.76,1.85c49.88,4.01,99.81,1.29,149.71,1.74
		c62.97,0.56,125.96,0,188.94,0.25c10.99,0.04,21.66-3.42,32.67-2.14c19.51,2.15,49.42,3.93,85.31-0.44
		c61.24-7.45,91.53-26.9,104.2-13.03c11.62,12.73,2.13,46.6-17.37,65.13c-7.37,7-21.54,16.92-91.18,19.54
		C9399.71,369.33,9371.72,368.16,9352.69,366.87z M8645.13,346.35c0.27-0.14,0.54-0.29,0.8-0.43c-0.23-0.19-0.46-0.51-0.7-0.53
		c-0.25-0.02-0.53,0.25-0.8,0.4C8644.67,345.97,8644.9,346.16,8645.13,346.35z"/>
	<path fill="#7FA414" d="M349.51,450.78c36.66,0.01,73.35-0.97,109.95,0.43c20.59,0.79,41.26,0.27,61.74,1.98
		c13.96,1.17,27.9,0.66,41.77,1.76c24.81,1.96,49.74,2.27,74.49,4.25c31.97,2.57,63.88,1.65,95.76,1.13
		c16.72-0.28,33.58-2.68,50.33-4.84c16.12-2.08,31.06-6.48,45.51-13.46c6.65-3.21,14-4.24,21.2-5.06
		c8.54-0.97,17.25-1.46,25.68-2.62c16.65-2.3,33.22-1.4,49.8-1.43c19.92-0.03,39.82,1.67,59.73,2.38
		c11.82,0.42,23.76,1.02,35.56,1.62c0.27,1.06-0.09,1.4-0.76,1.75c-3.1,1.61-8.18,1.76-8.02,6.24c0.16,4.76,4.99,5.67,8.82,6.7
		c12.8,3.47,25.83,5.67,39,7.23c20.77,2.46,41.69,2.78,62.48,4.4c34.96,2.73,69.88,1.63,104.76,1.03
		c20.12-0.35,40.47-1.15,60.49-3.76c18.95-2.47,38.34-3.35,56.35-10.96c1.47-0.62,3.25-0.66,4.89-0.74
		c50.55-2.48,101.17-2.99,151.71-1.49c18.91,0.56,37.85,0.89,56.77,1.44c7.25,0.21,14.27,3.66,21.99,1.26
		c-0.34-3.81-3.96-3.92-6.36-4.91c-7.36-3.05-15.05-5.32-21.9-9.52c-1.38-0.84-3.04-2.03-2.76-3.85c0.36-2.4,2.55-2.76,4.57-2.88
		c10.25-0.64,20.41-2.08,30.74-2.29c18.58-0.38,37.18-3.13,55.74-1.55c23.25,1.98,46.55,0.74,69.75,2.08
		c22.5,1.3,45.02,2.49,67.51,3.97c18.17,1.19,36.28,3.41,54.51,3.97c0.83,0.03,1.64,0.73,3.16,1.45c-2.94,3.27-6.38,2.18-9.33,2.24
		c-23.58,0.49-46.86,3.57-69.95,8.11c-3.87,0.76-7.62,2.27-11.34,3.66c-2.59,0.97-4.84,2.54-4.46,5.82c0.32,2.71,2.43,3.61,4.73,4.5
		c7.78,3.03,15.93,4.55,24.1,5.9c2.54,0.42,4.62,0.77,4.71,3.88c-3.43,0.01-9.45,0.03-13,0.05
		c-869.25,3.55-1303.88,5.32-1410.44,32.63c-0.95,0.24-125.53,32.17-258.47-4.96c-16.11-4.5-44.82-12.69-44.28-21.02
		C48.01,458.05,204.53,452.34,349.51,450.78z"/>
	<path fill="#5C871A" d="M443.36,99.14c-1.04-0.17-2.97,0.24-2.5-1.31c0.3-0.98,2.27-0.74,3.17,0.61
		C444.03,98.43,443.36,99.14,443.36,99.14z"/>
	<path fill="#5C871A" d="M2209.05,84.96c-0.84-0.26-1.67-0.53-2.51-0.79c0.41-0.23,0.83-0.68,1.22-0.65
		c0.92,0.05,1.83,0.33,1.12,1.61C2208.87,85.12,2209.05,84.96,2209.05,84.96z"/>
	<path fill="#5C871A" d="M2435.05,80.9c-0.83-0.2-1.66-0.4-2.5-0.6c0.21-0.21,0.41-0.58,0.64-0.6c0.98-0.09,1.84,0.08,1.68,1.4
		C2434.87,81.1,2435.05,80.9,2435.05,80.9z"/>
	<polygon fill="#5C871A" points="6841.36,162.06 6840.58,162.27 6840.64,161.7 	"/>
	<path fill="#8E5102" d="M6448.74,926.57c17.56-1.26,34.51,2.34,50.53,10.55c3.63,1.86,6.72,4.26,9.4,7.24
		c7.48,8.31,7.06,18.07-1.37,25.42c-4.25,3.71-8.93,7.09-14.29,8.91c-31.81,10.8-63.48,12.23-94.8-2.04
		c-4.64-2.11-8.52-5.06-11.95-8.76c-6.38-6.87-6.37-16.09,0.06-22.96c7.04-7.53,16.09-11.56,25.68-14.44
		c5.68-1.7,11.53-3.18,17.4-3.79C6435.65,926.07,6442.02,926.57,6448.74,926.57z"/>
	<path fill="#8E5102" d="M816.62,918.46c11.96-0.32,23.73,0.09,35.43,3.6c7.46,2.24,14.87,4.95,20.64,9.53
		c14.31,11.34,13.99,22.91-3.45,34.78c-7.76,5.28-16.83,7.95-25.96,9.68c-20.42,3.88-40.85,3.55-61-1.84
		c-8.99-2.4-17.36-6.09-24.66-12.37c-13.7-11.78-6.52-25.24,4.46-31.62c13.41-7.79,27.85-12.22,43.56-11.78
		C809.3,918.55,812.96,918.46,816.62,918.46z"/>
	<path fill="#8E5102" d="M7684.72,946.66c-18.06-3.31-36.89-2.98-53.18-13.99c-17.51-11.84-12.9-26.96,1.8-35.02
		c13.6-7.45,28.22-11.22,43.87-11.23c14.3-0.01,28.6-0.4,42.4,4.11c8.87,2.9,17.54,6.36,24.17,13.32
		c7.74,8.12,7.45,15.25,0.04,23.35c-10.9,11.91-25.5,15.1-40.35,16.98C7697.28,944.97,7691.04,945.83,7684.72,946.66z"/>
	<path fill="#8E5102" d="M1222.12,870.61c13.09-1.12,25.98,1.45,38.57,5.98c6.01,2.16,11.53,5.06,15.72,10.08
		c5.27,6.31,5.14,13.25-0.05,19.71c-8.07,10.06-19.76,13.39-31.37,15.47c-8.98,1.61-18.2,3.7-27.58,2.61
		c-14.82-1.72-29.52-3.74-42.82-11.3c-3.87-2.2-7.13-4.85-9.29-8.71c-3.53-6.29-2.73-11.78,2.15-17.17
		c7.46-8.25,17.25-12.06,27.65-14.72C1203.86,870.33,1212.79,870.13,1222.12,870.61z"/>
	<path fill="#8E5102" d="M4207.93,892.49c12.89-1.02,27.36,1.56,41.27,7.85c6.06,2.74,10.05,7.59,13.91,12.45
		c3.16,3.98,1.4,11.53-2.7,16.61c-3.94,4.89-9.51,7.4-15.05,9.42c-28.96,10.56-57.65,10.64-85.51-3.77
		c-5.9-3.05-10.97-6.91-11.57-14.86c-0.69-9.18,3.96-14.54,11.22-18.07c11.37-5.54,23.2-9.81,36.16-9.63
		C4198.99,892.52,4202.31,892.49,4207.93,892.49z"/>
	<path fill="#8E5102" d="M4865.21,1000.58c-16.59-0.07-29.41-2.8-40.85-10.19c-8.84-5.72-8.71-15.81-0.21-21.91
		c8.94-6.42,19.5-8.31,29.87-9.72c12.2-1.67,24.48-0.12,36.23,3.96c6.02,2.09,11.49,5.22,15.55,10.35c3.35,4.24,3.43,8.42,0.1,12.61
		c-4.27,5.39-9.99,8.73-16.46,10.66C4880.54,998.98,4871.55,1001.22,4865.21,1000.58z"/>
	<path fill="#8E5102" d="M579.33,886.48c-7.51,0.79-16.3-0.38-24.74-3.95c-1.83-0.77-3.8-1.29-5.5-2.29
		c-10.59-6.18-10.71-17.84,0.21-23.46c7.01-3.6,14.54-6.59,22.79-6.28c10.57,0.39,21.25-1.24,31.67,1.98
		c5.14,1.59,10.04,3.5,13.94,7.33c5.41,5.32,5.49,12.33-0.15,17.46c-6.93,6.3-15.61,8.47-24.68,9.16
		C588.9,886.74,584.89,886.48,579.33,886.48z"/>
	<path fill="#8E5102" d="M3966.62,1036.38c-5.76-0.32-13.83-2.09-21.65-4.9c-2.13-0.76-4.21-2.11-5.85-3.68
		c-5.69-5.42-5.3-9.23,0.03-15.18c5.16-5.76,12.18-7.28,18.87-7.83c10.17-0.83,20.56-1.54,30.69,1.54c2.91,0.88,5.7,1.8,8.12,3.61
		c10.74,8,9.83,15.95-2.42,21.43C3989.65,1033.51,3975.05,1036.41,3966.62,1036.38z"/>
	<path fill="#8E5102" d="M5864.47,1004.42c5.38-0.39,11.94,0.15,18.41,2.05c3.6,1.05,6.71,2.7,9.45,5.27
		c7.07,6.63,6.76,13.85-1.9,18.2c-10.83,5.43-22.61,7.72-34.78,5.95c-5.21-0.76-10.33-2.3-15.42-3.7c-3.93-1.08-7.19-3.37-9.88-6.47
		c-3.12-3.61-2.9-6.94,0-10.71c6.09-7.9,14.81-9.54,23.83-10.53C5857.14,1004.14,5860.17,1004.42,5864.47,1004.42z"/>
	<path fill="#8E5102" d="M6562.93,1008.41c-8.94,0.61-18.32-1.03-26.9-5.96c-7.82-4.49-8.17-10.11-2.38-17.03
		c9.96-11.9,50.29-11.88,60.24-0.03c5.81,6.92,5.41,12.44-2.29,17.08C6584.71,1006.61,6576.32,1008.41,6562.93,1008.41z"/>
	<path fill="#8E5102" d="M8276.53,830.56c9.89-0.48,18.95,1.34,27.13,6.22c10.2,6.08,10.21,13.67-0.22,19.53
		c-11.41,6.41-24.01,7.38-36.68,5.55c-6.47-0.93-13.08-2.12-18.74-6.07c-8.87-6.18-8.97-12.85,0.27-18.62
		C8256.99,831.75,8266.72,829.9,8276.53,830.56z"/>
	<path fill="#8E5102" d="M8142.85,974.54c10.44-0.72,19.8,0.94,28.33,5.89c9.67,5.61,9.99,15.07,0.16,19.78
		c-16.87,8.09-34.36,8.69-51.74,1.25c-4.88-2.09-10.36-5.07-9.91-11.11c0.48-6.38,5.69-9.9,11.52-12.19
		C8128.41,975.35,8135.71,973.52,8142.85,974.54z"/>
	<path fill="#8E5102" d="M7106.77,948.39c-9.99,0.55-18.69-1.86-27.28-5.88c-7.71-3.61-8.08-16.56,0.16-20.07
		c17.2-7.32,34.47-8.54,51.83-0.96c4.87,2.12,10.38,5.11,9.77,11.19c-0.63,6.3-5.69,10.06-11.69,12.05
		C7122,947.23,7114.35,949.25,7106.77,948.39z"/>
	<path fill="#8E5102" d="M446.11,982.33c-5.33-0.43-14.05-0.68-20.84-7.16c-4.85-4.63-4.62-6.65-0.02-11.56
		c4.53-4.84,10.69-4.73,16.36-6.22c9.06-2.38,17.72-0.47,26.29,2.36c2.92,0.96,5.17,3,7.1,5.31c3.82,4.56,3.3,8.43-1.83,11.42
		C465.86,980.73,457.88,982.69,446.11,982.33z"/>
	<path fill="#8E5102" d="M3418.04,876.41c-6.5,0.92-12.88-1.03-19.15-2.99c-3.81-1.19-7.35-3.41-8.05-7.95
		c-0.73-4.73,2.9-7.07,5.82-9.7c4.53-4.08,10.62-3.72,15.94-4.67c9.97-1.79,19.77,0.65,28.5,5.79c6.37,3.75,6.45,8.79,0.61,13.39
		C3434.87,875.67,3426.81,877.05,3418.04,876.41z"/>
	<path fill="#8E5102" d="M993.3,870.51c6.47-0.66,13.23,1.02,19.29,4.8c8.55,5.33,8.6,11.68-0.35,16.45
		c-7.67,4.09-16.38,5.34-25.09,4.55c-4.57-0.41-9.22-1.37-13.54-2.92c-4.73-1.69-9.82-4.59-9.76-10.11c0.06-4.96,4.8-7.87,9.24-9.46
		c4.64-1.66,9.41-3.24,14.46-3.31C989.22,870.49,990.88,870.51,993.3,870.51z"/>
	<path fill="#8E5102" d="M1418.26,936.33c-7.47,0.85-14.65-0.39-21.19-4.06c-3.37-1.89-7.52-4.17-7.02-8.76
		c0.45-4.19,3.78-6.77,7.8-8.32c12.14-4.69,24.37-5.14,36.79-1.19c2.24,0.71,4.34,1.44,6.17,3.05c6.19,5.46,5.86,11.15-1.32,15.17
		C1432.94,935.89,1425.78,937.18,1418.26,936.33z"/>
	<path fill="#8E5102" d="M2837.31,942.44c-5.59-0.18-11.19,0.53-16.7-1.63c-2.92-1.15-5.32-2.63-7.28-4.92
		c-3.69-4.31-3.27-8.36,1.26-11.93c1.28-1.01,2.77-1.88,4.31-2.44c12.6-4.61,25.27-4.7,37.82,0.03c4.08,1.54,8.1,3.82,7.92,9.07
		c-0.17,4.94-3.88,7.59-7.79,9.48C2850.69,943.08,2843.95,942.62,2837.31,942.44z"/>
	<path fill="#492A00" d="M8688,984.34c-15.39,0.9-29.55-2.01-42.78-8.95c-6.97-3.66-13.7-8.61-13.62-17.04
		c0.08-8.39,6.63-13.67,13.82-16.89c18.59-8.32,38.03-11.05,58.29-7.88c7.24,1.13,14.36,2.46,21.22,5.05
		c5.98,2.26,11.47,5.24,15.68,10.26c5.98,7.12,5.98,12.32-0.34,19.4c-2.67,2.99-5.67,5.52-9.36,7.34
		C8717.21,982.41,8702.77,985.34,8688,984.34z"/>
	<path fill="#492A00" d="M8946.74,1040.39c14.32-0.98,29.47,1.88,43.47,9.66c6.62,3.68,12.01,8.33,10.94,17.2
		c-0.69,5.68-2.86,10.25-7.95,12.99c-19.9,10.72-40.92,14.66-63.37,10.69c-6.54-1.16-13-2.47-19.32-4.48
		c-6.1-1.94-11.51-4.9-16.02-9.64c-7.55-7.95-7.21-17.43,1.52-23.73c11.05-7.98,23.79-11.4,37.16-12.63
		C8937.12,1040.08,8941.14,1040.39,8946.74,1040.39z"/>
	<path fill="#492A00" d="M2741.6,1052.55c16.79-0.96,31.65,1.25,45.46,8.9c4.51,2.5,8.37,5.49,10.35,10.31
		c2.3,5.57,2.12,10.51-2.32,15.56c-7.77,8.83-18.21,12.48-28.84,14.44c-7.98,1.48-16.18,3.35-24.6,2.67
		c-11.89-0.97-23.7-2.12-34.95-6.36c-5.97-2.25-11.26-5.51-15.59-10.36c-6.16-6.89-6.15-14.4,0.4-20.97
		c5.32-5.33,12-8.22,19.04-10.29C2721.09,1053.34,2731.77,1051.06,2741.6,1052.55z"/>
	<path fill="#492A00" d="M7171.52,1084.23c-11.81,1.71-23.9-1.85-35.82-6.15c-4.67-1.68-9.15-3.81-12.84-7.42
		c-8.12-7.95-7.19-20.62,2.7-26.1c19.76-10.97,40.86-14.55,63.34-10.85c6.91,1.14,13.65,2.49,20.22,4.81
		c6.03,2.13,11.36,5.27,15.77,10.08c6.88,7.49,6.16,16.79-2.09,23.08c-7.57,5.77-16.41,8.42-25.46,10.7
		C7189.2,1084.42,7180.96,1084.63,7171.52,1084.23z"/>
	<path fill="#492A00" d="M8368.69,1088.61c-11.54-2.14-22.87-2.56-33.27-7.27c-1.79-0.81-3.56-1.82-5.08-3.06
		c-9.07-7.38-9.26-14.99,0.12-21.88c18.81-13.82,56.58-13.82,75.41-0.16c9.74,7.06,9.14,15.45-0.86,22.25
		c-1.91,1.3-3.78,2.82-5.91,3.6C8389.13,1085.75,8378.54,1086.57,8368.69,1088.61z"/>
	<path fill="#492A00" d="M3219.07,972.28c11.47,0.21,20.71,2.69,29.38,7.07c9.89,5,10.49,10.91,2.07,18.18
		c-1.73,1.5-3.7,2.92-5.8,3.76c-17.52,6.97-34.8,6.4-51.89-1.74c-4.65-2.22-7.58-5.59-7.91-10.57c-0.36-5.45,3.8-8.38,7.93-10.47
		C3201.57,974.11,3211.18,973.23,3219.07,972.28z"/>
	<path fill="#492A00" d="M6961.07,1088.42c-5.87,0.78-11.27-1.38-16.61-2.94c-4.83-1.41-9.94-4.45-10.24-9.78
		c-0.31-5.54,4.86-8.57,9.59-10.18c9.18-3.12,18.6-4.58,28.33-2c5.16,1.37,10.35,2.25,14.21,6.51c4.17,4.61,4.28,6.38-0.25,10.86
		C6979.1,1087.84,6969.94,1087.72,6961.07,1088.42z"/>
	<path fill="#492A00" d="M3107.84,1108.72c-5.62-1.15-11.45-2.16-17.19-3.58c-3.3-0.82-5.79-3.24-7.85-5.87
		c-3.28-4.18-2.73-8.11,1.88-10.78c14.67-8.49,32.3-8.13,46.35,0.13c4.57,2.69,4.91,6.57,1.47,10.85c-2.1,2.62-4.64,4.96-7.92,5.78
		C3119.16,1106.62,3113.64,1107.55,3107.84,1108.72z"/>
	<path fill="#492A00" d="M1488.48,1070.53c6.26-0.71,11.9-0.12,17.06,2.34c3.57,1.71,7.27,4.25,7.26,8.67
		c-0.02,4.12-3.75,5.93-7.11,7.5c-10.85,5.08-21.98,4.2-32.88,0.64c-3.99-1.3-7.53-4.53-7.44-9.59c0.08-5.13,4.45-6.09,8.08-7.53
		C1478.43,1070.59,1483.63,1069.67,1488.48,1070.53z"/>
	<path fill="#A37911" d="M2532.55,812.41c-12.49,1.01-24.34-1.7-36.1-5.61c-5.21-1.73-9.41-4.89-13.8-7.8
		c-6.39-4.22-8.74-18.64-0.85-24.6c4.33-3.27,8.75-6.35,13.7-7.94c27.03-8.66,53.99-9.8,80.35,2.62c7.44,3.5,14.63,8.64,14.6,17.39
		c-0.03,9.21-7.51,14.45-15.36,17.9C2561.58,810.32,2547.45,813.62,2532.55,812.41z"/>
	<path fill="#A37911" d="M4997.8,912.47c-10.93,1.18-22.67-1.5-33.54-7.99c-8.2-4.9-10.76-10.96-7.84-17.85
		c1.1-2.6,2.85-4.5,5.21-5.78c15.53-8.41,31.75-12.36,49.58-9.11c9.48,1.73,18.8,3.27,27.03,8.72c2.87,1.9,5.02,4.16,6.55,7.24
		c2.03,4.08,1.39,7.28-1.54,10.86c-8.31,10.15-19.89,12.41-31.83,13.84C5007.5,912.86,5003.47,912.47,4997.8,912.47z"/>
	<path fill="#A37911" d="M4650.48,830.52c-13.17,0.26-25.76-1.95-36.95-9.35c-9.06-5.99-9.54-13.76-1.69-21.18
		c3.98-3.76,8.8-5.92,13.89-7.54c17.28-5.52,34.58-5.37,51.8,0.19c5.4,1.74,10.42,4.25,14.45,8.53c6.21,6.6,5.51,13.66-1.71,19.42
		c-9.07,7.23-19.98,8.41-30.81,9.87C4656.52,830.86,4653.48,830.52,4650.48,830.52z"/>
	<path fill="#A37911" d="M5706.7,820.57c13.79-0.42,25.91,1.96,36.6,9.61c8.31,5.95,8.66,11.48,1.57,18.56
		c-3.41,3.4-7.49,5.8-11.86,7.03c-12.03,3.37-24.01,6.38-36.93,3.4c-7.09-1.64-14.35-2.3-20.74-6.05c-5.13-3.02-11-6.21-11-12.9
		c0-7.06,5.31-10.97,11.46-13.58C5685.98,822.3,5696.46,819.62,5706.7,820.57z"/>
	<path fill="#A37911" d="M8413,774.56c-11.56,0.6-22.41-2.13-32.52-7.49c-11.85-6.28-12.48-17.04-1.04-23.66
		c12.92-7.47,27.24-10.39,42.05-8.25c7.75,1.12,15.72,2.04,22.92,5.91c5.77,3.1,11.98,6.77,11.89,13.47
		c-0.1,7-6.18,11.6-12.31,14.46c-8.16,3.79-17.02,5.19-26,5.56C8416.33,774.62,8414.67,774.56,8413,774.56z"/>
	<path fill="#A37911" d="M6542.16,786.55c-12.91,0.4-25.06-2.01-35.76-9.7c-7.74-5.56-8.28-11.1-1.73-18.11
		c4.99-5.34,11.6-7.21,18.46-9.01c14.45-3.77,28.69-3.77,42.94,0.65c4.79,1.49,9.35,3.46,13.21,6.75c8.85,7.54,8.32,15.69-1.7,21.42
		c-8.45,4.83-17.73,7.31-27.45,7.97C6547.49,786.71,6544.82,786.55,6542.16,786.55z"/>
	<path fill="#A37911" d="M6919.6,780.49c-8.97,0.78-17.67-1.31-26.29-3.81c-2.22-0.64-4.63-1.31-6.39-2.67
		c-4.67-3.61-9.82-6.94-9.3-14.23c0.49-6.76,4.99-10.18,10.3-12.17c13.35-5,26.76-9,41.58-5.66c8.75,1.97,17.62,2.94,25.22,8.15
		c9.56,6.55,9.47,16.37-0.64,22.13C6943.54,778.23,6932.03,781.28,6919.6,780.49z"/>
	<path fill="#A37911" d="M6071.26,886.3c-10.27,0.83-19.74-0.03-28.85-3.88c-6.63-2.81-13.07-6.24-14.24-13.86
		c-1.36-8.85,6.84-11.47,12.46-14.96c3.79-2.35,8.7-3.39,13.24-3.93c17.21-2.04,34.35-3.24,50.36,5.94
		c12.05,6.91,12.42,15.55,0.77,23.41C6094.52,886.07,6082.88,887.41,6071.26,886.3z"/>
	<path fill="#A37911" d="M7333.67,804.54c-7.98,1.06-16.91-1.33-25.8-4.12c-4.61-1.45-8.19-4.3-11.27-7.87
		c-4.97-5.75-4.23-12.65,1.68-17.25c5.91-4.6,12.88-7.44,19.97-8.28c13.36-1.59,26.92-2.13,40.15,1.66
		c5.83,1.67,11.04,4.38,15.22,8.94c5.52,6.01,5.45,10.16-0.37,16.23c-7.7,8.03-18.07,9.05-28.16,10.62
		C7341.87,804.96,7338.48,804.54,7333.67,804.54z"/>
	<path fill="#A37911" d="M2786.89,720.57c-11.38,0.81-22.51-2.03-32.94-7.51c-8.84-4.64-9.91-12.19-3.19-19.39
		c2.52-2.7,5.25-5.14,8.8-6.31c19.14-6.32,38.2-7.21,57.04,1.17c1.51,0.67,3.03,1.37,4.44,2.24c9.87,6.12,9.78,15.98-0.43,21.83
		C2812.81,717.08,2804.95,721.46,2786.89,720.57z"/>
	<path fill="#A37911" d="M2296.65,882.42c12.23,0.15,22.5,0.55,30.29,9.02c4.17,4.54,4.45,6.48,0.71,11.06
		c-1.23,1.51-2.79,3.03-4.53,3.8c-15.14,6.68-30.5,7.8-46.01,1.24c-2.46-1.04-4.66-2.5-6.55-4.45c-5.13-5.27-4.9-10.04,1.36-13.9
		C2280,884.2,2288.75,881.25,2296.65,882.42z"/>
	<path fill="#A37911" d="M2671.17,858.51c-6.94,0.89-14.58-0.91-21.84-4.73c-3.3-1.74-6.46-3.27-6.5-7.88
		c-0.04-4.69,2.38-7.42,6.15-9.4c9.04-4.76,18.8-6.78,28.83-5.62c5.84,0.67,11.56,2.9,17.18,4.87c3.82,1.34,7.31,3.59,7.72,8.26
		c0.41,4.73-3.07,7.38-6.33,9.47c-5.68,3.65-12.07,5.47-18.95,5.05C2675.77,858.42,2674.1,858.51,2671.17,858.51z"/>
	<path fill="#72532A" d="M8263.12,648.67c0.9-1.7,2.4-2.19,4.2-2.06C8266.44,648.37,8264.82,648.6,8263.12,648.67z"/>
	<path fill="#72532A" d="M3378.85,652.59c1.33-2.21,2.61-1.71,3.87,0.07C3381.43,652.64,3380.14,652.62,3378.85,652.59z"/>
	<path fill="#7FA414" d="M2932.96,470.6c0.21-3.02,2.17-3.9,4.79-3.75c12.65,0.69,25.15-1.29,37.72-1.98
		c20.51-1.12,40.82-3.8,61.06-7.04c9.13-1.46,18.21-3.29,27.29-5.08c3.24-0.64,6.53-1.34,9.56-2.6c3.4-1.41,4.08-4.18,2.04-7.33
		c-0.72-1.11-1.84-1.95-2.57-3.05c-3.25-4.97-1.91-8.38,3.92-8.82c5.96-0.46,12.01-0.53,17.96-0.07c9.55,0.74,19.11,1.68,28.55,3.24
		c6.87,1.13,13.9,1.5,20.71,2.04c10.88,0.86,21.69,3.01,32.68,2.67c19.6-0.61,39.14,3.99,58.68,1.75
		c22.45-2.57,45.02-1.03,67.52-3.25c13.1-1.29,26.39-2.43,39.67-2.73c6.51-0.15,11.82,1.67,16.36,5.77
		c8.68,7.84,19.07,9.89,30.3,10.52c15.23,0.85,30.42,2.07,45.72,2.02c13.72-0.05,26.98-2.12,40.27-5.24
		c18.35-4.31,36.97-6.92,55.7-9.35c18.28-2.37,35.45,1.9,53.07,3.9c14.46,1.64,28.99,2.7,43.39,4.68
		c11.15,1.54,22.41,1.4,33.54,3.39c9.42,1.68,19.22,1.66,28.7,1.94c17.26,0.51,34.47,1.98,51.68,2.86
		c63.19,3.23,126.38,0.86,189.56,1.71c12.64,0.17,25.05-3.23,37.73-2c2.62,0.25,5.32-0.5,8.27,0.79c-8.3,1.85-16.31,3.44-24.2,5.45
		c-4.74,1.21-8.75,3.56-8.32,9.52c-91.67,0.03-183.34,0.01-275.01,0.18c-5.74,0.01-11.02-2.44-16.72-2.02
		c-4.36-2.5-9.13-3.34-14.05-4.02c-13.45-1.85-27.01-2.79-40.42-4.47c-16.18-2.03-32.44-2.2-48.56-2.97
		c-32.56-1.55-65.25-0.47-97.89-0.45c-2.66,0-5.42-0.31-7.97,0.26c-15.35,3.39-31.07,1.05-46.55,3.43c-9.75,1.5-19.7,2.11-29.5,3.66
		c-6.45,1.02-13.23,0.68-18.98,4.6c-9.11,2.41-18.43,1.88-27.7,1.88C3191.63,470.63,3062.3,470.61,2932.96,470.6z"/>
	<path fill="#7FA414" d="M5780.17,470.58c0.16-1.77,0.72-3.29,2.73-3.61c4.89-0.79,9.54-2.48,14.69-2.35
		c13.64,0.32,27.31-0.16,40.95,0.18c47.9,1.23,95.75-1.46,143.6-2.5c19.35-0.42,38.88-2.31,58.29-4.85
		c20.09-2.62,39.56-7.97,59.5-10.89c14.94-2.19,29.95-6.24,45.24-2c0.63,0.17,1.33,0.17,1.99,0.13c16.31-1.05,32.45,1.89,48.69,2.52
		c12.89,0.5,25.82,1.89,38.74,1.43c16.86-0.6,33.71-1.47,50.5-3.54c8.84-1.09,17.8-0.97,26.73-2.09c24.77-3.12,49.75-1.78,74.65-2.4
		c29.75-0.74,58.8,3.16,87.55,10.46c9.29,2.36,18.87,3.06,28.45,3.86c15.57,1.3,31.13,1.58,46.72,2.1
		c8.51,0.29,16.44,4.76,25.06,5.94c12.46,1.71,24.84,3.89,37.48,3.83c2.93-0.02,6.08-0.6,8.38,2.07
		C6340.14,472.87,6060.15,469.6,5780.17,470.58z"/>
	<path fill="#7FA414" d="M6735.9,470.6c0.28-3.77,3.03-3.9,5.78-3.77c14.68,0.68,29.02-2.25,43.43-4.21
		c5.54-0.75,10.93-2.64,16.36-4.09c1.66-0.44,3.13-1.45,3.42-3.24c0.39-2.39-1.37-3.7-3.23-4.45c-8.67-3.47-17.83-4.82-27.01-6.08
		c-24.36-3.34-48.83-4.67-73.42-4.05c-3.39,0.09-6.45-1.02-10.42-3.21c14.5-1.97,27.92-3.94,41.58-4.93
		c27.79-2.01,55.65-2.52,83.4-4.32c21.95-1.42,43.91,0.3,65.69-1.73c33.56-3.13,67.12-1.66,100.65-1.35
		c18.53,0.17,37.19,0.55,55.67,1.98c22.69,1.75,45.58,2.68,67.93,7.71c3.87,0.87,7.75,1.76,11.54,2.92
		c1.46,0.45,3.31,1.08,3.47,3.12c0.15,1.99-1.41,2.84-2.82,3.7c-4.08,2.47-8.82,3.08-13.3,3.9c-18.2,3.31-36.38,6.69-54.83,8.62
		c-7.42,0.78-15.16,1.42-22.67,4.56c3.83,4.12,9.28,3.22,13.73,4.88c2.27,0.85,4.6,0.91,4.62,4.04
		C6942.28,470.59,6839.09,470.59,6735.9,470.6z"/>
	<path fill="#7FA414" d="M4890.41,470.59c0.27-3.78,3.05-3.57,5.78-3.83c41.04-3.92,82.22-5.29,123.36-3.61
		c17.57,0.72,35.32-0.12,52.66,2.16c15.54,2.04,30.3,0.59,45.26-2.45c9.08-1.85,16.18-5.59,17.2-16.33
		c0.38-4.02,3.64-6.65,7.36-8.84c9.14-5.39,19.38-7.24,29.44-8.51c25.09-3.17,50.45-3.49,75.61-1.89
		c12.26,0.78,24.71-0.17,36.69,1.86c14.5,2.45,29.25-0.27,43.55,3.4c1.57,0.4,3.32,0.3,4.97,0.2c14.98-0.95,29.79,1.76,44.69,2.46
		c19.48,0.92,38.97,2.49,58.46,3.81c24.78,1.68,49.51,4.06,74.54,5.11c-8.2,1.55-16.38,3.31-24.63,4.55
		c-5.01,0.75-9.54,2.8-14.32,4.12c-2.4,0.66-4.4,1.83-4.67,4.52c-0.33,3.26,1.94,4.82,4.53,5.77c3.72,1.37,7.49,2.69,11.34,3.63
		c2.29,0.56,3.56,1.52,3.67,3.87c-30.4,0.02-60.79-0.04-91.18,0.11c-6.96,0.03-13.6-2.83-20.61-1.87
		c-5.29-4.21-11.57-1.06-17.27-2.29c-14.61-3.16-29.62-2.84-44.35-3.36c-32.75-1.16-65.57-0.82-98.35,1.39
		c-9.89,0.67-19.62,2.93-29.59,2.61c-0.78-0.03-1.59,1.05-2.39,1.61C5084.93,472.89,4987.66,469.61,4890.41,470.59z"/>
	<path fill="#7FA414" d="M4464.52,470.59c0.38-5.35-2.87-8.08-7.4-9.19c-12.21-2.99-24.55-5.25-37.06-6.7
		c-10.5-1.22-21.13-1.28-31.51-3.51c-0.97-0.21-1.99-0.37-2.97-0.31c-16.64,1.04-33.15-1.58-49.68-2.48
		c-30.57-1.67-61.2-0.12-91.64-2.14c-20.96-1.39-41.83-1.01-62.72-1.27c-11.9-0.15-23.73,2.66-35.72,1.78
		c-2.28-0.17-4.58-0.02-6.93-0.61c6.07-1.76,12.49-2.96,18.46-2.93c12.68,0.05,25.24-1.39,37.67-2.82
		c11.17-1.28,22.45-0.76,33.58-3.05c8.03-1.66,16.44-1.16,24.7-2.25c16.38-2.16,32.96-2.73,49.41-4.41
		c15.44-1.57,30.8-3.9,46.24-5.56c15.45-1.66,30.94-3.11,46.44-4.27c6.8-0.51,13.24-2.59,20.61-0.94
		c8.11,1.82,15.32,4.71,21.49,9.67c14.47,11.65,31.16,16.8,49.2,19.43c20.93,3.05,41.98,5.17,62.91,8.07
		c19.97,2.77,40.04,4.6,60.03,7.16c9.1,1.17,18.36,2.7,27.67,2.55c2.64-0.04,5.39-0.3,7.37,2.09
		C4584.64,472.24,4524.57,470.04,4464.52,470.59z"/>
	<path fill="#7FA414" d="M9352.65,450.64c39.66,7.18,74.53,5.89,104.9-0.09c41.4-8.16,70.21-24.21,80.32-13.03
		c8.22,9.09-0.95,30.66-8.68,45.59c-181.9-4.63-363.82-8.73-545.75-12.31c-33.55-0.66-67.1-1.3-100.64-1.92
		c2.63-2.93,6.16-2.15,9.37-2.04c23.61,0.84,47.09-2.06,70.66-2.63c13.85-0.34,27.93-0.07,41.68-1.78
		c14.95-1.86,29.96-0.24,44.7-2.04c13.63-1.66,27.29-0.25,40.71-1.93c15.6-1.95,31.29-0.24,46.7-2.05
		c16.62-1.95,33.29-0.05,49.7-1.98c19.61-2.31,39.25-0.08,58.7-1.92C9280.89,449.14,9316.79,451.83,9352.65,450.64z"/>
	<path fill="#5F821A" d="M3348.67,468.76c5.75-3.92,12.53-3.58,18.98-4.6c9.8-1.55,19.75-2.15,29.5-3.66
		c15.48-2.39,31.21-0.04,46.55-3.43c2.55-0.56,5.31-0.25,7.97-0.26c32.64-0.01,65.33-1.1,97.89,0.45
		c16.12,0.77,32.38,0.94,48.56,2.97c13.41,1.68,26.98,2.61,40.42,4.47c4.92,0.68,9.7,1.52,14.05,4.02
		c-2.25,2.84-5.45,1.98-8.34,1.98c-95.74,0.04-191.49,0.04-287.23,0C3354.14,470.7,3350.95,471.56,3348.67,468.76z"/>
	<path fill="#7FA414" d="M2039.21,470.59c0.13-2.34,1.32-3.42,3.7-3.8c10.76-1.73,21.17-4.17,31.24-8.95
		c6.44-3.06,14.45-1.67,21.58-0.3c4.3,0.83,8.51,1.19,12.8,1.2c22.92,0.05,45.84,0.19,68.76,0.04c14.92-0.1,29.63,1.77,44.4,3.56
		c8.49,1.03,17.17,2.07,25.64,2.07c13.96,0.01,27.66,3.39,41.62,2.41c2.35-0.16,4.67,0.06,6.37,2.06
		C2209.96,472.27,2124.58,470.03,2039.21,470.59z"/>
	<path fill="#7FA414" d="M2429.12,470.53c-0.46-4.67-4.19-5.34-7.68-6.58c-4.92-1.75-10.52-1.59-14.83-5.04
		c0.53-3.32,3.09-2.04,4.69-2.05c12.65-0.12,25.42-1.13,37.92,0.24c15.27,1.67,30.62,0.31,45.7,2.07
		c14.63,1.7,29.22,0.62,43.74,1.78c29.77,2.37,59.63,2.73,89.41,4.31c17.26,0.92,34.49,1.05,51.73,1.55
		c2.65,0.08,5.39-0.27,7.39,2.08c-40.17-0.28-80.28,2.45-120.47,1.9C2520.86,470.15,2474.99,470.57,2429.12,470.53z"/>
	<path fill="#5F821A" d="M5182.16,468.78c0.8-0.56,1.61-1.64,2.39-1.61c9.97,0.33,19.7-1.94,29.59-2.61
		c32.78-2.21,65.59-2.55,98.35-1.39c14.74,0.52,29.74,0.2,44.35,3.36c5.7,1.23,11.98-1.92,17.27,2.29
		c-2.65,2.95-6.19,1.87-9.37,1.87c-57.74,0.06-115.48,0.06-173.22,0C5188.33,470.69,5184.78,471.79,5182.16,468.78z"/>
	<path fill="#492B00" d="M4656.29,574.71c-0.28-0.27-0.56-0.55-0.84-0.82c0.18,0.04,0.43,0.02,0.53,0.13
		c0.16,0.18,0.23,0.45,0.33,0.67C4656.31,574.69,4656.29,574.71,4656.29,574.71z"/>
	<path fill="#492B00" d="M6977.64,578.7c-0.28-0.16-0.82-0.4-0.8-0.48c0.19-0.7,0.51-0.53,0.82,0.46
		C6977.66,578.68,6977.64,578.7,6977.64,578.7z"/>
	<path fill="#5E801A" d="M6101.91,526.72c0.15-0.28,0.37-0.83,0.45-0.81C6103.04,526.07,6102.88,526.39,6101.91,526.72
		L6101.91,526.72z"/>
	<path fill="#492B00" d="M7687.46,520.74c0.69,0.64,1.37,1.28,2.06,1.92c0,0-0.14,0.14-0.15,0.15c-0.64-0.69-1.27-1.38-1.91-2.08
		C7687.46,520.73,7687.46,520.74,7687.46,520.74z"/>
	<path fill="#492B00" d="M7687.46,520.73c-0.29-0.15-0.85-0.35-0.83-0.43c0.16-0.7,0.48-0.54,0.83,0.44
		C7687.46,520.74,7687.46,520.73,7687.46,520.73z"/>
	<path fill="#6D8F1E" d="M3674.14,278.77c-4.17,3.16-6.89,1.58-11.1,2.23C3667.2,277.85,3669.92,279.42,3674.14,278.77z"/>
	<path fill="#FFFFFF" d="M4924.63,178.58c1.09,0.64,1.87,1.51,0.77,2.61c-0.24,0.24-1.43-0.46-2.18-0.72
		C4923.68,179.84,4924.16,179.21,4924.63,178.58z"/>
	<path fill="#FFFFFF" d="M4118.34,173.11c0.71-0.71,1.22-0.59,1.38,0.39c0.05,0.28-0.19,0.61-0.3,0.91c-0.3-0.51-0.6-1.01-0.9-1.52
		C4118.52,172.89,4118.34,173.11,4118.34,173.11z"/>
	<path fill="#FFFFFF" d="M4091.9,173.33c0.44,0.01,0.89,0.02,1.33,0.04c-0.12,0.03-0.25,0.12-0.36,0.09
		c-0.26-0.06-0.5-0.17-0.74-0.27C4092.14,173.18,4091.9,173.33,4091.9,173.33z"/>
	<path fill="#FFFFFF" d="M4091.85,169.92c0.8,1.12,1.68,2.24,0.06,3.41c-0.01,0.01,0.23-0.14,0.22-0.14
		c-0.66-0.64-1.31-1.28-1.95-1.92C4090.73,170.82,4091.29,170.37,4091.85,169.92z"/>
	<path fill="#FFFFFF" d="M7734.28,162.15c0.7,0.62,1.6,1.42,0.73,2.25c-0.88,0.84-1.63-0.02-2.12-0.87
		C7733.35,163.07,7733.81,162.61,7734.28,162.15z"/>
	<path fill="#FFFFFF" d="M9043.39,154.68c0.93,0.34,1.69,1.04,0.91,1.89c-0.78,0.84-1.52-0.09-2.13-0.69
		C9042.57,155.47,9042.98,155.07,9043.39,154.68z"/>
	<path fill="#FFCE00" d="M2042.56,133.33c0.47,0.06,0.95,0.12,1.42,0.18c-0.14,0.04-0.32,0.15-0.43,0.1
		c-0.27-0.11-0.51-0.29-0.77-0.44C2042.79,133.17,2042.56,133.33,2042.56,133.33z"/>
	<path fill="#FFFFFF" d="M2042.79,133.17c-0.91-0.39-1.81-0.8-1.96-1.95c0.45-0.49,0.96-0.91,1.51-1.28
		c0.79,1.08,1.53,2.16,0.23,3.38C2042.56,133.33,2042.79,133.17,2042.79,133.17z"/>
	<path fill="#FFFFFF" d="M5655.99,196.97c0.35,0.36,0.7,0.71,1.06,1.07c-0.38,0.02-0.77,0.05-1.15,0.07
		c0.11-0.43,0.22-0.85,0.34-1.28C5656.23,196.83,5655.99,196.97,5655.99,196.97z"/>
	<path fill="#FFFFFF" d="M6865.82,194.74c0.4,1.27,1.01-0.4,0.46,0.82c-0.07,0.16-0.19,0.29-0.29,0.43c-0.59-0.41-0.6-0.9-0.03-1.48
		L6865.82,194.74z"/>
	<path fill="#FFFFFF" d="M6865.97,194.51c-1.17,1.68-2.24,0.64-3.33-0.11c0.47-0.6,0.95-1.21,1.42-1.81
		c1.13,0.28,1.53,1.16,1.76,2.16C6865.82,194.74,6865.97,194.51,6865.97,194.51z"/>
	<path fill="#6D8F1E" d="M8111.87,366.07c-0.29,0.08-0.58,0.17-0.86,0.25c-0.07-0.25-0.27-0.67-0.19-0.72
		C8111.57,365.05,8111.94,365.23,8111.87,366.07z"/>
	<path fill="#5F821A" d="M8645.13,346.35c-0.23-0.19-0.46-0.38-0.7-0.57c0.27-0.14,0.54-0.42,0.8-0.4c0.25,0.02,0.47,0.34,0.7,0.53
		C8645.67,346.06,8645.4,346.21,8645.13,346.35z"/>
	<path fill="#683E07" d="M7184.67,587.91c0.14,0.27,0.42,0.55,0.4,0.81c-0.02,0.25-0.34,0.47-0.53,0.71
		C7183.91,588.85,7183.95,588.35,7184.67,587.91z"/>
	<path fill="#72532A" d="M6023.95,654.66c-0.28,0.27-0.57,0.54-0.85,0.82c0.04-0.18,0.02-0.44,0.13-0.54
		c0.18-0.16,0.45-0.21,0.68-0.31C6023.91,654.63,6023.95,654.66,6023.95,654.66z"/>
</g>
</svg>
