<?xml version="1.0" encoding="utf-8"?>
<!-- Generator: Adobe Illustrator 23.1.0, SVG Export Plug-In . SVG Version: 6.00 Build 0)  -->
<svg version="1.1" baseProfile="tiny" xmlns="http://www.w3.org/2000/svg" xmlns:xlink="http://www.w3.org/1999/xlink" x="0px"
	 y="0px" viewBox="0 0 9556.23 1319.88" xml:space="preserve">
<g id="Layer_1">
</g>
<g id="Layer_2">
	<g>
		<path fill="#FDFDFC" d="M9279.19,1278.49c-2989.49,0-5978.99,0-8968.48,0c1.13-11.36,2.26-22.72,3.39-34.08
			c9.94,0.42,19.88,1.2,29.82,1.2c2809.57,0.02,5619.14,0.02,8428.71-0.11c167.66-0.01,335.32-1.07,502.98-1.65
			C9276.81,1255.4,9278,1266.94,9279.19,1278.49z"/>
		<path fill="#C16A22" d="M314.1,1244.41c-182.64,32.13-231.33-13.76-246.76-36.11c-23.66-34.29-10.46-73.15-2.9-193.93
			c5.12-81.8,4.39-149.07,2.9-193.93c82.42,14.08,164.85,28.16,247.27,42.24c0.63,0.21,1.32,0.4,2.07,0.56
			c1.26,0.27,2.54,0.41,3.85,0.43c6.54,8.88,16.18,9.9,26.47,8.57c172.29-22.26,345.8-25.55,519.27-26.05
			c109.46-0.31,216.01,26.78,306.49,79.25c87.88,50.95,177.98,69.22,276.65,67.25c193.85-3.87,387.66,6.08,581.72-7.22
			c125.4-8.59,248.92-26.36,372.5-44.17c175.82-25.34,351.61-57.7,528.69-65.3c239.85-10.3,480.94-9.76,720.78,8.22
			c62.88,4.72,125.86,1.88,188.11,8.59c183.81,19.82,368.76,23.27,553.09,35.33c120.27,7.87,240.82,12.03,361.13,19.38
			c186.03,11.37,371.91,33.19,557.96,34.17c341.58,1.8,683.31,10.74,1024.99-5.79c131.98-6.38,264.18-15.13,396.02-17.55
			c267.97-4.92,534.71-25.44,802.02-38.5c107.19-5.24,214.26-12.61,321.36-17.53c207.96-9.56,415.94-21.36,623.94-27.39
			c245.51-7.11,491.44-2.35,737.18-1.03c38.03,0.21,54.21-7.96,51.31-45.95c-3.5-45.82-0.89-92.04-0.92-138.08
			c1.52-0.4,3.05-0.81,4.57-1.24c54.43-15.24,120.06-51.08,183.5-134.48c10.41,23.88,21.81,59.09,20.28,101.31
			c-1.74,48.11-19.07,72.21-28.97,109.99c-18.58,70.89,6.95,121.37,20.28,182.35c13.84,63.33,18.93,158.11-26.08,289.45
			c-55.75,2.21-111.5,4.42-167.26,6.63c-240.36,0.59-424.95,1.62-502.99,1.62c-4177.83,0.2-5779.3,105.83-8428.71,0.11
			C338.1,1245.37,319.47,1244.63,314.1,1244.41z M9268.73,1168.07c0.22-26.08-2.05-52.44,1.24-78.19
			c5.17-40.55-10.75-51.95-55.08-51.72c-332.83,1.72-665.68,0.85-998.53,0.94c-218.77,0.06-437.46,1.67-656.23,7.57
			c-130.7,3.53-261.17,17.02-392.17,10.9c-3.31-0.15-6.65,0.02-9.95,0.27c-235.42,17.64-471.13,30.41-707.25,36.47
			c-16.57,0.43-33.44-0.76-49.67,1.66c-105.39,15.74-212.26,8.13-318.57,23.12c-115.41,16.27-234.26,1.55-352.08,9.95
			c-146.66,10.46-294.46,1.22-441.95,9.94c-168.68,9.97-337.5-12.32-506.7-9.18c-47.14,0.87-96.73-1.74-142.75-10.52
			c-114.91-21.94-232.14-27.42-347.72-39.65c-143.79-15.22-288.05-31.34-432.55-43.3c-165.31-13.69-329.47-19.07-494.54-6.26
			c-19.72,1.53-39.19,5.34-54.64,18.47c-39.65,4-79.33,19.54-118.92-0.27c-11.31-12.83-27.31-9.99-41.49-8.88
			c-80.09,6.27-161.21,7.99-239.91,21.51c-172.66,29.66-345.63,54.52-521.28,60.86c-20.84,0.75-36.61,3.08-33.92,27.15
			c-269.6,2.82-539.12,2.25-808.11-18.23c4.57-30.12-22.58-30.48-41.46-34.92c-155.35-36.56-313.42-55.5-473.67-56.4
			c-190.42-1.07-380.85-0.73-571.27-0.14c-161.15,0.5-138.61-16.2-138.16,129.39c-2.01,63.73-2.01,63.75,69.06,63.75
			c2936.52,0.01,5873.03,0.01,8809.55,0.01C9270.31,1232.36,9270.31,1232.36,9268.73,1168.07z"/>
		<path fill="#F9B763" d="M9275.63,687.97c-2.04,0.83-4.15,1.46-6.34,1.89c-12.16-15.57-30.22-9.87-45.91-9.88
			c-376.56-0.18-753.12,0.01-1129.68,0.14c-3.56,0.01-7.12,0.02-10.68,0.04c-39.47,0.16-78.93,0.31-118.4,0.47
			c-7.22,0.05-14.44,0.1-21.66,0.16c-39.19,0.12-78.39,0.24-117.59,0.34c-120.94-0.01-241.87-0.01-373.88-0.01
			c23.6-25.29,41.09-18.29,56.21-18.96c97.52-4.31,195.27-4.2,292.8-6.98c183.6-5.24,366.57-23.58,550.41-21.53
			c23.1,0.26,46.15-4.1,68.84-5.48c125.33-7.63,251.07-5.08,376.28,1.13c52.99,2.63,106.79,9.01,158.36,2.09
			c84.44-11.34,166.75,2.95,249.9,6.07c0,0,24.37,1.11,59.2-3.48c42.52-5.6,73-9.61,83.78-30.61c8.48-16.53,2.93-40.02-8.69-54.99
			c-28.91-37.26-99.73-27.44-121.8-24.74c-403.05,49.33-812.58-5.4-1218.1,15.65c-168.32,8.74-337.63,18.92-506.73,11.39
			c-221.75-9.86-442.8,16.7-665.29,3c-174.61-10.75-350.06-19.18-525.4-21.05c-134.15-1.43-268.22,3.95-402.3,7
			c-187.03,4.25-374.31,2.25-561.73-4.82c-231.47-8.73-463.33-2.6-695.09,14.11c-191.61,13.82-384.04-14.47-576.42-7.54
			c-1.65,0.06-3.33-0.02-4.98-0.17c-159.63-14.32-318.61-21.65-479.79-11.25c-173.04,11.16-347.02,13.26-520.57,20.52
			c-210.56,8.81-420.86-9.92-631.41-8.96c-4.98,0.02-9.97-0.06-14.93-0.37c-191.02-12.09-381.89-31.2-573.08-34.42
			c-201.95-3.4-404.15-4.24-606.57,4.34c-158.55,6.72-317.68,14.55-476.83,12.43c-117.85-1.57-235.76-0.7-353.63-0.09
			c-22.47,0.12-46.07,2.35-76.54,5.78c-132.33,14.92-280.51,57.12-277.94,82.94c1.89,19.01,85.25,26.32,180.14,34.63
			c84.57,7.41,146.07,6.46,146.07,6.46c32.58-0.5,394.59-2.81,637.53-1.06c104.18,0.75,208.34-5.4,312.75,7.5
			c62.53,7.73,127.1,1.35,190.75,1.31c30.12,2.47,60.23,4.95,90.35,7.42c-14.56,19.04-36.35,11.21-54.94,11.27
			c-264.63,0.81-529.27,0.92-793.9,1.2c-109.18-0.25-218.35-0.51-327.53-0.76c-38.79-0.11-77.58-0.22-116.38-0.34
			c-88.11-1.36-176.22-2.71-264.33-4.07c0.55-34.66,0.02-85.82-5.79-147.62c-6.9-73.4-14.5-90.02-11.59-112.88
			c6.49-50.94,62.95-115.49,281.09-175.82c104.51,8.98,259.39,2.31,447.93-6.05c105.18-4.66,210.43-18.42,310.14-53.82
			c184.42-65.49,371.84-107.38,572.17-80.22c225.7,30.6,452.53,54.11,678.08,85.6c231.44,32.31,464.54,41.25,697.63,49.61
			c190.63,6.83,378.57-14.91,566.33-48.96c117.76-21.35,236.15-42.52,353.79-64.21c188.59-34.78,373.46-26.65,561.65-2.55
			c154.45,19.78,311.16,13.9,466.61,1.54c113.59-9.03,222.38-44.26,334.27-60.61c150.65-22.01,298.78-1.64,436.75,61.61
			c93.8,43,194.33,66.44,295.62,79.86c141.93,18.8,284.5-6.14,425.79-19.57c128.2-12.18,257.18-18.82,384.61-35.72
			c101.79-13.5,204.33-14.69,306.01-26.65c110.2-12.96,221.31-21.8,332-16.94c173.28,7.61,346.46,18.04,518.6,41.56
			c148.56,20.29,298.11,35.24,447.16,51.63c286.54,31.49,431.41,46.15,504.16,41.51c119.66-7.64,239.85-3.2,359.56-9.93
			c91.44-5.14,134.85-9.62,168.01,20.79c65.57,60.12,40.94,210.68-23.15,306.29C9399.2,640.93,9313.15,675.5,9275.63,687.97z"/>
		<path fill="#E19F46" d="M314.29,679.78c38.79,0.11,77.58,0.22,116.37,0.33c-13.31,31.94-42.14,18.06-62.81,14.44
			c-36.69-6.41-47.91,6.71-47.49,37.54c0.6,43.85,0.16,87.71,0.17,131.57c-2.04-0.03-4.02-0.36-5.92-1
			C314.51,801.72,314.4,740.75,314.29,679.78z"/>
		<path fill="#D57C2B" d="M67.34,820.44c-6.73-13.32-55.69-112.62-17.25-156.34c44.99-51.18,189.7-3.38,199.78,0.04
			c38.45,13.06,80.15,15.67,117.98,30.42c9.16,3.57,31.91,12.38,49.25,2.43c5.33-3.06,10-8.33,13.56-16.87
			c109.18,0.26,218.35,0.51,327.54,0.75c5.9,21.25,24.74,16.8,40.6,16.84c394.52,1.09,789.13-5.48,1183.3,18.05
			c117.27,7,234.78-1.04,352.64,7.87c170.86,12.91,343.22-5.98,514.47,11.19c9.8,0.98,20.33,1.16,29.72-1.12
			c13.67-3.33,33.41-5.15,30.05-23.68c-2.9-15.99-20.96-11.79-33.45-11.78c-216.99,0.13-433.61-10.91-650.38-17.02
			c-173.85-4.9-347.93-6.09-521.89-10.46c-32.03-0.8-63.71-22.77-96.2-2.35c-30.12-2.47-60.23-4.95-90.35-7.42
			c-1.79-23.5,11.4-31.84,33.62-24.21c26.09,8.96,52.51,6,78.8,6.05c224.15,0.41,448.31-0.96,672.43,1.26
			c67.23,0.67,134.14,4.55,201.72,2.86c61.77-1.55,123.97,14.56,186.84,14.57c283.09,0.06,566.22,2.29,849.26-1.02
			c98.3-1.15,194.01,19.38,291.44,18.88c630.99-3.23,1262.06,9.64,1892.97-16.18c235.31-9.63,471.46-1.62,707.23-1.8
			c16.56-0.01,33.2-0.43,49.65-1.97c158.27-14.87,317.38-7.09,476.02-12.93c61.23-2.25,125.24,4.16,187.98,5.22
			c83.18,1.4,166.41,0.35,249.62,0.35c-54.5,9.34-108.97,8.87-163.41,9.62c-16.75,0.23-38.33-7.28-45.34,16.8
			c-115.8,0.6-231.6,1.19-347.41,1.78c-70.96-0.21-142.01,5.32-212.49,6c-143.86,1.4-287.18,14.74-431.1,11.93
			c-153.74-3-307.09,15.02-460.96,8.97c-11.56-0.45-23.39-0.75-32.36,8.11c-806.78-0.08-1613.56-0.15-2420.34-0.23
			c-40.75-16.77-83.76-7.45-125.41-7.12c-54.86,0.43-110.61-10.01-164.75,6.75c-11.67,3.82-30.09-6.02-36.22,15.53
			c100.69,11.57,199.84,6.24,298.42,11.22c209.89,10.61,420.34,13.42,630.55,19.06c223.94,6.01,448.2,1.76,672.32,1.99
			c10.79,0.55,21.76,1.88,30.45-6.26c145.94-0.87,291.89-1.73,437.83-2.6c6.8,9.1,13.5,8.99,20.09-0.2
			c62.8-8.68,125.96-9.88,189.28-7.82c4.2,2.26,8.39,6.48,12.61,6.5c103.85,0.61,207.7,0.72,311.56,1.07
			c13.04,0.04,22.33-4.12,25.76-16.51c211.64-1.14,423.28-2.29,634.92-3.43c31.78,7.46,61.79-7.13,92.74-6.73
			c156.44,2.06,312.38-16,468.88-9.67c26.69,1.08,52.47-2.04,77.82-9.35c99.72-0.35,199.53,1.99,298.9-8.62
			c23.44,13.33,46.73,14.07,69.84-0.68c23.05-0.16,46.1-0.33,69.15-0.49c163.16,0.08,326.32,0.24,489.47,0.13
			c15.73-0.01,34.43,4.36,40.3-16.71c39.2-0.12,78.39-0.24,117.59-0.36c2.89,4.53,4.97,12.17,8.81,13.02
			c10.19,2.27,10.88-6.67,12.84-13.17c39.47-0.16,78.93-0.31,118.4-0.47c3.58,5.93,7.14,5.92,10.68-0.03
			c192.67-15.24,348.97-17.01,453.92-15.98c252.58,2.48,391.83,22.99,675.76,15.84c109.09-2.75,197.77-8.52,253.49-12.74
			c-10.79,21.72-24.42,55.55-28.2,98.21c-5.69,64.31,16.45,87.44,1.41,109.66c-24.82,36.68-107.67,6.89-231.18-1.2
			c-82.76-5.43-114.06,3.46-216.41,10.22c-196.33,12.97-270.95-7.18-520.77-9.19c-96.37-0.78-272.1,11.21-623.94,27.39
			c-107.1,4.93-214.17,12.3-321.36,17.53c-267.31,13.06-534.06,33.58-802.02,38.5c-131.83,2.42-264.04,11.17-396.02,17.55
			c-341.68,16.52-683.41,7.59-1024.99,5.79c-186.05-0.98-371.93-22.81-557.96-34.17c-120.31-7.35-240.86-11.51-361.13-19.38
			c-184.33-12.06-369.28-15.51-553.09-35.33c-62.25-6.71-125.23-3.88-188.11-8.59c-239.84-17.99-480.93-18.53-720.78-8.22
			c-177.08,7.61-352.86,39.96-528.69,65.3c-123.58,17.81-247.09,35.58-372.5,44.17c-194.06,13.3-387.87,3.34-581.72,7.22
			c-98.68,1.97-188.78-16.3-276.65-67.25c-48.88-28.34-168.57-77.72-306.49-79.25c-72.01-0.8-66.72,13.65-170.22,14.77
			c-75.5,0.82-98.11-6.64-170.94-5.79c-89.96,1.05-118.9,13.13-178.11,17.07C282.43,876.53,188,870.71,67.34,820.44z"/>
		<path fill="#AE5915" d="M3190.67,1048.27c39.59,19.81,79.27,4.27,118.93,0.27c125.39,22.57,250.44,48.36,371.04,86.32
			c100.72,31.7,201.47,43.96,306.67,42.92c547.43-5.37,1094.9,5.13,1642.38-8.47c305.24-7.58,610.89,0.31,916.3-2.94
			c93.59-1,186.96-16.22,280.51-24.22c111.65-9.55,221.72-30.9,334.87-30.27c197.45,1.1,389.72,42.65,585.22,58.81
			c183.48,15.16,364.38,11.94,536.61-54.86c105.9-41.07,216.47-50.86,328.35-58.63c3.3,2.64,8.78,6.47,16.27,9.03
			c30.37,10.38,62.07-10.99,73.38-17.12c60.01-32.5,141.44,41.71,275.72,73.36c48.39,11.41,49.98,4.64,161.77,13.47
			c76.93,6.08,186.85,18.04,321.36,44.1c0.88,31.29-8.34,47.84-17.15,57.21c-35.95,38.25-110.43,5.08-242.87-4.88
			c-13.19-0.99-57.61,8.05-145.37,0c-106.55-9.77-354.31,8.57-443.28,13.2c-365.2,18.97-1630.73-7.45-1822.38-11.21
			c-695.55-13.63-503.71,11.65-1935.37,14.47c-1224.63,2.42-1073.62-16.65-1981.73-8.68c-656.7,5.76-1314.95-33.23-1970.14,11.58
			c-185.52,12.69-373.22-28.43-557.83-6.11c-83.75,10.12-229.83,33.34-276.58-37.3c-17.6-26.59-16.19-59.03-12-82.83
			c116.4,27.44,252.48,48.63,404.77,52.45c48.31,1.21,94.73,0.59,139.08-1.44c18.15-2.63,42.63,11.07,50.94-16.9
			c63.17,3.36,125.45-6.38,188.08-10.94c8.63,0.68,16.14-0.89,20.57-8.69c87.78-28.78,178.32-43.19,271.09-35.38
			c52.5,4.42,104.72,9.04,157.42,8.02c14.27,15.33,33.21,7.43,50.32,8.63c29.73,0.14,59.47,0.29,89.2,0.43
			c19.79,14.29,39.72,13.84,59.79,0.51c19.79,2.84,39.59,5.68,59.38,8.52c268.99,20.49,538.5,21.05,808.1,18.24
			c41.72,5.81,81.4-11.37,121.97-10.75c127.07,1.93,252.05-15.57,377.18-31.18c92.63-11.56,184.64-27.32,276.93-41.21
			c8.69,0.68,16.22-0.95,20.58-8.86C3164.04,1054.02,3177.35,1051.14,3190.67,1048.27z"/>
		<path fill="#D57C2B" d="M8611.54,1057.19c-111.88,7.77-222.44,17.56-328.35,58.63c-172.23,66.79-353.13,70.02-536.61,54.86
			c-195.49-16.16-387.76-57.71-585.22-58.81c-113.15-0.63-223.21,20.73-334.87,30.27c-93.54,8-186.92,23.22-280.51,24.22
			c-305.41,3.25-611.07-4.64-916.3,2.94c-547.49,13.6-1094.95,3.11-1642.38,8.47c-105.19,1.03-205.95-11.23-306.67-42.92
			c-120.59-37.96-245.64-63.75-371.04-86.32c15.44-13.12,34.91-16.94,54.63-18.47c165.07-12.81,329.23-7.43,494.54,6.26
			c144.5,11.97,288.76,28.09,432.55,43.3c115.57,12.23,232.81,17.72,347.72,39.65c46.02,8.78,95.61,11.4,142.75,10.52
			c169.2-3.14,338.02,19.15,506.7,9.18c147.49-8.72,295.29,0.52,441.95-9.94c117.82-8.4,236.67,6.32,352.08-9.95
			c106.31-14.99,213.18-7.38,318.57-23.12c16.23-2.42,33.1-1.24,49.67-1.66c236.12-6.06,471.83-18.83,707.25-36.47
			c3.3-0.25,6.65-0.42,9.95-0.27c208.14,9.71,317.54-8.52,392.17-10.9c257.82-8.23,235.38-14.15,370.38-14.93
			c133.48-0.77,201.78,4.75,285.85,7.36c219.08,6.82,420.65-13.35,823.81-53.67c92.15-9.22,420.69-42.82,437.26,20.49
			c2.18,8.32-2.11,14.19-5.57,60.55c-4.58,61.4,1.25,73.65-5.58,86.88c-11.31,21.89-53.81,39.66-197.55,14.72
			c-99.41-3.57-195.05-27.5-291.82-45.61c-111.23-20.81-219.35-57.51-334.88-56.62C8631.86,1062.96,8621.7,1060.08,8611.54,1057.19z
			"/>
		<path fill="#D57C2B" d="M1594.32,1134.14c-35.91-4-71.82-7.99-107.74-11.99c-19.79-14.32-39.72-13.9-59.79-0.5
			c-29.73-0.14-59.47-0.29-89.2-0.42c-11.89-27.17-30.42-21.26-50.31-8.64c-52.71,1.02-104.93-3.6-157.42-8.02
			c-92.77-7.81-183.31,6.6-271.09,35.39c-15.03-13.64-17.76-2.39-20.57,8.69c-62.63,4.56-124.91,14.3-188.08,10.93
			c-18.18,2.53-42.76-11.38-50.93,16.91c-45.23,1.36-91.6,1.89-139.08,1.44c-145.01-1.37-280.8-11.64-406.16-27.41
			c0.89-17.18,2.37-43.35,4.69-75.35c2.74-37.8,4.15-56.78,5.79-60.78c20.87-50.79,212.53-10.13,370.85,8.68
			c108.81,12.93,45.72-3.01,595.54,16.3c328.94,11.55,188.63,11.54,209.87,11.59c125.32,0.32,204.47-11.41,289.76,35.79
			C1559.71,1102.92,1580.95,1121.21,1594.32,1134.14z"/>
		<path fill="#D57C2B" d="M3190.67,1048.27c-12.52,6.01-25.52,10.15-39.95,8.64c-15.16-13.55-17.81-2.23-20.58,8.85
			c-92.29,13.89-184.3,29.66-276.93,41.21c-125.12,15.61-250.11,33.11-377.18,31.18c-40.57-0.62-80.25,16.56-121.97,10.75
			c-2.68-24.07,13.09-26.4,33.93-27.16c175.65-6.33,348.62-31.2,521.28-60.86c78.7-13.52,159.82-15.24,239.91-21.51
			C3163.36,1038.27,3179.36,1035.43,3190.67,1048.27z"/>
		<path fill="#E19F46" d="M7185.51,678.47c7.02-24.06,28.6-16.55,45.35-16.78c54.44-0.75,108.91-0.28,163.41-9.62
			c-83.21,0-166.44,1.06-249.62-0.35c-62.74-1.06-126.75-7.48-187.98-5.22c-158.64,5.84-317.76-1.93-476.02,12.93
			c-16.46,1.55-33.1,1.96-49.65,1.97c-235.77,0.18-471.92-7.83-707.23,1.8c-630.91,25.81-1261.98,12.95-1892.97,16.18
			c-97.42,0.5-193.13-20.03-291.44-18.88c-283.05,3.31-566.17,1.08-849.26,1.02c-62.87-0.01-125.08-16.12-186.84-14.57
			c-67.59,1.69-134.5-2.2-201.72-2.86c-224.12-2.22-448.29-0.85-672.43-1.26c-26.29-0.05-52.71,2.91-78.8-6.05
			c-22.22-7.63-35.41,0.71-33.62,24.21c-28.9,3.37-75.81,7.89-133.99,8.94c-60.6,1.1-102.81-2.12-211.5-8.68
			c-87.47-5.28-131.21-7.92-158.01-9.07c-170.78-7.33-192.86,12.6-380.89,11.97c-147.04-0.49-123.84-12.65-256.65-10.91
			c-76.98,1.01-153.52-15.25-230.5-14.45c-22.29,0.23-83.64,1.39-95.72-26.64c-4-9.29-0.42-16.74,0.51-37.73
			c1.23-27.68-3.4-50.62-7.84-66.35c89.64,5.78,213.62,12.3,361.81,15.35c51.35,1.06,156.88-2.54,353.63,0.09
			c159.16,2.12,318.29-5.71,476.83-12.43c202.42-8.58,404.62-7.74,606.57-4.34c191.19,3.22,382.07,22.33,573.08,34.42
			c4.96,0.31,9.96,0.39,14.93,0.37c210.55-0.96,420.85,17.77,631.41,8.96c173.54-7.26,347.53-9.36,520.57-20.52
			c161.19-10.4,320.17-3.07,479.79,11.25c1.65,0.15,3.32,0.23,4.98,0.17c192.38-6.93,384.81,21.36,576.42,7.54
			c231.76-16.72,463.62-22.84,695.09-14.11c187.42,7.06,374.7,9.07,561.73,4.82c134.08-3.05,268.16-8.44,402.3-7
			c175.34,1.87,350.79,10.3,525.4,21.05c222.48,13.7,443.54-12.87,665.29-3c248.21,11.04,228.48-5.95,506.73-11.39
			c687.15-13.44,874.41-3.58,1064.66-22.74c76.01-7.66,152.67-6.31,228.88-11.58c115.07-7.96,178.27-15.59,188.41,8.66
			c10.48,25.09-42.57,68.09-47.16,71.76c-44.63,35.61-98.5,41.56-169.97,48.61c-10.63,1.05-26.9,4.69-59.2,3.48
			c-83.15-3.12-165.46-17.41-249.9-6.07c-51.57,6.93-105.38,0.54-158.36-2.09c-125.21-6.22-250.95-8.76-376.28-1.13
			c-22.69,1.38-45.73,5.73-68.84,5.48c-183.84-2.05-366.81,16.29-550.41,21.53c-97.54,2.78-195.28,2.67-292.8,6.98
			c-15.13,0.67-32.62-6.33-56.21,18.96c132,0,252.93,0,373.88,0.01c-5.87,21.08-24.56,16.71-40.3,16.72
			c-163.16,0.11-326.32-0.05-489.47-0.13c-1.99-19.62-17.9-17.7-32.46-17.93C7237.27,679.37,7211.39,678.91,7185.51,678.47z
			 M1383.77,640.33c0.43-1.48,0.85-2.96,1.28-4.43c-45.51,0-91.03,0-136.54,0c-0.01,1.48-0.02,2.96-0.03,4.43
			C1293.58,640.33,1338.67,640.33,1383.77,640.33z"/>
		<path fill="#E19F46" d="M1607.04,668.4c32.5-20.42,64.18,1.55,96.2,2.35c173.96,4.37,348.05,5.56,521.89,10.46
			c216.78,6.11,433.39,17.16,650.38,17.02c12.49-0.01,30.56-4.2,33.45,11.78c3.35,18.53-16.38,20.35-30.05,23.68
			c-9.38,2.28-19.92,2.1-29.72,1.12c-171.25-17.17-343.6,1.71-514.47-11.19c-117.86-8.9-235.37-0.86-352.64-7.87
			c-394.17-23.53-788.78-16.97-1183.3-18.05c-15.86-0.04-34.69,4.4-40.6-16.84c264.63-0.27,529.26-0.39,793.9-1.19
			C1570.69,679.62,1592.48,687.44,1607.04,668.4z"/>
		<path fill="#E19F46" d="M7964.63,680.62c-1.96,6.5-2.65,15.44-12.84,13.17c-3.84-0.86-5.92-8.49-8.81-13.02
			C7950.19,680.73,7957.41,680.68,7964.63,680.62z"/>
		<path fill="#E19F46" d="M8093.71,680.12c-3.54,5.95-7.1,5.96-10.68,0.03C8086.59,680.14,8090.15,680.13,8093.71,680.12z"/>
		<path fill="#F9B763" d="M3280.86,715.05c806.78,0.08,1613.56,0.15,2420.34,0.24c155.96,0.4,311.93,0.37,467.88,1.77
			c16.84,0.15,41.93-12.27,49.21,16.18c-211.64,1.14-423.28,2.29-634.93,3.41c-106.45-0.45-212.89-0.88-319.33-1.29
			c-11.52-0.04-23.21-0.36-30.58,10.24c-63.32-2.06-126.48-0.86-189.28,7.82c-6.8-9.06-13.5-8.91-20.09,0.2
			c-145.94,0.87-291.89,1.73-437.83,2.58c-11.27-2.57-22.25-3.84-30.46,6.28c-224.12-0.23-448.38,4.02-672.32-1.99
			c-210.21-5.64-420.66-8.45-630.55-19.06c-98.59-4.98-197.73,0.34-298.42-11.22c6.13-21.55,24.55-11.71,36.22-15.51
			C3087.43,714.83,3184.14,714.94,3280.86,715.05z"/>
		<path fill="#E19F46" d="M6218.28,733.25c-7.27-28.45-32.36-16.03-49.21-16.18c-155.95-1.4-311.91-1.37-467.88-1.77
			c8.97-8.87,20.8-8.58,32.36-8.12c153.87,6.05,307.22-11.98,460.96-8.97c143.92,2.81,287.24-10.53,431.1-11.93
			c70.48-0.69,141.54-6.21,212.49-6.01c-34.6,34.38,29.58,8,19.61,27.24c-25.35,7.32-51.13,10.43-77.82,9.35
			c-156.5-6.33-312.44,11.72-468.88,9.67C6280.07,726.11,6250.06,740.7,6218.28,733.25z"/>
		<path fill="#F9B763" d="M6857.72,707.5c9.97-19.23-54.21,7.14-19.61-27.24c115.81-0.58,231.61-1.17,347.41-1.77
			c25.87,0.42,51.75,0.88,77.64,1.29c14.56,0.23,30.47-1.69,32.46,17.93c-23.06,0.16-46.11,0.32-69.16,0.48
			c-23.44-14.05-46.74-15.04-69.84,0.68C7057.25,709.49,6957.44,707.14,6857.72,707.5z"/>
		<path fill="#E19F46" d="M5233.44,745.61c7.38-10.6,19.06-10.29,30.58-10.24c106.44,0.41,212.88,0.85,319.33,1.29
			c-3.41,12.41-12.7,16.57-25.75,16.52c-103.85-0.35-207.71-0.46-311.56-1.07C5241.83,752.09,5237.64,747.87,5233.44,745.61z"/>
		<path fill="#E19F46" d="M3280.86,715.05c-96.72-0.11-193.44-0.22-290.16-0.35c54.14-16.77,109.88-6.33,164.75-6.77
			C3197.11,707.6,3240.11,698.28,3280.86,715.05z"/>
		<path fill="#E19F46" d="M7156.62,698.88c23.1-15.72,46.39-14.73,69.84-0.68C7203.34,712.95,7180.05,712.21,7156.62,698.88z"/>
		<path fill="#E19F46" d="M5024.06,753.63c6.59-9.11,13.29-9.26,20.09-0.2C5037.56,762.62,5030.87,762.73,5024.06,753.63z"/>
		<path fill="#E19F46" d="M4555.78,762.49c8.21-10.12,19.18-8.85,30.46-6.28C4577.54,764.37,4566.57,763.04,4555.78,762.49z"/>
		<path fill="#C16A22" d="M1426.8,1121.64c20.06-13.4,40-13.82,59.79,0.5C1466.52,1135.49,1446.59,1135.94,1426.8,1121.64z"/>
		<path fill="#C16A22" d="M1287.28,1112.58c19.89-12.62,38.43-18.53,50.31,8.64C1320.49,1120.01,1301.56,1127.91,1287.28,1112.58z"
			/>
		<path fill="#C16A22" d="M599.19,1176.48c8.17-28.29,32.75-14.38,50.93-16.91C641.82,1187.54,617.34,1173.85,599.19,1176.48z"/>
		<path fill="#C16A22" d="M8611.54,1057.19c15.99-14.63,25.56-9.98,30.49,8.65C8630.7,1066.48,8618.97,1068.31,8611.54,1057.19z"/>
		<path fill="#C16A22" d="M3130.15,1065.76c2.76-11.09,5.41-22.4,20.58-8.85C3146.36,1064.81,3138.83,1066.44,3130.15,1065.76z"/>
		<path fill="#C16A22" d="M838.2,1148.64c2.81-11.08,5.53-22.33,20.57-8.69C854.34,1147.75,846.83,1149.31,838.2,1148.64z"/>
		<path fill="#D57C2B" d="M1383.77,640.33c-45.1,0-90.2,0-135.3,0c0.01-1.48,0.02-2.96,0.03-4.43c45.51,0,91.03,0,136.54,0
			C1384.63,637.37,1384.2,638.85,1383.77,640.33z"/>
	</g>
</g>
</svg>
